MerriweatherSans-ExtraBoldItalic.ufo
<glyph name="exclam" format="2">
  <advance width="670"/>
  <unicode hex="0021"/>
  <note>
exclam
</note>
  <outline>
    <contour>
      <point x="196" y="476" type="line"/>
      <point x="448" y="476" type="line"/>
      <point x="686" y="1736" type="line"/>
      <point x="330" y="1736" type="line"/>
    </contour>
    <contour>
      <point x="246" y="-18" type="curve" smooth="yes"/>
      <point x="372" y="-18"/>
      <point x="454" y="68"/>
      <point x="454" y="194" type="curve" smooth="yes"/>
      <point x="454" y="282"/>
      <point x="402" y="340"/>
      <point x="296" y="340" type="curve" smooth="yes"/>
      <point x="176" y="340"/>
      <point x="92" y="244"/>
      <point x="92" y="130" type="curve" smooth="yes"/>
      <point x="92" y="42"/>
      <point x="150" y="-18"/>
    </contour>
  </outline>
</glyph>
<glyph name="numbersign" format="2">
  <advance width="1372"/>
  <unicode hex="0023"/>
  <note>
numbersign
</note>
  <outline>
    <contour>
      <point x="222" y="0" type="line"/>
      <point x="458" y="0" type="line"/>
      <point x="516" y="314" type="line"/>
      <point x="742" y="314" type="line"/>
      <point x="696" y="0" type="line"/>
      <point x="930" y="0" type="line"/>
      <point x="982" y="314" type="line"/>
      <point x="1176" y="314" type="line"/>
      <point x="1196" y="536" type="line"/>
      <point x="1014" y="536" type="line"/>
      <point x="1064" y="830" type="line"/>
      <point x="1262" y="830" type="line"/>
      <point x="1282" y="1046" type="line"/>
      <point x="1094" y="1046" type="line"/>
      <point x="1140" y="1326" type="line"/>
      <point x="902" y="1326" type="line"/>
      <point x="852" y="1046" type="line"/>
      <point x="626" y="1046" type="line"/>
      <point x="670" y="1326" type="line"/>
      <point x="432" y="1326" type="line"/>
      <point x="386" y="1046" type="line"/>
      <point x="198" y="1046" type="line"/>
      <point x="180" y="830" type="line"/>
      <point x="356" y="830" type="line"/>
      <point x="306" y="536" type="line"/>
      <point x="126" y="536" type="line"/>
      <point x="106" y="314" type="line"/>
      <point x="276" y="314" type="line"/>
    </contour>
    <contour>
      <point x="546" y="536" type="line"/>
      <point x="596" y="830" type="line"/>
      <point x="822" y="830" type="line"/>
      <point x="774" y="536" type="line"/>
    </contour>
  </outline>
</glyph>
<glyph name="dollar" format="2">
  <advance width="1176"/>
  <unicode hex="0024"/>
  <note>
dollar
</note>
  <outline>
    <contour>
      <point x="338" y="-268" type="line"/>
      <point x="572" y="-268" type="line"/>
      <point x="620" y="-4" type="line"/>
      <point x="876" y="34"/>
      <point x="1020" y="188"/>
      <point x="1018" y="442" type="curve" smooth="yes"/>
      <point x="1016" y="620"/>
      <point x="904" y="732"/>
      <point x="736" y="862" type="curve" smooth="yes"/>
      <point x="612" y="960"/>
      <point x="540" y="1020"/>
      <point x="540" y="1116" type="curve" smooth="yes"/>
      <point x="540" y="1186"/>
      <point x="608" y="1238"/>
      <point x="722" y="1238" type="curve" smooth="yes"/>
      <point x="818" y="1238"/>
      <point x="942" y="1198"/>
      <point x="988" y="1152" type="curve"/>
      <point x="1094" y="1426" type="line"/>
      <point x="1044" y="1464"/>
      <point x="954" y="1498"/>
      <point x="836" y="1506" type="curve"/>
      <point x="878" y="1750" type="line"/>
      <point x="644" y="1750" type="line"/>
      <point x="600" y="1494" type="line"/>
      <point x="384" y="1448"/>
      <point x="218" y="1298"/>
      <point x="218" y="1076" type="curve" smooth="yes"/>
      <point x="218" y="920"/>
      <point x="306" y="776"/>
      <point x="482" y="644" type="curve" smooth="yes"/>
      <point x="604" y="552"/>
      <point x="668" y="486"/>
      <point x="668" y="392" type="curve" smooth="yes"/>
      <point x="668" y="300"/>
      <point x="598" y="254"/>
      <point x="458" y="254" type="curve" smooth="yes"/>
      <point x="364" y="254"/>
      <point x="252" y="298"/>
      <point x="182" y="352" type="curve"/>
      <point x="70" y="76" type="line"/>
      <point x="108" y="46"/>
      <point x="256" y="4"/>
      <point x="384" y="-10" type="curve"/>
    </contour>
  </outline>
</glyph>
<glyph name="percent" format="2">
  <advance width="1958"/>
  <unicode hex="0025"/>
  <note>
percent
</note>
  <outline>
    <contour>
      <point x="524" y="0" type="line"/>
      <point x="766" y="0" type="line"/>
      <point x="1456" y="1494" type="line"/>
      <point x="1234" y="1494" type="line"/>
    </contour>
    <contour>
      <point x="456" y="658" type="curve" smooth="yes"/>
      <point x="730" y="658"/>
      <point x="908" y="890"/>
      <point x="908" y="1160" type="curve" smooth="yes"/>
      <point x="908" y="1374"/>
      <point x="790" y="1496"/>
      <point x="572" y="1496" type="curve" smooth="yes"/>
      <point x="312" y="1496"/>
      <point x="120" y="1270"/>
      <point x="120" y="1010" type="curve" smooth="yes"/>
      <point x="120" y="788"/>
      <point x="250" y="658"/>
    </contour>
    <contour>
      <point x="478" y="860" type="curve" smooth="yes"/>
      <point x="398" y="860"/>
      <point x="350" y="926"/>
      <point x="350" y="1028" type="curve" smooth="yes"/>
      <point x="350" y="1148"/>
      <point x="424" y="1296"/>
      <point x="550" y="1296" type="curve" smooth="yes"/>
      <point x="624" y="1296"/>
      <point x="670" y="1232"/>
      <point x="670" y="1134" type="curve" smooth="yes"/>
      <point x="670" y="1016"/>
      <point x="600" y="860"/>
    </contour>
    <contour>
      <point x="1446" y="58" type="curve" smooth="yes"/>
      <point x="1718" y="58"/>
      <point x="1898" y="290"/>
      <point x="1898" y="560" type="curve" smooth="yes"/>
      <point x="1898" y="774"/>
      <point x="1780" y="896"/>
      <point x="1562" y="896" type="curve" smooth="yes"/>
      <point x="1300" y="896"/>
      <point x="1110" y="668"/>
      <point x="1110" y="412" type="curve" smooth="yes"/>
      <point x="1110" y="188"/>
      <point x="1278" y="58"/>
    </contour>
    <contour>
      <point x="1468" y="260" type="curve" smooth="yes"/>
      <point x="1388" y="260"/>
      <point x="1340" y="326"/>
      <point x="1340" y="428" type="curve" smooth="yes"/>
      <point x="1340" y="550"/>
      <point x="1412" y="696"/>
      <point x="1540" y="696" type="curve" smooth="yes"/>
      <point x="1614" y="696"/>
      <point x="1660" y="636"/>
      <point x="1660" y="534" type="curve" smooth="yes"/>
      <point x="1660" y="416"/>
      <point x="1590" y="260"/>
    </contour>
  </outline>
</glyph>
<glyph name="ampersand" format="2">
  <advance width="1528"/>
  <unicode hex="0026"/>
  <note>
ampersand
</note>
  <outline>
    <contour>
      <point x="602" y="-16" type="curve" smooth="yes"/>
      <point x="724" y="-16"/>
      <point x="836" y="0"/>
      <point x="942" y="34" type="curve"/>
      <point x="1020" y="0"/>
      <point x="1112" y="-16"/>
      <point x="1184" y="-16" type="curve" smooth="yes"/>
      <point x="1270" y="-16"/>
      <point x="1394" y="-6"/>
      <point x="1432" y="8" type="curve"/>
      <point x="1472" y="184" type="line"/>
      <point x="1400" y="180"/>
      <point x="1314" y="186"/>
      <point x="1246" y="210" type="curve"/>
      <point x="1314" y="280"/>
      <point x="1356" y="360"/>
      <point x="1376" y="454" type="curve" smooth="yes"/>
      <point x="1384" y="494"/>
      <point x="1388" y="536"/>
      <point x="1388" y="580" type="curve"/>
      <point x="1540" y="580" type="line"/>
      <point x="1560" y="810" type="line"/>
      <point x="1124" y="810" type="line" smooth="yes"/>
      <point x="1050" y="810"/>
      <point x="1002" y="796"/>
      <point x="978" y="766" type="curve"/>
      <point x="968" y="548" type="line"/>
      <point x="990" y="564"/>
      <point x="1024" y="574"/>
      <point x="1066" y="578" type="curve"/>
      <point x="1068" y="552"/>
      <point x="1070" y="528"/>
      <point x="1070" y="508" type="curve" smooth="yes"/>
      <point x="1070" y="452"/>
      <point x="1054" y="402"/>
      <point x="1022" y="360" type="curve"/>
      <point x="924" y="454"/>
      <point x="828" y="572"/>
      <point x="736" y="718" type="curve"/>
      <point x="964" y="854"/>
      <point x="1134" y="986"/>
      <point x="1134" y="1208" type="curve" smooth="yes"/>
      <point x="1134" y="1416"/>
      <point x="976" y="1510"/>
      <point x="740" y="1510" type="curve" smooth="yes"/>
      <point x="460" y="1510"/>
      <point x="256" y="1344"/>
      <point x="256" y="1082" type="curve" smooth="yes"/>
      <point x="256" y="992"/>
      <point x="288" y="872"/>
      <point x="334" y="766" type="curve"/>
      <point x="82" y="660"/>
      <point x="4" y="542"/>
      <point x="4" y="352" type="curve" smooth="yes"/>
      <point x="4" y="104"/>
      <point x="220" y="-16"/>
    </contour>
    <contour>
      <point x="626" y="212" type="curve" smooth="yes"/>
      <point x="448" y="212"/>
      <point x="344" y="260"/>
      <point x="344" y="382" type="curve" smooth="yes"/>
      <point x="344" y="440"/>
      <point x="384" y="528"/>
      <point x="456" y="550" type="curve"/>
      <point x="542" y="412"/>
      <point x="600" y="328"/>
      <point x="712" y="216" type="curve"/>
      <point x="686" y="214"/>
      <point x="658" y="212"/>
    </contour>
    <contour>
      <point x="624" y="922" type="curve"/>
      <point x="594" y="996"/>
      <point x="578" y="1062"/>
      <point x="578" y="1120" type="curve" smooth="yes"/>
      <point x="578" y="1222"/>
      <point x="628" y="1294"/>
      <point x="700" y="1294" type="curve" smooth="yes"/>
      <point x="780" y="1294"/>
      <point x="816" y="1252"/>
      <point x="816" y="1170" type="curve" smooth="yes"/>
      <point x="816" y="1072"/>
      <point x="746" y="996"/>
    </contour>
  </outline>
</glyph>
<glyph name="quotesingle" format="2">
  <advance width="550"/>
  <unicode hex="0027"/>
  <note>
quotesingle
</note>
  <outline>
    <contour>
      <point x="210" y="944" type="line"/>
      <point x="434" y="944" type="line"/>
      <point x="614" y="1648" type="line"/>
      <point x="294" y="1648" type="line"/>
    </contour>
  </outline>
</glyph>
<glyph name="parenright" format="2">
  <advance width="830"/>
  <unicode hex="0029"/>
  <note>
parenright
</note>
  <outline>
    <contour>
      <point x="144" y="-354" type="line"/>
      <point x="476" y="-144"/>
      <point x="744" y="388"/>
      <point x="744" y="868" type="curve" smooth="yes"/>
      <point x="744" y="1206"/>
      <point x="628" y="1544"/>
      <point x="396" y="1738" type="curve"/>
      <point x="208" y="1634" type="line"/>
      <point x="334" y="1456"/>
      <point x="442" y="1214"/>
      <point x="442" y="878" type="curve" smooth="yes"/>
      <point x="442" y="410"/>
      <point x="292" y="92"/>
      <point x="-30" y="-238" type="curve"/>
    </contour>
  </outline>
</glyph>
<glyph name="asterisk" format="2">
  <advance width="1278"/>
  <unicode hex="002A"/>
  <note>
asterisk
</note>
  <outline>
    <contour>
      <point x="540" y="566" type="line"/>
      <point x="778" y="566" type="line"/>
      <point x="766" y="888" type="line"/>
      <point x="760" y="1024" type="line"/>
      <point x="860" y="942" type="line"/>
      <point x="1094" y="744" type="line"/>
      <point x="1240" y="946" type="line"/>
      <point x="948" y="1070" type="line"/>
      <point x="834" y="1122" type="line"/>
      <point x="958" y="1174" type="line"/>
      <point x="1278" y="1300" type="line"/>
      <point x="1184" y="1504" type="line"/>
      <point x="898" y="1304" type="line"/>
      <point x="780" y="1226" type="line"/>
      <point x="812" y="1358" type="line"/>
      <point x="888" y="1680" type="line"/>
      <point x="656" y="1680" type="line"/>
      <point x="664" y="1358" type="line"/>
      <point x="662" y="1226" type="line"/>
      <point x="566" y="1304" type="line"/>
      <point x="314" y="1502" type="line"/>
      <point x="188" y="1300" type="line"/>
      <point x="480" y="1174" type="line"/>
      <point x="594" y="1124" type="line"/>
      <point x="468" y="1070" type="line"/>
      <point x="150" y="946" type="line"/>
      <point x="254" y="742" type="line"/>
      <point x="524" y="938" type="line"/>
      <point x="642" y="1024" type="line"/>
      <point x="614" y="888" type="line"/>
    </contour>
  </outline>
</glyph>
<glyph name="plus" format="2">
  <advance width="1320"/>
  <unicode hex="002B"/>
  <note>
plus
</note>
  <outline>
    <contour>
      <point x="486" y="244" type="line"/>
      <point x="752" y="244" type="line"/>
      <point x="786" y="514" type="line"/>
      <point x="792" y="646" type="line"/>
      <point x="886" y="638" type="line"/>
      <point x="1154" y="638" type="line"/>
      <point x="1188" y="896" type="line"/>
      <point x="918" y="896" type="line"/>
      <point x="824" y="886" type="line"/>
      <point x="848" y="1020" type="line"/>
      <point x="874" y="1292" type="line"/>
      <point x="608" y="1292" type="line"/>
      <point x="578" y="1020" type="line"/>
      <point x="570" y="884" type="line"/>
      <point x="456" y="896" type="line"/>
      <point x="212" y="896" type="line"/>
      <point x="178" y="638" type="line"/>
      <point x="420" y="638" type="line"/>
      <point x="542" y="646" type="line"/>
      <point x="518" y="514" type="line"/>
    </contour>
  </outline>
</glyph>
<glyph name="comma" format="2">
  <advance width="514"/>
  <unicode hex="002C"/>
  <note>
comma
</note>
  <outline>
    <contour>
      <point x="60" y="-506" type="line"/>
      <point x="196" y="-466"/>
      <point x="298" y="-366"/>
      <point x="354" y="-236" type="curve" smooth="yes"/>
      <point x="380" y="-170"/>
      <point x="394" y="-102"/>
      <point x="394" y="-30" type="curve" smooth="yes"/>
      <point x="394" y="90"/>
      <point x="332" y="236"/>
      <point x="198" y="288" type="curve"/>
      <point x="44" y="104" type="line"/>
      <point x="38" y="52" type="line"/>
      <point x="84" y="34"/>
      <point x="122" y="-34"/>
      <point x="122" y="-116" type="curve" smooth="yes"/>
      <point x="122" y="-210"/>
      <point x="62" y="-316"/>
      <point x="-28" y="-362" type="curve"/>
      <point x="-32" y="-382" type="line"/>
    </contour>
  </outline>
</glyph>
<glyph name="hyphen" format="2">
  <advance width="1224"/>
  <unicode hex="002D"/>
  <note>
hyphen
</note>
  <outline>
    <contour>
      <point x="204" y="592" type="line"/>
      <point x="1024" y="592" type="line"/>
      <point x="1060" y="836" type="line"/>
      <point x="240" y="836" type="line"/>
    </contour>
  </outline>
</glyph>
<glyph name="period" format="2">
  <advance width="514"/>
  <unicode hex="002E"/>
  <note>
period
</note>
  <outline>
    <contour>
      <point x="182" y="-28" type="curve" smooth="yes"/>
      <point x="308" y="-28"/>
      <point x="390" y="58"/>
      <point x="390" y="184" type="curve" smooth="yes"/>
      <point x="390" y="272"/>
      <point x="342" y="330"/>
      <point x="232" y="330" type="curve" smooth="yes"/>
      <point x="112" y="330"/>
      <point x="30" y="234"/>
      <point x="30" y="120" type="curve" smooth="yes"/>
      <point x="30" y="32"/>
      <point x="88" y="-28"/>
    </contour>
  </outline>
</glyph>
<glyph name="zero" format="2">
  <advance width="1358"/>
  <unicode hex="0030"/>
  <outline>
    <contour>
      <point x="608" y="-16" type="curve" smooth="yes"/>
      <point x="1034" y="-16"/>
      <point x="1306" y="416"/>
      <point x="1306" y="924" type="curve" smooth="yes"/>
      <point x="1306" y="1258"/>
      <point x="1118" y="1510"/>
      <point x="806" y="1510" type="curve" smooth="yes"/>
      <point x="378" y="1510"/>
      <point x="100" y="1074"/>
      <point x="100" y="564" type="curve" smooth="yes"/>
      <point x="100" y="228"/>
      <point x="296" y="-16"/>
    </contour>
    <contour>
      <point x="634" y="244" type="curve" smooth="yes"/>
      <point x="524" y="244"/>
      <point x="456" y="348"/>
      <point x="456" y="582" type="curve" smooth="yes"/>
      <point x="456" y="858"/>
      <point x="544" y="1250"/>
      <point x="768" y="1250" type="curve" smooth="yes"/>
      <point x="880" y="1250"/>
      <point x="950" y="1174"/>
      <point x="950" y="914" type="curve" smooth="yes"/>
      <point x="950" y="628"/>
      <point x="864" y="244"/>
    </contour>
  </outline>
</glyph>
<glyph name="one" format="2">
  <advance width="890"/>
  <unicode hex="0031"/>
  <outline>
    <contour>
      <point x="254" y="0" type="line"/>
      <point x="602" y="0" type="line"/>
      <point x="812" y="1484" type="line"/>
      <point x="602" y="1508" type="line"/>
      <point x="590" y="1508" type="line"/>
      <point x="462" y="1396"/>
      <point x="252" y="1296"/>
      <point x="116" y="1264" type="curve"/>
      <point x="150" y="1044" type="line"/>
      <point x="236" y="1050"/>
      <point x="336" y="1068"/>
      <point x="412" y="1100" type="curve"/>
    </contour>
  </outline>
</glyph>
<glyph name="two" format="2">
  <advance width="1232"/>
  <unicode hex="0032"/>
  <outline>
    <contour>
      <point x="66" y="0" type="line"/>
      <point x="1076" y="0" type="line"/>
      <point x="1078" y="248" type="line"/>
      <point x="452" y="226" type="line"/>
      <point x="706" y="414"/>
      <point x="1132" y="666"/>
      <point x="1132" y="1066" type="curve" smooth="yes"/>
      <point x="1132" y="1296"/>
      <point x="974" y="1506"/>
      <point x="652" y="1506" type="curve" smooth="yes"/>
      <point x="442" y="1506"/>
      <point x="242" y="1414"/>
      <point x="146" y="1284" type="curve"/>
      <point x="302" y="1120" type="line"/>
      <point x="380" y="1180"/>
      <point x="468" y="1236"/>
      <point x="580" y="1236" type="curve" smooth="yes"/>
      <point x="710" y="1236"/>
      <point x="772" y="1162"/>
      <point x="772" y="1030" type="curve" smooth="yes"/>
      <point x="772" y="756"/>
      <point x="358" y="410"/>
      <point x="14" y="162" type="curve"/>
    </contour>
  </outline>
</glyph>
<glyph name="three" format="2">
  <advance width="1172"/>
  <unicode hex="0033"/>
  <outline>
    <contour>
      <point x="324" y="-14" type="curve" smooth="yes"/>
      <point x="748" y="-14"/>
      <point x="1070" y="176"/>
      <point x="1070" y="476" type="curve" smooth="yes"/>
      <point x="1070" y="618"/>
      <point x="952" y="756"/>
      <point x="732" y="778" type="curve"/>
      <point x="952" y="856"/>
      <point x="1074" y="992"/>
      <point x="1074" y="1192" type="curve" smooth="yes"/>
      <point x="1074" y="1384"/>
      <point x="886" y="1506"/>
      <point x="660" y="1506" type="curve" smooth="yes"/>
      <point x="450" y="1506"/>
      <point x="254" y="1448"/>
      <point x="120" y="1314" type="curve"/>
      <point x="260" y="1144" type="line"/>
      <point x="296" y="1184"/>
      <point x="394" y="1260"/>
      <point x="548" y="1260" type="curve" smooth="yes"/>
      <point x="652" y="1260"/>
      <point x="722" y="1208"/>
      <point x="722" y="1106" type="curve" smooth="yes"/>
      <point x="722" y="956"/>
      <point x="504" y="856"/>
      <point x="326" y="830" type="curve"/>
      <point x="310" y="598" type="line"/>
      <point x="504" y="658" type="line"/>
      <point x="638" y="654"/>
      <point x="700" y="540"/>
      <point x="700" y="470" type="curve" smooth="yes"/>
      <point x="700" y="318"/>
      <point x="582" y="230"/>
      <point x="256" y="230" type="curve" smooth="yes"/>
      <point x="214" y="230"/>
      <point x="142" y="234"/>
      <point x="86" y="240" type="curve"/>
      <point x="54" y="-2" type="line"/>
      <point x="124" y="-8"/>
      <point x="204" y="-14"/>
    </contour>
  </outline>
</glyph>
<glyph name="four" format="2">
  <advance width="1264"/>
  <unicode hex="0034"/>
  <outline>
    <contour>
      <point x="622" y="0" type="line"/>
      <point x="928" y="0" type="line"/>
      <point x="966" y="300" type="line"/>
      <point x="1182" y="300" type="line"/>
      <point x="1220" y="574" type="line"/>
      <point x="1004" y="562" type="line"/>
      <point x="1068" y="1000" type="line"/>
      <point x="770" y="966" type="line"/>
      <point x="700" y="554" type="line"/>
      <point x="366" y="536" type="line"/>
      <point x="442" y="626" type="line"/>
      <point x="932" y="1436" type="line"/>
      <point x="876" y="1494" type="line"/>
      <point x="538" y="1494" type="line"/>
      <point x="382" y="1142"/>
      <point x="174" y="730"/>
      <point x="8" y="460" type="curve"/>
      <point x="86" y="300" type="line"/>
      <point x="664" y="300" type="line"/>
    </contour>
  </outline>
</glyph>
<glyph name="five" format="2">
  <advance width="1180"/>
  <unicode hex="0035"/>
  <outline>
    <contour>
      <point x="198" y="-16" type="curve" smooth="yes"/>
      <point x="698" y="-16"/>
      <point x="1066" y="198"/>
      <point x="1066" y="578" type="curve" smooth="yes"/>
      <point x="1066" y="866"/>
      <point x="878" y="972"/>
      <point x="692" y="972" type="curve" smooth="yes"/>
      <point x="602" y="972"/>
      <point x="516" y="954"/>
      <point x="480" y="938" type="curve"/>
      <point x="556" y="1226" type="line"/>
      <point x="1012" y="1226" type="line"/>
      <point x="1092" y="1510" type="line"/>
      <point x="918" y="1510" type="line"/>
      <point x="898" y="1494" type="line"/>
      <point x="294" y="1494" type="line"/>
      <point x="144" y="830" type="line"/>
      <point x="268" y="698" type="line"/>
      <point x="316" y="724"/>
      <point x="418" y="750"/>
      <point x="488" y="750" type="curve" smooth="yes"/>
      <point x="646" y="750"/>
      <point x="700" y="660"/>
      <point x="700" y="540" type="curve" smooth="yes"/>
      <point x="700" y="296"/>
      <point x="374" y="222"/>
      <point x="184" y="222" type="curve" smooth="yes"/>
      <point x="162" y="222"/>
      <point x="138" y="222"/>
      <point x="108" y="228" type="curve"/>
      <point x="72" y="0" type="line"/>
      <point x="110" y="-14"/>
      <point x="166" y="-16"/>
    </contour>
  </outline>
</glyph>
<glyph name="six" format="2">
  <advance width="1276"/>
  <unicode hex="0036"/>
  <outline>
    <contour>
      <point x="582" y="-16" type="curve" smooth="yes"/>
      <point x="986" y="-16"/>
      <point x="1170" y="278"/>
      <point x="1170" y="562" type="curve" smooth="yes"/>
      <point x="1170" y="782"/>
      <point x="1030" y="982"/>
      <point x="788" y="982" type="curve" smooth="yes"/>
      <point x="712" y="982"/>
      <point x="602" y="962"/>
      <point x="534" y="918" type="curve"/>
      <point x="558" y="992"/>
      <point x="708" y="1206"/>
      <point x="1008" y="1306" type="curve"/>
      <point x="932" y="1512" type="line"/>
      <point x="412" y="1386"/>
      <point x="102" y="984"/>
      <point x="102" y="500" type="curve" smooth="yes"/>
      <point x="102" y="210"/>
      <point x="262" y="-16"/>
    </contour>
    <contour>
      <point x="608" y="216" type="curve" smooth="yes"/>
      <point x="510" y="216"/>
      <point x="422" y="320"/>
      <point x="422" y="514" type="curve" smooth="yes"/>
      <point x="422" y="556"/>
      <point x="436" y="610"/>
      <point x="456" y="664" type="curve"/>
      <point x="482" y="698"/>
      <point x="548" y="742"/>
      <point x="642" y="742" type="curve" smooth="yes"/>
      <point x="764" y="742"/>
      <point x="842" y="680"/>
      <point x="842" y="530" type="curve" smooth="yes"/>
      <point x="842" y="398"/>
      <point x="780" y="216"/>
    </contour>
  </outline>
</glyph>
<glyph name="seven" format="2">
  <advance width="1122"/>
  <unicode hex="0037"/>
  <outline>
    <contour>
      <point x="154" y="0" type="line"/>
      <point x="548" y="0" type="line"/>
      <point x="1182" y="1430" type="line"/>
      <point x="1134" y="1494" type="line"/>
      <point x="168" y="1494" type="line"/>
      <point x="128" y="1228" type="line"/>
      <point x="798" y="1228" type="line"/>
    </contour>
  </outline>
</glyph>
<glyph name="eight" format="2">
  <advance width="1264"/>
  <unicode hex="0038"/>
  <outline>
    <contour>
      <point x="578" y="-20" type="curve" smooth="yes"/>
      <point x="878" y="-20"/>
      <point x="1140" y="134"/>
      <point x="1140" y="394" type="curve" smooth="yes"/>
      <point x="1140" y="568"/>
      <point x="982" y="692"/>
      <point x="852" y="794" type="curve"/>
      <point x="1020" y="854"/>
      <point x="1178" y="958"/>
      <point x="1178" y="1182" type="curve" smooth="yes"/>
      <point x="1178" y="1378"/>
      <point x="988" y="1512"/>
      <point x="728" y="1512" type="curve" smooth="yes"/>
      <point x="460" y="1512"/>
      <point x="234" y="1372"/>
      <point x="234" y="1104" type="curve" smooth="yes"/>
      <point x="234" y="964"/>
      <point x="320" y="840"/>
      <point x="414" y="752" type="curve"/>
      <point x="230" y="694"/>
      <point x="76" y="582"/>
      <point x="78" y="352" type="curve" smooth="yes"/>
      <point x="78" y="122"/>
      <point x="288" y="-20"/>
    </contour>
    <contour>
      <point x="606" y="192" type="curve" smooth="yes"/>
      <point x="502" y="192"/>
      <point x="404" y="274"/>
      <point x="404" y="388" type="curve" smooth="yes"/>
      <point x="404" y="522"/>
      <point x="478" y="594"/>
      <point x="562" y="650" type="curve"/>
      <point x="682" y="556"/>
      <point x="794" y="472"/>
      <point x="794" y="366" type="curve" smooth="yes"/>
      <point x="794" y="260"/>
      <point x="718" y="192"/>
    </contour>
    <contour>
      <point x="722" y="892" type="curve"/>
      <point x="628" y="966"/>
      <point x="554" y="1034"/>
      <point x="554" y="1114" type="curve" smooth="yes"/>
      <point x="554" y="1228"/>
      <point x="618" y="1308"/>
      <point x="722" y="1308" type="curve" smooth="yes"/>
      <point x="804" y="1308"/>
      <point x="876" y="1254"/>
      <point x="876" y="1152" type="curve" smooth="yes"/>
      <point x="876" y="1028"/>
      <point x="806" y="948"/>
    </contour>
  </outline>
</glyph>
<glyph name="nine" format="2">
  <advance width="1268"/>
  <unicode hex="0039"/>
  <outline>
    <contour>
      <point x="380" y="-16" type="line"/>
      <point x="900" y="110"/>
      <point x="1214" y="496"/>
      <point x="1214" y="978" type="curve" smooth="yes"/>
      <point x="1214" y="1268"/>
      <point x="1054" y="1494"/>
      <point x="734" y="1494" type="curve" smooth="yes"/>
      <point x="330" y="1494"/>
      <point x="156" y="1222"/>
      <point x="156" y="938" type="curve" smooth="yes"/>
      <point x="156" y="718"/>
      <point x="296" y="500"/>
      <point x="538" y="500" type="curve" smooth="yes"/>
      <point x="614" y="500"/>
      <point x="716" y="518"/>
      <point x="784" y="556" type="curve"/>
      <point x="760" y="484"/>
      <point x="604" y="290"/>
      <point x="302" y="190" type="curve"/>
    </contour>
    <contour>
      <point x="656" y="740" type="curve" smooth="yes"/>
      <point x="564" y="740"/>
      <point x="482" y="820"/>
      <point x="482" y="970" type="curve" smooth="yes"/>
      <point x="482" y="1102"/>
      <point x="536" y="1270"/>
      <point x="706" y="1270" type="curve" smooth="yes"/>
      <point x="806" y="1270"/>
      <point x="892" y="1166"/>
      <point x="892" y="972" type="curve" smooth="yes"/>
      <point x="892" y="916"/>
      <point x="880" y="870"/>
      <point x="860" y="810" type="curve"/>
      <point x="834" y="780"/>
      <point x="750" y="740"/>
    </contour>
  </outline>
</glyph>
<glyph name="less" format="2">
  <advance width="1362"/>
  <unicode hex="003C"/>
  <note>
less
</note>
  <outline>
    <contour>
      <point x="1082" y="176" type="line"/>
      <point x="1106" y="452" type="line"/>
      <point x="572" y="736" type="line"/>
      <point x="1178" y="1014" type="line"/>
      <point x="1214" y="1318" type="line"/>
      <point x="210" y="810" type="line"/>
      <point x="194" y="684" type="line"/>
    </contour>
  </outline>
</glyph>
<glyph name="equal" format="2">
  <advance width="1060"/>
  <unicode hex="003D"/>
  <note>
equal
</note>
  <outline>
    <contour>
      <point x="158" y="790" type="line"/>
      <point x="978" y="790" type="line"/>
      <point x="1014" y="1032" type="line"/>
      <point x="194" y="1032" type="line"/>
    </contour>
    <contour>
      <point x="104" y="308" type="line"/>
      <point x="924" y="308" type="line"/>
      <point x="960" y="550" type="line"/>
      <point x="140" y="550" type="line"/>
    </contour>
  </outline>
</glyph>
<glyph name="greater" format="2">
  <advance width="1362"/>
  <unicode hex="003E"/>
  <note>
greater
</note>
  <outline>
    <contour>
      <point x="250" y="178" type="line"/>
      <point x="1254" y="686" type="line"/>
      <point x="1270" y="814" type="line"/>
      <point x="382" y="1322" type="line"/>
      <point x="358" y="1044" type="line"/>
      <point x="892" y="762" type="line"/>
      <point x="286" y="482" type="line"/>
    </contour>
  </outline>
</glyph>
<glyph name="question" format="2">
  <advance width="930"/>
  <unicode hex="003F"/>
  <note>
question
</note>
  <outline>
    <contour>
      <point x="214" y="510" type="curve"/>
      <point x="414" y="514" type="line"/>
      <point x="408" y="530"/>
      <point x="398" y="580"/>
      <point x="398" y="622" type="curve" smooth="yes"/>
      <point x="398" y="744"/>
      <point x="578" y="878"/>
      <point x="692" y="938" type="curve" smooth="yes"/>
      <point x="918" y="1058"/>
      <point x="1004" y="1184"/>
      <point x="1004" y="1340" type="curve" smooth="yes"/>
      <point x="1004" y="1626"/>
      <point x="778" y="1736"/>
      <point x="456" y="1736" type="curve" smooth="yes"/>
      <point x="378" y="1736"/>
      <point x="280" y="1714"/>
      <point x="246" y="1684" type="curve"/>
      <point x="192" y="1460" type="line"/>
      <point x="252" y="1474"/>
      <point x="320" y="1482"/>
      <point x="394" y="1482" type="curve" smooth="yes"/>
      <point x="588" y="1482"/>
      <point x="692" y="1410"/>
      <point x="692" y="1316" type="curve" smooth="yes"/>
      <point x="692" y="1160"/>
      <point x="502" y="1092"/>
      <point x="314" y="928" type="curve" smooth="yes"/>
      <point x="244" y="866"/>
      <point x="168" y="786"/>
      <point x="168" y="690" type="curve" smooth="yes"/>
      <point x="168" y="604"/>
      <point x="184" y="560"/>
    </contour>
    <contour>
      <point x="294" y="-18" type="curve" smooth="yes"/>
      <point x="420" y="-18"/>
      <point x="502" y="68"/>
      <point x="502" y="194" type="curve" smooth="yes"/>
      <point x="502" y="282"/>
      <point x="454" y="340"/>
      <point x="344" y="340" type="curve" smooth="yes"/>
      <point x="224" y="340"/>
      <point x="142" y="244"/>
      <point x="142" y="130" type="curve" smooth="yes"/>
      <point x="142" y="42"/>
      <point x="200" y="-18"/>
    </contour>
  </outline>
</glyph>
<glyph name="at" format="2">
  <advance width="1980"/>
  <unicode hex="0040"/>
  <note>
at
</note>
  <outline>
    <contour>
      <point x="916" y="-430" type="curve" smooth="yes"/>
      <point x="1084" y="-430"/>
      <point x="1240" y="-386"/>
      <point x="1334" y="-316" type="curve"/>
      <point x="1276" y="-150" type="line"/>
      <point x="1194" y="-188"/>
      <point x="1100" y="-216"/>
      <point x="938" y="-216" type="curve" smooth="yes"/>
      <point x="558" y="-216"/>
      <point x="338" y="10"/>
      <point x="338" y="408" type="curve" smooth="yes"/>
      <point x="338" y="884"/>
      <point x="668" y="1316"/>
      <point x="1148" y="1316" type="curve" smooth="yes"/>
      <point x="1466" y="1316"/>
      <point x="1672" y="1190"/>
      <point x="1672" y="840" type="curve" smooth="yes"/>
      <point x="1672" y="608"/>
      <point x="1570" y="218"/>
      <point x="1402" y="218" type="curve" smooth="yes"/>
      <point x="1396" y="218"/>
      <point x="1392" y="236"/>
      <point x="1392" y="268" type="curve" smooth="yes"/>
      <point x="1392" y="438"/>
      <point x="1476" y="992"/>
      <point x="1494" y="1062" type="curve"/>
      <point x="1302" y="1034" type="line"/>
      <point x="1254" y="1066"/>
      <point x="1154" y="1086"/>
      <point x="1088" y="1086" type="curve" smooth="yes"/>
      <point x="750" y="1086"/>
      <point x="532" y="772"/>
      <point x="532" y="420" type="curve" smooth="yes"/>
      <point x="532" y="210"/>
      <point x="654" y="6"/>
      <point x="832" y="6" type="curve" smooth="yes"/>
      <point x="970" y="6"/>
      <point x="1098" y="146"/>
      <point x="1192" y="362" type="curve"/>
      <point x="1184" y="304"/>
      <point x="1180" y="208"/>
      <point x="1180" y="162" type="curve" smooth="yes"/>
      <point x="1180" y="72"/>
      <point x="1222" y="10"/>
      <point x="1296" y="10" type="curve" smooth="yes"/>
      <point x="1676" y="10"/>
      <point x="1920" y="456"/>
      <point x="1920" y="888" type="curve" smooth="yes"/>
      <point x="1920" y="1280"/>
      <point x="1622" y="1508"/>
      <point x="1198" y="1508" type="curve" smooth="yes"/>
      <point x="550" y="1508"/>
      <point x="100" y="1036"/>
      <point x="100" y="366" type="curve" smooth="yes"/>
      <point x="100" y="-122"/>
      <point x="424" y="-430"/>
    </contour>
    <contour>
      <point x="904" y="290" type="curve" smooth="yes"/>
      <point x="840" y="290"/>
      <point x="820" y="354"/>
      <point x="820" y="472" type="curve" smooth="yes"/>
      <point x="820" y="602"/>
      <point x="920" y="862"/>
      <point x="1048" y="862" type="curve" smooth="yes"/>
      <point x="1094" y="862"/>
      <point x="1144" y="850"/>
      <point x="1170" y="820" type="curve"/>
      <point x="1152" y="676"/>
      <point x="1002" y="290"/>
    </contour>
  </outline>
</glyph>
<glyph name="A" format="2">
  <advance width="1314"/>
  <unicode hex="0041"/>
  <note>
A
</note>
  <anchor x="584" y="0" name="bottom"/>
  <anchor x="1216" y="0" name="ogonek"/>
  <anchor x="826" y="1494" name="top"/>
  <outline>
    <contour>
      <point x="-120" y="0" type="line"/>
      <point x="260" y="0" type="line"/>
      <point x="376" y="280" type="line"/>
      <point x="886" y="280" type="line"/>
      <point x="916" y="0" type="line"/>
      <point x="1264" y="0" type="line"/>
      <point x="1042" y="1494" type="line"/>
      <point x="602" y="1494" type="line"/>
    </contour>
    <contour>
      <point x="470" y="514" type="line"/>
      <point x="740" y="1174" type="line"/>
      <point x="778" y="1290" type="line"/>
      <point x="784" y="1174" type="line"/>
      <point x="858" y="514" type="line"/>
    </contour>
  </outline>
</glyph>
<glyph name="B" format="2">
  <advance width="1320"/>
  <unicode hex="0042"/>
  <note>
B
</note>
  <anchor x="586" y="0" name="bottom"/>
  <anchor x="784" y="1494" name="top"/>
  <outline>
    <contour>
      <point x="520" y="-16" type="curve" smooth="yes"/>
      <point x="982" y="-16"/>
      <point x="1242" y="136"/>
      <point x="1242" y="478" type="curve" smooth="yes"/>
      <point x="1242" y="636"/>
      <point x="1144" y="748"/>
      <point x="968" y="786" type="curve"/>
      <point x="1162" y="826"/>
      <point x="1264" y="970"/>
      <point x="1264" y="1170" type="curve" smooth="yes"/>
      <point x="1264" y="1396"/>
      <point x="1098" y="1508"/>
      <point x="768" y="1508" type="curve" smooth="yes"/>
      <point x="752" y="1508"/>
      <point x="476" y="1494"/>
      <point x="444" y="1494" type="curve" smooth="yes"/>
      <point x="284" y="1494" type="line"/>
      <point x="70" y="0" type="line"/>
      <point x="222" y="0" type="line" smooth="yes"/>
      <point x="246" y="0"/>
      <point x="490" y="-16"/>
    </contour>
    <contour>
      <point x="568" y="228" type="curve" smooth="yes"/>
      <point x="520" y="228"/>
      <point x="480" y="230"/>
      <point x="450" y="234" type="curve"/>
      <point x="508" y="650" type="line"/>
      <point x="538" y="652"/>
      <point x="574" y="654"/>
      <point x="614" y="654" type="curve" smooth="yes"/>
      <point x="792" y="654"/>
      <point x="876" y="614"/>
      <point x="876" y="462" type="curve" smooth="yes"/>
      <point x="876" y="326"/>
      <point x="704" y="228"/>
    </contour>
    <contour>
      <point x="542" y="886" type="curve"/>
      <point x="598" y="1266" type="line"/>
      <point x="626" y="1268"/>
      <point x="662" y="1270"/>
      <point x="706" y="1270" type="curve" smooth="yes"/>
      <point x="840" y="1270"/>
      <point x="908" y="1236"/>
      <point x="908" y="1130" type="curve" smooth="yes"/>
      <point x="908" y="960"/>
      <point x="814" y="882"/>
      <point x="630" y="882" type="curve" smooth="yes"/>
      <point x="600" y="882"/>
      <point x="572" y="884"/>
    </contour>
  </outline>
</glyph>
<glyph name="C" format="2">
  <advance width="1164"/>
  <unicode hex="0043"/>
  <note>
C
</note>
  <anchor x="604" y="0" name="bottom"/>
  <anchor x="870" y="1494" name="top"/>
  <outline>
    <contour>
      <point x="610" y="-16" type="curve" smooth="yes"/>
      <point x="756" y="-16"/>
      <point x="986" y="58"/>
      <point x="1048" y="110" type="curve"/>
      <point x="1002" y="352" type="line"/>
      <point x="944" y="310"/>
      <point x="820" y="264"/>
      <point x="702" y="264" type="curve" smooth="yes"/>
      <point x="512" y="264"/>
      <point x="434" y="372"/>
      <point x="434" y="610" type="curve" smooth="yes"/>
      <point x="434" y="824"/>
      <point x="488" y="1016"/>
      <point x="610" y="1132" type="curve" smooth="yes"/>
      <point x="670" y="1190"/>
      <point x="746" y="1218"/>
      <point x="838" y="1218" type="curve" smooth="yes"/>
      <point x="966" y="1218"/>
      <point x="1060" y="1168"/>
      <point x="1118" y="1114" type="curve"/>
      <point x="1218" y="1442" type="line"/>
      <point x="1062" y="1496"/>
      <point x="980" y="1510"/>
      <point x="874" y="1510" type="curve" smooth="yes"/>
      <point x="570" y="1510"/>
      <point x="318" y="1336"/>
      <point x="184" y="1060" type="curve" smooth="yes"/>
      <point x="116" y="922"/>
      <point x="82" y="772"/>
      <point x="82" y="610" type="curve" smooth="yes"/>
      <point x="82" y="384"/>
      <point x="142" y="190"/>
      <point x="300" y="72" type="curve" smooth="yes"/>
      <point x="378" y="14"/>
      <point x="482" y="-16"/>
    </contour>
  </outline>
</glyph>
<glyph name="D" format="2">
  <advance width="1390"/>
  <unicode hex="0044"/>
  <note>
D
</note>
  <anchor x="622" y="0" name="bottom"/>
  <anchor x="722" y="748" name="center"/>
  <anchor x="820" y="1494" name="top"/>
  <outline>
    <contour>
      <point x="556" y="-16" type="curve" smooth="yes"/>
      <point x="1076" y="-16"/>
      <point x="1382" y="376"/>
      <point x="1382" y="910" type="curve" smooth="yes"/>
      <point x="1382" y="1288"/>
      <point x="1208" y="1510"/>
      <point x="814" y="1510" type="curve" smooth="yes"/>
      <point x="784" y="1510"/>
      <point x="460" y="1494"/>
      <point x="436" y="1494" type="curve" smooth="yes"/>
      <point x="284" y="1494" type="line"/>
      <point x="70" y="0" type="line"/>
      <point x="210" y="0" type="line" smooth="yes"/>
      <point x="250" y="0"/>
      <point x="442" y="-16"/>
    </contour>
    <contour>
      <point x="604" y="238" type="curve" smooth="yes"/>
      <point x="544" y="238"/>
      <point x="494" y="244"/>
      <point x="454" y="258" type="curve"/>
      <point x="594" y="1242" type="line"/>
      <point x="632" y="1250"/>
      <point x="698" y="1254"/>
      <point x="744" y="1254" type="curve" smooth="yes"/>
      <point x="878" y="1254"/>
      <point x="956" y="1220"/>
      <point x="996" y="1122" type="curve" smooth="yes"/>
      <point x="1016" y="1072"/>
      <point x="1026" y="1004"/>
      <point x="1026" y="916" type="curve" smooth="yes"/>
      <point x="1026" y="660"/>
      <point x="966" y="448"/>
      <point x="840" y="328" type="curve" smooth="yes"/>
      <point x="776" y="268"/>
      <point x="698" y="238"/>
    </contour>
  </outline>
</glyph>
<glyph name="E" format="2">
  <advance width="1176"/>
  <unicode hex="0045"/>
  <note>
E
</note>
  <anchor x="576" y="0" name="bottom"/>
  <anchor x="962" y="0" name="ogonek"/>
  <anchor x="748" y="1494" name="top"/>
  <anchor x="164" y="1494" name="topleft"/>
  <outline>
    <contour>
      <point x="70" y="0" type="line"/>
      <point x="1036" y="0" type="line"/>
      <point x="1072" y="274" type="line"/>
      <point x="454" y="264" type="line"/>
      <point x="508" y="642" type="line"/>
      <point x="918" y="634" type="line"/>
      <point x="954" y="904" type="line"/>
      <point x="544" y="898" type="line"/>
      <point x="592" y="1228" type="line"/>
      <point x="1140" y="1226" type="line"/>
      <point x="1176" y="1494" type="line"/>
      <point x="284" y="1494" type="line"/>
    </contour>
  </outline>
</glyph>
<glyph name="F" format="2">
  <advance width="1054"/>
  <unicode hex="0046"/>
  <note>
F
</note>
  <anchor x="454" y="0" name="bottom"/>
  <anchor x="694" y="1494" name="top"/>
  <outline>
    <contour>
      <point x="70" y="0" type="line"/>
      <point x="416" y="0" type="line"/>
      <point x="500" y="594" type="line"/>
      <point x="922" y="588" type="line"/>
      <point x="958" y="872" type="line"/>
      <point x="540" y="866" type="line"/>
      <point x="592" y="1230" type="line"/>
      <point x="1080" y="1226" type="line"/>
      <point x="1122" y="1494" type="line"/>
      <point x="284" y="1494" type="line"/>
    </contour>
  </outline>
</glyph>
<glyph name="G" format="2">
  <advance width="1394"/>
  <unicode hex="0047"/>
  <note>
G
</note>
  <anchor x="624" y="0" name="bottom"/>
  <anchor x="822" y="1494" name="top"/>
  <outline>
    <contour>
      <point x="662" y="-16" type="curve" smooth="yes"/>
      <point x="820" y="-16"/>
      <point x="942" y="14"/>
      <point x="1092" y="54" type="curve" smooth="yes"/>
      <point x="1134" y="66"/>
      <point x="1170" y="74"/>
      <point x="1200" y="78" type="curve"/>
      <point x="1304" y="830" type="line"/>
      <point x="742" y="830" type="line"/>
      <point x="708" y="556" type="line"/>
      <point x="952" y="556" type="line"/>
      <point x="908" y="276" type="line"/>
      <point x="862" y="252"/>
      <point x="774" y="244"/>
      <point x="712" y="244" type="curve" smooth="yes"/>
      <point x="520" y="244"/>
      <point x="422" y="370"/>
      <point x="422" y="610" type="curve" smooth="yes"/>
      <point x="422" y="812"/>
      <point x="474" y="1012"/>
      <point x="604" y="1136" type="curve" smooth="yes"/>
      <point x="670" y="1198"/>
      <point x="754" y="1228"/>
      <point x="856" y="1228" type="curve" smooth="yes"/>
      <point x="982" y="1228"/>
      <point x="1182" y="1156"/>
      <point x="1244" y="1108" type="curve"/>
      <point x="1316" y="1422" type="line"/>
      <point x="1102" y="1496"/>
      <point x="1048" y="1510"/>
      <point x="864" y="1510" type="curve" smooth="yes"/>
      <point x="570" y="1510"/>
      <point x="318" y="1348"/>
      <point x="178" y="1070" type="curve" smooth="yes"/>
      <point x="108" y="930"/>
      <point x="72" y="770"/>
      <point x="72" y="592" type="curve" smooth="yes"/>
      <point x="72" y="382"/>
      <point x="144" y="188"/>
      <point x="320" y="72" type="curve" smooth="yes"/>
      <point x="408" y="14"/>
      <point x="522" y="-16"/>
    </contour>
  </outline>
</glyph>
<glyph name="H" format="2">
  <advance width="1464"/>
  <unicode hex="0048"/>
  <note>
H
</note>
  <anchor x="648" y="0" name="bottom"/>
  <anchor x="842" y="1494" name="top"/>
  <outline>
    <contour>
      <point x="58" y="0" type="line"/>
      <point x="404" y="0" type="line"/>
      <point x="492" y="608" type="line"/>
      <point x="962" y="608" type="line"/>
      <point x="876" y="0" type="line"/>
      <point x="1224" y="0" type="line"/>
      <point x="1438" y="1494" type="line"/>
      <point x="1088" y="1494" type="line"/>
      <point x="996" y="846" type="line"/>
      <point x="526" y="846" type="line"/>
      <point x="618" y="1494" type="line"/>
      <point x="272" y="1494" type="line"/>
    </contour>
  </outline>
</glyph>
<glyph name="I" format="2">
  <advance width="690"/>
  <unicode hex="0049"/>
  <note>
I
</note>
  <anchor x="272" y="0" name="bottom"/>
  <anchor x="442" y="0" name="ogonek"/>
  <anchor x="478" y="1494" name="top"/>
  <anchor x="164" y="1494" name="topleft"/>
  <outline>
    <contour>
      <point x="96" y="0" type="line"/>
      <point x="442" y="0" type="line"/>
      <point x="656" y="1494" type="line"/>
      <point x="310" y="1494" type="line"/>
    </contour>
  </outline>
</glyph>
<glyph name="J" format="2">
  <advance width="680"/>
  <unicode hex="004A"/>
  <note>
J
</note>
  <anchor x="266" y="0" name="bottom"/>
  <anchor x="504" y="1494" name="top"/>
  <outline>
    <contour>
      <point x="-132" y="-348" type="line"/>
      <point x="138" y="-348"/>
      <point x="362" y="-232"/>
      <point x="440" y="74" type="curve" smooth="yes"/>
      <point x="446" y="100"/>
      <point x="458" y="160"/>
      <point x="472" y="254" type="curve" smooth="yes"/>
      <point x="652" y="1494" type="line"/>
      <point x="304" y="1494" type="line"/>
      <point x="264" y="1222"/>
      <point x="176" y="446"/>
      <point x="100" y="84" type="curve" smooth="yes"/>
      <point x="80" y="-30"/>
      <point x="-58" y="-204"/>
      <point x="-176" y="-234" type="curve"/>
    </contour>
  </outline>
</glyph>
<glyph name="K" format="2">
  <advance width="1294"/>
  <unicode hex="004B"/>
  <anchor x="648" y="0" name="bottom"/>
  <anchor x="766" y="1494" name="top"/>
  <outline>
    <contour>
      <point x="58" y="0" type="line"/>
      <point x="394" y="0" type="line"/>
      <point x="454" y="416" type="line"/>
      <point x="614" y="584" type="line"/>
      <point x="738" y="298" type="line" smooth="yes"/>
      <point x="816" y="118"/>
      <point x="862" y="18"/>
      <point x="874" y="0" type="curve"/>
      <point x="1280" y="0" type="line"/>
      <point x="1228" y="82"/>
      <point x="1166" y="192"/>
      <point x="1096" y="334" type="curve" smooth="yes"/>
      <point x="944" y="638"/>
      <point x="880" y="766"/>
      <point x="842" y="836" type="curve"/>
      <point x="1434" y="1494" type="line"/>
      <point x="1038" y="1494" type="line"/>
      <point x="512" y="840" type="line"/>
      <point x="608" y="1494" type="line"/>
      <point x="272" y="1494" type="line"/>
    </contour>
  </outline>
</glyph>
<glyph name="L" format="2">
  <advance width="1036"/>
  <unicode hex="004C"/>
  <note>
L
</note>
  <anchor x="508" y="0" name="bottom"/>
  <anchor x="548" y="748" name="center"/>
  <anchor x="470" y="1494" name="top"/>
  <anchor x="1126" y="1494" name="topright"/>
  <outline>
    <contour>
      <point x="70" y="0" type="line"/>
      <point x="898" y="0" type="line"/>
      <point x="940" y="282" type="line"/>
      <point x="454" y="270" type="line"/>
      <point x="630" y="1494" type="line"/>
      <point x="284" y="1494" type="line"/>
    </contour>
  </outline>
</glyph>
<glyph name="M" format="2">
  <advance width="1942"/>
  <unicode hex="004D"/>
  <note>
M
</note>
  <anchor x="898" y="0" name="bottom"/>
  <anchor x="1096" y="1494" name="top"/>
  <outline>
    <contour>
      <point x="718" y="-18" type="line"/>
      <point x="1098" y="-2" type="line"/>
      <point x="1526" y="1112" type="line"/>
      <point x="1598" y="1340" type="line"/>
      <point x="1572" y="1112" type="line"/>
      <point x="1484" y="0" type="line"/>
      <point x="1830" y="0" type="line"/>
      <point x="1852" y="1494" type="line"/>
      <point x="1348" y="1494" type="line"/>
      <point x="1000" y="466" type="line"/>
      <point x="954" y="246" type="line"/>
      <point x="948" y="466" type="line"/>
      <point x="882" y="1494" type="line"/>
      <point x="378" y="1494" type="line"/>
      <point x="-30" y="0" type="line"/>
      <point x="310" y="0" type="line"/>
      <point x="552" y="1112" type="line"/>
      <point x="600" y="1340" type="line"/>
      <point x="602" y="1112" type="line"/>
    </contour>
  </outline>
</glyph>
<glyph name="N" format="2">
  <advance width="1464"/>
  <unicode hex="004E"/>
  <note>
N
</note>
  <anchor x="658" y="0" name="bottom"/>
  <anchor x="856" y="1494" name="top"/>
  <outline>
    <contour>
      <point x="70" y="0" type="line"/>
      <point x="400" y="0" type="line"/>
      <point x="512" y="814" type="line"/>
      <point x="510" y="1082" type="line"/>
      <point x="606" y="814" type="line"/>
      <point x="946" y="0" type="line"/>
      <point x="1236" y="0" type="line"/>
      <point x="1450" y="1494" type="line"/>
      <point x="1116" y="1494" type="line"/>
      <point x="1022" y="720" type="line"/>
      <point x="1008" y="466" type="line"/>
      <point x="932" y="720" type="line"/>
      <point x="584" y="1494" type="line"/>
      <point x="284" y="1494" type="line"/>
    </contour>
  </outline>
</glyph>
<glyph name="O" format="2">
  <advance width="1360"/>
  <unicode hex="004F"/>
  <note>
O
</note>
  <anchor x="596" y="0" name="bottom"/>
  <anchor x="696" y="748" name="center"/>
  <anchor x="753" y="0" name="ogonek"/>
  <anchor x="812" y="1494" name="top"/>
  <anchor x="152" y="1494" name="topleft"/>
  <anchor x="1434" y="1494" name="topright"/>
  <outline>
    <contour>
      <point x="610" y="-16" type="curve" smooth="yes"/>
      <point x="1066" y="-16"/>
      <point x="1338" y="416"/>
      <point x="1338" y="924" type="curve" smooth="yes"/>
      <point x="1338" y="1258"/>
      <point x="1150" y="1510"/>
      <point x="808" y="1510" type="curve" smooth="yes"/>
      <point x="348" y="1510"/>
      <point x="70" y="1074"/>
      <point x="70" y="564" type="curve" smooth="yes"/>
      <point x="70" y="228"/>
      <point x="266" y="-16"/>
    </contour>
    <contour>
      <point x="636" y="244" type="curve" smooth="yes"/>
      <point x="526" y="244"/>
      <point x="426" y="348"/>
      <point x="426" y="582" type="curve" smooth="yes"/>
      <point x="426" y="858"/>
      <point x="546" y="1250"/>
      <point x="770" y="1250" type="curve" smooth="yes"/>
      <point x="882" y="1250"/>
      <point x="982" y="1174"/>
      <point x="982" y="914" type="curve" smooth="yes"/>
      <point x="982" y="628"/>
      <point x="866" y="244"/>
    </contour>
  </outline>
</glyph>
<glyph name="P" format="2">
  <advance width="1268"/>
  <unicode hex="0050"/>
  <note>
P
</note>
  <anchor x="560" y="0" name="bottom"/>
  <anchor x="758" y="1494" name="top"/>
  <outline>
    <contour>
      <point x="70" y="0" type="line"/>
      <point x="416" y="0" type="line"/>
      <point x="484" y="478" type="line"/>
      <point x="520" y="478"/>
      <point x="600" y="476"/>
      <point x="642" y="476" type="curve" smooth="yes"/>
      <point x="908" y="476"/>
      <point x="1108" y="590"/>
      <point x="1208" y="774" type="curve" smooth="yes"/>
      <point x="1258" y="864"/>
      <point x="1282" y="966"/>
      <point x="1282" y="1080" type="curve" smooth="yes"/>
      <point x="1282" y="1362"/>
      <point x="1098" y="1510"/>
      <point x="756" y="1510" type="curve" smooth="yes"/>
      <point x="690" y="1510"/>
      <point x="460" y="1494"/>
      <point x="436" y="1494" type="curve" smooth="yes"/>
      <point x="284" y="1494" type="line"/>
    </contour>
    <contour>
      <point x="648" y="734" type="curve" smooth="yes"/>
      <point x="600" y="734"/>
      <point x="546" y="740"/>
      <point x="522" y="746" type="curve"/>
      <point x="596" y="1260" type="line"/>
      <point x="634" y="1266"/>
      <point x="668" y="1270"/>
      <point x="694" y="1270" type="curve" smooth="yes"/>
      <point x="872" y="1270"/>
      <point x="942" y="1204"/>
      <point x="942" y="1074" type="curve" smooth="yes"/>
      <point x="928" y="852"/>
      <point x="844" y="734"/>
    </contour>
  </outline>
</glyph>
<glyph name="Q" format="2">
  <advance width="1362"/>
  <unicode hex="0051"/>
  <note>
Q
</note>
  <outline>
    <contour>
      <point x="852" y="-410" type="curve" smooth="yes"/>
      <point x="966" y="-410"/>
      <point x="1168" y="-366"/>
      <point x="1228" y="-310" type="curve"/>
      <point x="1228" y="-112" type="line"/>
      <point x="1168" y="-130"/>
      <point x="1066" y="-138"/>
      <point x="924" y="-138" type="curve" smooth="yes"/>
      <point x="788" y="-138"/>
      <point x="698" y="-126"/>
      <point x="698" y="-28" type="curve" smooth="yes"/>
      <point x="698" y="-20"/>
      <point x="698" y="6"/>
      <point x="698" y="12" type="curve"/>
      <point x="486" y="14" type="line"/>
      <point x="468" y="-36"/>
      <point x="460" y="-104"/>
      <point x="460" y="-146" type="curve" smooth="yes"/>
      <point x="460" y="-336"/>
      <point x="628" y="-410"/>
    </contour>
    <component base="O"/>
  </outline>
</glyph>
<glyph name="R" format="2">
  <advance width="1312"/>
  <unicode hex="0052"/>
  <note>
R
</note>
  <anchor x="582" y="0" name="bottom"/>
  <anchor x="734" y="1494" name="top"/>
  <outline>
    <contour>
      <point x="70" y="0" type="line"/>
      <point x="416" y="0" type="line"/>
      <point x="500" y="560" type="line"/>
      <point x="652" y="560" type="line" smooth="yes"/>
      <point x="696" y="560"/>
      <point x="758" y="408"/>
      <point x="784" y="298" type="curve" smooth="yes"/>
      <point x="800" y="248"/>
      <point x="842" y="38"/>
      <point x="870" y="0" type="curve"/>
      <point x="1252" y="0" type="line"/>
      <point x="1210" y="60"/>
      <point x="1176" y="172"/>
      <point x="1116" y="358" type="curve" smooth="yes"/>
      <point x="1076" y="484"/>
      <point x="1034" y="578"/>
      <point x="980" y="626" type="curve"/>
      <point x="1198" y="692"/>
      <point x="1298" y="884"/>
      <point x="1298" y="1126" type="curve" smooth="yes"/>
      <point x="1298" y="1380"/>
      <point x="1140" y="1510"/>
      <point x="762" y="1510" type="curve" smooth="yes"/>
      <point x="682" y="1510"/>
      <point x="548" y="1494"/>
      <point x="480" y="1494" type="curve" smooth="yes"/>
      <point x="284" y="1494" type="line"/>
    </contour>
    <contour>
      <point x="726" y="826" type="curve" smooth="yes"/>
      <point x="634" y="826"/>
      <point x="570" y="826"/>
      <point x="536" y="828" type="curve"/>
      <point x="596" y="1260" type="line"/>
      <point x="626" y="1266"/>
      <point x="684" y="1270"/>
      <point x="730" y="1270" type="curve" smooth="yes"/>
      <point x="880" y="1270"/>
      <point x="960" y="1234"/>
      <point x="960" y="1098" type="curve" smooth="yes"/>
      <point x="960" y="956"/>
      <point x="890" y="826"/>
    </contour>
  </outline>
</glyph>
<glyph name="S" format="2">
  <advance width="1034"/>
  <unicode hex="0053"/>
  <note>
S
</note>
  <anchor x="444" y="0" name="bottom"/>
  <anchor x="682" y="1494" name="top"/>
  <outline>
    <contour>
      <point x="382" y="-16" type="curve" smooth="yes"/>
      <point x="706" y="-16"/>
      <point x="952" y="130"/>
      <point x="952" y="448" type="curve" smooth="yes"/>
      <point x="952" y="610"/>
      <point x="842" y="730"/>
      <point x="680" y="858" type="curve" smooth="yes"/>
      <point x="578" y="940"/>
      <point x="494" y="1010"/>
      <point x="494" y="1100" type="curve" smooth="yes"/>
      <point x="494" y="1178"/>
      <point x="556" y="1238"/>
      <point x="676" y="1238" type="curve" smooth="yes"/>
      <point x="772" y="1238"/>
      <point x="882" y="1198"/>
      <point x="928" y="1152" type="curve"/>
      <point x="1038" y="1426" type="line"/>
      <point x="980" y="1468"/>
      <point x="840" y="1510"/>
      <point x="686" y="1510" type="curve" smooth="yes"/>
      <point x="388" y="1510"/>
      <point x="164" y="1350"/>
      <point x="164" y="1064" type="curve" smooth="yes"/>
      <point x="164" y="898"/>
      <point x="270" y="762"/>
      <point x="414" y="652" type="curve" smooth="yes"/>
      <point x="536" y="560"/>
      <point x="598" y="506"/>
      <point x="598" y="416" type="curve" smooth="yes"/>
      <point x="598" y="320"/>
      <point x="540" y="260"/>
      <point x="398" y="260" type="curve" smooth="yes"/>
      <point x="304" y="260"/>
      <point x="178" y="310"/>
      <point x="112" y="360" type="curve"/>
      <point x="-4" y="78" type="line"/>
      <point x="52" y="32"/>
      <point x="272" y="-16"/>
    </contour>
  </outline>
</glyph>
<glyph name="T" format="2">
  <advance width="1126"/>
  <unicode hex="0054"/>
  <note>
T
</note>
  <anchor x="490" y="0" name="bottom"/>
  <anchor x="590" y="748" name="center"/>
  <anchor x="688" y="1494" name="top"/>
  <outline>
    <contour>
      <point x="306" y="0" type="line"/>
      <point x="658" y="0" type="line"/>
      <point x="834" y="1236" type="line"/>
      <point x="1178" y="1226" type="line"/>
      <point x="1218" y="1494" type="line"/>
      <point x="176" y="1494" type="line"/>
      <point x="132" y="1226" type="line"/>
      <point x="484" y="1236" type="line"/>
    </contour>
  </outline>
</glyph>
<glyph name="U" format="2">
  <advance width="1406"/>
  <unicode hex="0055"/>
  <note>
U
</note>
  <anchor x="630" y="0" name="bottom"/>
  <anchor x="793" y="0" name="ogonek"/>
  <anchor x="828" y="1494" name="top"/>
  <anchor x="1490" y="1494" name="topright"/>
  <outline>
    <contour>
      <point x="606" y="-16" type="curve" smooth="yes"/>
      <point x="886" y="-16"/>
      <point x="1064" y="60"/>
      <point x="1170" y="236" type="curve" smooth="yes"/>
      <point x="1222" y="322"/>
      <point x="1258" y="438"/>
      <point x="1278" y="584" type="curve" smooth="yes"/>
      <point x="1406" y="1494" type="line"/>
      <point x="1062" y="1494" type="line"/>
      <point x="938" y="620" type="line" smooth="yes"/>
      <point x="906" y="416"/>
      <point x="830" y="250"/>
      <point x="660" y="250" type="curve" smooth="yes"/>
      <point x="516" y="250"/>
      <point x="460" y="300"/>
      <point x="460" y="444" type="curve" smooth="yes"/>
      <point x="460" y="516"/>
      <point x="470" y="574"/>
      <point x="476" y="626" type="curve" smooth="yes"/>
      <point x="600" y="1494" type="line"/>
      <point x="254" y="1494" type="line"/>
      <point x="126" y="584" type="line" smooth="yes"/>
      <point x="116" y="522"/>
      <point x="112" y="468"/>
      <point x="112" y="422" type="curve" smooth="yes"/>
      <point x="114" y="144"/>
      <point x="276" y="-16"/>
    </contour>
  </outline>
</glyph>
<glyph name="V" format="2">
  <advance width="1204"/>
  <unicode hex="0056"/>
  <note>
V
</note>
  <anchor x="528" y="0" name="bottom"/>
  <anchor x="726" y="1494" name="top"/>
  <outline>
    <contour>
      <point x="320" y="0" type="line"/>
      <point x="722" y="0" type="line"/>
      <point x="1368" y="1494" type="line"/>
      <point x="1000" y="1494" type="line"/>
      <point x="654" y="538" type="line"/>
      <point x="578" y="282" type="line"/>
      <point x="562" y="538" type="line"/>
      <point x="446" y="1494" type="line"/>
      <point x="100" y="1494" type="line"/>
    </contour>
  </outline>
</glyph>
<glyph name="W" format="2">
  <advance width="1760"/>
  <unicode hex="0057"/>
  <note>
W
</note>
  <anchor x="806" y="0" name="bottom"/>
  <anchor x="1004" y="1494" name="top"/>
  <outline>
    <contour>
      <point x="276" y="0" type="line"/>
      <point x="642" y="0" type="line"/>
      <point x="836" y="534" type="line"/>
      <point x="896" y="698" type="line"/>
      <point x="914" y="534" type="line"/>
      <point x="970" y="0" type="line"/>
      <point x="1374" y="0" type="line"/>
      <point x="1954" y="1494" type="line"/>
      <point x="1598" y="1494" type="line"/>
      <point x="1272" y="538" type="line"/>
      <point x="1220" y="320" type="line"/>
      <point x="1198" y="538" type="line"/>
      <point x="1140" y="1494" type="line"/>
      <point x="802" y="1494" type="line"/>
      <point x="838" y="1164" type="line"/>
      <point x="586" y="538" type="line"/>
      <point x="520" y="320" type="line"/>
      <point x="500" y="538" type="line"/>
      <point x="444" y="1494" type="line"/>
      <point x="94" y="1494" type="line"/>
    </contour>
  </outline>
</glyph>
<glyph name="X" format="2">
  <advance width="1214"/>
  <unicode hex="0058"/>
  <note>
X
</note>
  <anchor x="534" y="0" name="bottom"/>
  <anchor x="732" y="1494" name="top"/>
  <outline>
    <contour>
      <point x="-96" y="0" type="line"/>
      <point x="290" y="0" type="line"/>
      <point x="604" y="518" type="line"/>
      <point x="800" y="0" type="line"/>
      <point x="1178" y="0" type="line"/>
      <point x="838" y="718" type="line"/>
      <point x="1370" y="1494" type="line"/>
      <point x="994" y="1494" type="line"/>
      <point x="684" y="1012" type="line"/>
      <point x="510" y="1494" type="line"/>
      <point x="140" y="1494" type="line"/>
      <point x="454" y="790" type="line"/>
    </contour>
  </outline>
</glyph>
<glyph name="Y" format="2">
  <advance width="1136"/>
  <unicode hex="0059"/>
  <note>
Y
</note>
  <anchor x="494" y="0" name="bottom"/>
  <anchor x="692" y="1494" name="top"/>
  <anchor x="164" y="1494" name="topleft"/>
  <outline>
    <contour>
      <point x="310" y="0" type="line"/>
      <point x="656" y="0" type="line"/>
      <point x="738" y="576" type="line"/>
      <point x="1324" y="1494" type="line"/>
      <point x="940" y="1494" type="line"/>
      <point x="664" y="982" type="line"/>
      <point x="606" y="850" type="line"/>
      <point x="582" y="982" type="line"/>
      <point x="444" y="1494" type="line"/>
      <point x="82" y="1494" type="line"/>
      <point x="392" y="576" type="line"/>
    </contour>
  </outline>
</glyph>
<glyph name="Z" format="2">
  <advance width="1130"/>
  <unicode hex="005A"/>
  <note>
Z
</note>
  <anchor x="492" y="0" name="bottom"/>
  <anchor x="592" y="748" name="center"/>
  <anchor x="746" y="1494" name="top"/>
  <outline>
    <contour>
      <point x="-40" y="0" type="line"/>
      <point x="978" y="0" type="line"/>
      <point x="1024" y="286" type="line"/>
      <point x="420" y="276" type="line"/>
      <point x="502" y="348" type="line"/>
      <point x="1228" y="1410" type="line"/>
      <point x="1206" y="1494" type="line"/>
      <point x="252" y="1494" type="line"/>
      <point x="208" y="1216" type="line"/>
      <point x="780" y="1226" type="line"/>
      <point x="690" y="1160" type="line"/>
      <point x="-66" y="86" type="line"/>
    </contour>
  </outline>
</glyph>
<glyph name="bracketleft" format="2">
  <advance width="816"/>
  <unicode hex="005B"/>
  <note>
bracketleft
</note>
  <outline>
    <contour>
      <point x="278" y="-252" type="curve" smooth="yes"/>
      <point x="420" y="-252"/>
      <point x="502" y="-230"/>
      <point x="612" y="-198" type="curve"/>
      <point x="634" y="-30" type="line"/>
      <point x="384" y="-30" type="line"/>
      <point x="594" y="1542" type="line"/>
      <point x="842" y="1542" type="line"/>
      <point x="868" y="1714" type="line"/>
      <point x="820" y="1728"/>
      <point x="640" y="1760"/>
      <point x="546" y="1760" type="curve" smooth="yes"/>
      <point x="394" y="1760"/>
      <point x="322" y="1670"/>
      <point x="296" y="1478" type="curve" smooth="yes"/>
      <point x="92" y="32" type="line" smooth="yes"/>
      <point x="86" y="-2"/>
      <point x="84" y="-38"/>
      <point x="84" y="-76" type="curve" smooth="yes"/>
      <point x="84" y="-186"/>
      <point x="156" y="-252"/>
    </contour>
  </outline>
</glyph>
<glyph name="bracketright" format="2">
  <advance width="816"/>
  <unicode hex="005D"/>
  <note>
bracketright
</note>
  <outline>
    <contour>
      <point x="590" y="1760" type="curve" smooth="yes"/>
      <point x="448" y="1760"/>
      <point x="366" y="1738"/>
      <point x="256" y="1706" type="curve"/>
      <point x="234" y="1538" type="line"/>
      <point x="484" y="1538" type="line"/>
      <point x="274" y="-34" type="line"/>
      <point x="26" y="-34" type="line"/>
      <point x="0" y="-206" type="line"/>
      <point x="48" y="-220"/>
      <point x="228" y="-252"/>
      <point x="322" y="-252" type="curve" smooth="yes"/>
      <point x="474" y="-252"/>
      <point x="546" y="-162"/>
      <point x="572" y="30" type="curve" smooth="yes"/>
      <point x="776" y="1476" type="line" smooth="yes"/>
      <point x="782" y="1510"/>
      <point x="784" y="1546"/>
      <point x="784" y="1584" type="curve" smooth="yes"/>
      <point x="784" y="1694"/>
      <point x="712" y="1760"/>
    </contour>
  </outline>
</glyph>
<glyph name="asciicircum" format="2">
  <advance width="1332"/>
  <unicode hex="005E"/>
  <note>
asciicircum
</note>
  <outline>
    <contour>
      <point x="124" y="498" type="line"/>
      <point x="392" y="498" type="line"/>
      <point x="742" y="1132" type="line"/>
      <point x="898" y="498" type="line"/>
      <point x="1164" y="498" type="line"/>
      <point x="902" y="1496" type="line"/>
      <point x="642" y="1496" type="line"/>
    </contour>
  </outline>
</glyph>
<glyph name="grave" format="2">
  <advance width="534"/>
  <unicode hex="0060"/>
  <note>
grave
</note>
  <outline>
    <contour>
      <point x="398" y="1198" type="curve"/>
      <point x="520" y="1294" type="line"/>
      <point x="194" y="1732" type="line"/>
      <point x="-10" y="1538" type="line"/>
      <point x="28" y="1460"/>
      <point x="294" y="1236"/>
    </contour>
  </outline>
</glyph>
<glyph name="a" format="2">
  <advance width="1224"/>
  <unicode hex="0061"/>
  <note>
a
</note>
  <anchor x="546" y="0" name="bottom"/>
  <anchor x="1020" y="0" name="ogonek"/>
  <anchor x="754" y="1114" name="top"/>
  <outline>
    <contour>
      <point x="396" y="-16" type="curve" smooth="yes"/>
      <point x="542" y="-16"/>
      <point x="654" y="98"/>
      <point x="718" y="242" type="curve"/>
      <point x="708" y="0" type="line"/>
      <point x="1020" y="0" type="line"/>
      <point x="1176" y="1128" type="line"/>
      <point x="998" y="1084" type="line"/>
      <point x="928" y="1108"/>
      <point x="832" y="1128"/>
      <point x="754" y="1128" type="curve" smooth="yes"/>
      <point x="344" y="1128"/>
      <point x="68" y="812"/>
      <point x="68" y="402" type="curve" smooth="yes"/>
      <point x="68" y="154"/>
      <point x="166" y="-16"/>
    </contour>
    <contour>
      <point x="518" y="218" type="curve" smooth="yes"/>
      <point x="460" y="218"/>
      <point x="432" y="286"/>
      <point x="432" y="422" type="curve" smooth="yes"/>
      <point x="432" y="588"/>
      <point x="478" y="754"/>
      <point x="568" y="852" type="curve" smooth="yes"/>
      <point x="612" y="900"/>
      <point x="666" y="924"/>
      <point x="730" y="924" type="curve" smooth="yes"/>
      <point x="760" y="924"/>
      <point x="786" y="922"/>
      <point x="804" y="918" type="curve"/>
      <point x="758" y="592" type="line"/>
      <point x="724" y="470"/>
      <point x="616" y="218"/>
    </contour>
  </outline>
</glyph>
<glyph name="b" format="2">
  <advance width="1260"/>
  <unicode hex="0062"/>
  <note>
b
</note>
  <anchor x="556" y="0" name="bottom"/>
  <anchor x="874" y="1114" name="top"/>
  <outline>
    <contour>
      <point x="504" y="-16" type="curve" smooth="yes"/>
      <point x="798" y="-16"/>
      <point x="1008" y="136"/>
      <point x="1114" y="356" type="curve" smooth="yes"/>
      <point x="1166" y="466"/>
      <point x="1192" y="582"/>
      <point x="1192" y="708" type="curve" smooth="yes"/>
      <point x="1192" y="956"/>
      <point x="1094" y="1128"/>
      <point x="864" y="1128" type="curve" smooth="yes"/>
      <point x="702" y="1128"/>
      <point x="588" y="994"/>
      <point x="526" y="834" type="curve"/>
      <point x="546" y="954" type="line"/>
      <point x="628" y="1596" type="line"/>
      <point x="294" y="1596" type="line"/>
      <point x="74" y="0" type="line"/>
      <point x="254" y="32" type="line"/>
      <point x="320" y="6"/>
      <point x="426" y="-16"/>
    </contour>
    <contour>
      <point x="528" y="190" type="curve" smooth="yes"/>
      <point x="494" y="190"/>
      <point x="468" y="192"/>
      <point x="450" y="196" type="curve"/>
      <point x="494" y="504" type="line"/>
      <point x="524" y="624"/>
      <point x="632" y="890"/>
      <point x="740" y="890" type="curve" smooth="yes"/>
      <point x="798" y="890"/>
      <point x="826" y="822"/>
      <point x="826" y="686" type="curve" smooth="yes"/>
      <point x="826" y="524"/>
      <point x="780" y="358"/>
      <point x="692" y="262" type="curve" smooth="yes"/>
      <point x="646" y="214"/>
      <point x="592" y="190"/>
    </contour>
  </outline>
</glyph>
<glyph name="c" format="2">
  <advance width="934"/>
  <unicode hex="0063"/>
  <note>
c
</note>
  <anchor x="490" y="0" name="bottom"/>
  <anchor x="658" y="1114" name="top"/>
  <outline>
    <contour>
      <point x="476" y="-16" type="curve" smooth="yes"/>
      <point x="678" y="-16"/>
      <point x="820" y="76"/>
      <point x="886" y="180" type="curve"/>
      <point x="800" y="348" type="line"/>
      <point x="752" y="296"/>
      <point x="648" y="236"/>
      <point x="570" y="236" type="curve" smooth="yes"/>
      <point x="456" y="236"/>
      <point x="428" y="328"/>
      <point x="428" y="486" type="curve" smooth="yes"/>
      <point x="428" y="594"/>
      <point x="470" y="708"/>
      <point x="528" y="780" type="curve" smooth="yes"/>
      <point x="564" y="828"/>
      <point x="610" y="858"/>
      <point x="652" y="858" type="curve" smooth="yes"/>
      <point x="718" y="858"/>
      <point x="808" y="792"/>
      <point x="846" y="752" type="curve"/>
      <point x="930" y="1086" type="line"/>
      <point x="876" y="1110"/>
      <point x="756" y="1128"/>
      <point x="678" y="1128" type="curve" smooth="yes"/>
      <point x="446" y="1128"/>
      <point x="254" y="1006"/>
      <point x="150" y="794" type="curve" smooth="yes"/>
      <point x="98" y="688"/>
      <point x="72" y="566"/>
      <point x="72" y="432" type="curve" smooth="yes"/>
      <point x="72" y="178"/>
      <point x="232" y="-16"/>
    </contour>
  </outline>
</glyph>
<glyph name="d" format="2">
  <advance width="1244"/>
  <unicode hex="0064"/>
  <note>
d
</note>
  <anchor x="548" y="0" name="bottom"/>
  <anchor x="622" y="558" name="center"/>
  <anchor x="530" y="1114" name="top"/>
  <anchor x="1278" y="1114" name="topright"/>
  <outline>
    <contour>
      <point x="396" y="-16" type="curve" smooth="yes"/>
      <point x="556" y="-16"/>
      <point x="668" y="118"/>
      <point x="732" y="272" type="curve"/>
      <point x="716" y="0" type="line"/>
      <point x="1028" y="0" type="line"/>
      <point x="1234" y="1596" type="line"/>
      <point x="898" y="1596" type="line"/>
      <point x="834" y="1124" type="line"/>
      <point x="808" y="1126"/>
      <point x="780" y="1128"/>
      <point x="754" y="1128" type="curve" smooth="yes"/>
      <point x="466" y="1128"/>
      <point x="252" y="978"/>
      <point x="148" y="756" type="curve" smooth="yes"/>
      <point x="94" y="644"/>
      <point x="68" y="526"/>
      <point x="68" y="402" type="curve" smooth="yes"/>
      <point x="68" y="154"/>
      <point x="166" y="-16"/>
    </contour>
    <contour>
      <point x="518" y="222" type="curve" smooth="yes"/>
      <point x="460" y="222"/>
      <point x="432" y="288"/>
      <point x="432" y="422" type="curve" smooth="yes"/>
      <point x="432" y="588"/>
      <point x="478" y="754"/>
      <point x="568" y="852" type="curve" smooth="yes"/>
      <point x="612" y="900"/>
      <point x="666" y="924"/>
      <point x="730" y="924" type="curve" smooth="yes"/>
      <point x="758" y="924"/>
      <point x="782" y="922"/>
      <point x="804" y="916" type="curve"/>
      <point x="762" y="606" type="line"/>
      <point x="728" y="484"/>
      <point x="620" y="222"/>
    </contour>
  </outline>
</glyph>
<glyph name="e" format="2">
  <advance width="1086"/>
  <unicode hex="0065"/>
  <note>
e
</note>
  <anchor x="510" y="0" name="bottom"/>
  <anchor x="612" y="0" name="ogonek"/>
  <anchor x="698" y="1114" name="top"/>
  <outline>
    <contour>
      <point x="494" y="-16" type="curve" smooth="yes"/>
      <point x="676" y="-16"/>
      <point x="888" y="78"/>
      <point x="986" y="212" type="curve"/>
      <point x="896" y="380" type="line"/>
      <point x="842" y="308"/>
      <point x="690" y="220"/>
      <point x="580" y="220" type="curve" smooth="yes"/>
      <point x="484" y="220"/>
      <point x="446" y="260"/>
      <point x="438" y="346" type="curve" smooth="yes"/>
      <point x="438" y="354"/>
      <point x="438" y="364"/>
      <point x="438" y="374" type="curve"/>
      <point x="772" y="460"/>
      <point x="1032" y="604"/>
      <point x="1032" y="872" type="curve" smooth="yes"/>
      <point x="1032" y="1022"/>
      <point x="924" y="1128"/>
      <point x="700" y="1128" type="curve" smooth="yes"/>
      <point x="468" y="1128"/>
      <point x="266" y="1004"/>
      <point x="156" y="790" type="curve" smooth="yes"/>
      <point x="100" y="684"/>
      <point x="72" y="564"/>
      <point x="72" y="432" type="curve" smooth="yes"/>
      <point x="72" y="270"/>
      <point x="128" y="128"/>
      <point x="256" y="46" type="curve" smooth="yes"/>
      <point x="318" y="4"/>
      <point x="398" y="-16"/>
    </contour>
    <contour>
      <point x="434" y="548" type="curve"/>
      <point x="436" y="616"/>
      <point x="444" y="730"/>
      <point x="500" y="820" type="curve" smooth="yes"/>
      <point x="542" y="886"/>
      <point x="574" y="938"/>
      <point x="622" y="938" type="curve" smooth="yes"/>
      <point x="676" y="938"/>
      <point x="696" y="908"/>
      <point x="696" y="838" type="curve" smooth="yes"/>
      <point x="696" y="694"/>
      <point x="558" y="556"/>
    </contour>
  </outline>
</glyph>
<glyph name="f" format="2">
  <advance width="748"/>
  <unicode hex="0066"/>
  <note>
f
</note>
  <anchor x="300" y="0" name="bottom"/>
  <anchor x="584" y="1578" name="top"/>
  <outline>
    <contour>
      <point x="108" y="0" type="line"/>
      <point x="448" y="0" type="line"/>
      <point x="572" y="902" type="line"/>
      <point x="754" y="902" type="line"/>
      <point x="780" y="1114" type="line"/>
      <point x="596" y="1114" type="line"/>
      <point x="624" y="1268" type="line" smooth="yes"/>
      <point x="642" y="1380"/>
      <point x="682" y="1420"/>
      <point x="752" y="1420" type="curve" smooth="yes"/>
      <point x="800" y="1420"/>
      <point x="856" y="1390"/>
      <point x="872" y="1374" type="curve"/>
      <point x="932" y="1606" type="line"/>
      <point x="890" y="1622"/>
      <point x="832" y="1630"/>
      <point x="758" y="1630" type="curve" smooth="yes"/>
      <point x="584" y="1630"/>
      <point x="446" y="1558"/>
      <point x="360" y="1432" type="curve" smooth="yes"/>
      <point x="318" y="1368"/>
      <point x="290" y="1296"/>
      <point x="280" y="1216" type="curve"/>
      <point x="260" y="1114" type="line"/>
      <point x="152" y="1114" type="line"/>
      <point x="112" y="902" type="line"/>
      <point x="232" y="902" type="line"/>
    </contour>
  </outline>
</glyph>
<glyph name="g" format="2">
  <advance width="1240"/>
  <unicode hex="0067"/>
  <note>
g
</note>
  <anchor x="474" y="-546" name="bottom"/>
  <anchor x="748" y="1114" name="top"/>
  <outline>
    <contour>
      <point x="384" y="-504" type="curve" smooth="yes"/>
      <point x="600" y="-504"/>
      <point x="788" y="-450"/>
      <point x="904" y="-312" type="curve" smooth="yes"/>
      <point x="962" y="-240"/>
      <point x="1004" y="-146"/>
      <point x="1020" y="-28" type="curve" smooth="yes"/>
      <point x="1180" y="1128" type="line"/>
      <point x="996" y="1084" type="line"/>
      <point x="930" y="1108"/>
      <point x="832" y="1128"/>
      <point x="754" y="1128" type="curve" smooth="yes"/>
      <point x="466" y="1128"/>
      <point x="252" y="978"/>
      <point x="148" y="756" type="curve" smooth="yes"/>
      <point x="94" y="644"/>
      <point x="68" y="526"/>
      <point x="68" y="402" type="curve" smooth="yes"/>
      <point x="68" y="154"/>
      <point x="166" y="-16"/>
      <point x="396" y="-16" type="curve" smooth="yes"/>
      <point x="548" y="-16"/>
      <point x="656" y="104"/>
      <point x="722" y="250" type="curve"/>
      <point x="660" y="-94" type="line" smooth="yes"/>
      <point x="636" y="-230"/>
      <point x="580" y="-300"/>
      <point x="450" y="-300" type="curve" smooth="yes"/>
      <point x="358" y="-300"/>
      <point x="208" y="-244"/>
      <point x="170" y="-212" type="curve"/>
      <point x="120" y="-460" type="line"/>
      <point x="162" y="-482"/>
      <point x="294" y="-504"/>
    </contour>
    <contour>
      <point x="518" y="222" type="curve" smooth="yes"/>
      <point x="460" y="222"/>
      <point x="432" y="288"/>
      <point x="432" y="422" type="curve" smooth="yes"/>
      <point x="432" y="588"/>
      <point x="478" y="754"/>
      <point x="568" y="852" type="curve" smooth="yes"/>
      <point x="612" y="900"/>
      <point x="666" y="924"/>
      <point x="730" y="924" type="curve" smooth="yes"/>
      <point x="758" y="924"/>
      <point x="782" y="922"/>
      <point x="802" y="920" type="curve"/>
      <point x="758" y="594" type="line"/>
      <point x="724" y="472"/>
      <point x="616" y="222"/>
    </contour>
  </outline>
</glyph>
<glyph name="h" format="2">
  <advance width="1284"/>
  <unicode hex="0068"/>
  <note>
h
</note>
  <anchor x="568" y="0" name="bottom"/>
  <anchor x="698" y="984" name="center"/>
  <anchor x="458" y="1516" name="top"/>
  <outline>
    <contour>
      <point x="76" y="0" type="line"/>
      <point x="416" y="0" type="line"/>
      <point x="508" y="682" type="line"/>
      <point x="564" y="792"/>
      <point x="654" y="866"/>
      <point x="726" y="866" type="curve" smooth="yes"/>
      <point x="782" y="866"/>
      <point x="808" y="840"/>
      <point x="806" y="770" type="curve" smooth="yes"/>
      <point x="804" y="722"/>
      <point x="794" y="632"/>
      <point x="778" y="498" type="curve" smooth="yes"/>
      <point x="762" y="366"/>
      <point x="740" y="200"/>
      <point x="710" y="0" type="curve"/>
      <point x="1058" y="0" type="line"/>
      <point x="1076" y="100"/>
      <point x="1168" y="790"/>
      <point x="1168" y="834" type="curve" smooth="yes"/>
      <point x="1168" y="1044"/>
      <point x="1074" y="1128"/>
      <point x="898" y="1128" type="curve" smooth="yes"/>
      <point x="748" y="1128"/>
      <point x="618" y="1044"/>
      <point x="530" y="900" type="curve"/>
      <point x="558" y="1046" type="line"/>
      <point x="630" y="1596" type="line"/>
      <point x="292" y="1596" type="line"/>
    </contour>
  </outline>
</glyph>
<glyph name="k" format="2">
  <advance width="1198"/>
  <unicode hex="006B"/>
  <note>
k
</note>
  <anchor x="526" y="0" name="bottom"/>
  <anchor x="786" y="1966" name="top"/>
  <outline>
    <contour>
      <point x="76" y="0" type="line"/>
      <point x="416" y="0" type="line"/>
      <point x="632" y="1596" type="line"/>
      <point x="292" y="1596" type="line"/>
    </contour>
    <contour>
      <point x="772" y="0" type="line"/>
      <point x="1170" y="0" type="line"/>
      <point x="854" y="608" type="line"/>
      <point x="1024" y="702"/>
      <point x="1184" y="912"/>
      <point x="1192" y="1114" type="curve"/>
      <point x="848" y="1114" type="line"/>
      <point x="800" y="920"/>
      <point x="662" y="690"/>
      <point x="530" y="616" type="curve"/>
    </contour>
  </outline>
</glyph>
<glyph name="l" format="2">
  <advance width="650"/>
  <unicode hex="006C"/>
  <note>
l
</note>
  <anchor x="260" y="0" name="bottom"/>
  <anchor x="382" y="984" name="center"/>
  <anchor x="464" y="1568" name="top"/>
  <anchor x="714" y="1422" name="topright"/>
  <outline>
    <contour>
      <point x="82" y="0" type="line"/>
      <point x="430" y="0" type="line"/>
      <point x="646" y="1596" type="line"/>
      <point x="296" y="1596" type="line"/>
    </contour>
  </outline>
</glyph>
<glyph name="m" format="2">
  <advance width="1918"/>
  <unicode hex="006D"/>
  <note>
m
</note>
  <anchor x="886" y="0" name="bottom"/>
  <anchor x="1034" y="1114" name="top"/>
  <outline>
    <contour>
      <point x="74" y="0" type="line"/>
      <point x="422" y="0" type="line"/>
      <point x="518" y="690" type="line"/>
      <point x="576" y="794"/>
      <point x="666" y="866"/>
      <point x="736" y="866" type="curve" smooth="yes"/>
      <point x="792" y="866"/>
      <point x="818" y="840"/>
      <point x="816" y="770" type="curve" smooth="yes"/>
      <point x="814" y="722"/>
      <point x="804" y="632"/>
      <point x="788" y="498" type="curve" smooth="yes"/>
      <point x="772" y="366"/>
      <point x="750" y="200"/>
      <point x="720" y="0" type="curve"/>
      <point x="1068" y="0" type="line"/>
      <point x="1072" y="18"/>
      <point x="1128" y="418"/>
      <point x="1154" y="606" type="curve" smooth="yes"/>
      <point x="1160" y="656"/>
      <point x="1164" y="690"/>
      <point x="1166" y="700" type="curve"/>
      <point x="1222" y="802"/>
      <point x="1302" y="866"/>
      <point x="1368" y="866" type="curve" smooth="yes"/>
      <point x="1424" y="866"/>
      <point x="1450" y="840"/>
      <point x="1448" y="770" type="curve" smooth="yes"/>
      <point x="1446" y="714"/>
      <point x="1432" y="608"/>
      <point x="1418" y="498" type="curve" smooth="yes"/>
      <point x="1402" y="372"/>
      <point x="1380" y="206"/>
      <point x="1352" y="0" type="curve"/>
      <point x="1700" y="0" type="line"/>
      <point x="1724" y="166"/>
      <point x="1746" y="332"/>
      <point x="1770" y="498" type="curve" smooth="yes"/>
      <point x="1796" y="688"/>
      <point x="1808" y="800"/>
      <point x="1808" y="834" type="curve" smooth="yes"/>
      <point x="1808" y="1044"/>
      <point x="1716" y="1128"/>
      <point x="1546" y="1128" type="curve" smooth="yes"/>
      <point x="1394" y="1128"/>
      <point x="1264" y="1044"/>
      <point x="1174" y="906" type="curve"/>
      <point x="1156" y="1064"/>
      <point x="1066" y="1128"/>
      <point x="916" y="1128" type="curve" smooth="yes"/>
      <point x="766" y="1128"/>
      <point x="642" y="1050"/>
      <point x="548" y="916" type="curve"/>
      <point x="562" y="1114" type="line"/>
      <point x="226" y="1114" type="line"/>
    </contour>
  </outline>
</glyph>
<glyph name="n" format="2">
  <advance width="1288"/>
  <unicode hex="006E"/>
  <note>
n
</note>
  <anchor x="570" y="0" name="bottom"/>
  <anchor x="718" y="1114" name="top"/>
  <outline>
    <contour>
      <point x="74" y="0" type="line"/>
      <point x="422" y="0" type="line"/>
      <point x="518" y="682" type="line"/>
      <point x="574" y="792"/>
      <point x="664" y="866"/>
      <point x="736" y="866" type="curve" smooth="yes"/>
      <point x="792" y="866"/>
      <point x="818" y="840"/>
      <point x="816" y="770" type="curve" smooth="yes"/>
      <point x="814" y="722"/>
      <point x="804" y="632"/>
      <point x="788" y="498" type="curve" smooth="yes"/>
      <point x="772" y="366"/>
      <point x="750" y="200"/>
      <point x="720" y="0" type="curve"/>
      <point x="1068" y="0" type="line"/>
      <point x="1072" y="22"/>
      <point x="1128" y="434"/>
      <point x="1138" y="500" type="curve" smooth="yes"/>
      <point x="1154" y="616"/>
      <point x="1178" y="790"/>
      <point x="1178" y="834" type="curve" smooth="yes"/>
      <point x="1178" y="1044"/>
      <point x="1084" y="1128"/>
      <point x="908" y="1128" type="curve" smooth="yes"/>
      <point x="762" y="1128"/>
      <point x="636" y="1048"/>
      <point x="546" y="912" type="curve"/>
      <point x="560" y="1114" type="line"/>
      <point x="226" y="1114" type="line"/>
    </contour>
  </outline>
</glyph>
<glyph name="o" format="2">
  <advance width="1154"/>
  <unicode hex="006F"/>
  <note>
o
</note>
  <anchor x="504" y="0" name="bottom"/>
  <anchor x="578" y="558" name="center"/>
  <anchor x="616" y="0" name="ogonek"/>
  <anchor x="654" y="1114" name="top"/>
  <anchor x="1188" y="1114" name="topright"/>
  <outline>
    <contour>
      <point x="470" y="-16" type="curve" smooth="yes"/>
      <point x="734" y="-16"/>
      <point x="924" y="116"/>
      <point x="1020" y="320" type="curve" smooth="yes"/>
      <point x="1066" y="422"/>
      <point x="1090" y="534"/>
      <point x="1090" y="656" type="curve" smooth="yes"/>
      <point x="1090" y="932"/>
      <point x="960" y="1128"/>
      <point x="684" y="1128" type="curve" smooth="yes"/>
      <point x="420" y="1128"/>
      <point x="230" y="998"/>
      <point x="136" y="794" type="curve" smooth="yes"/>
      <point x="88" y="692"/>
      <point x="64" y="580"/>
      <point x="64" y="458" type="curve" smooth="yes"/>
      <point x="64" y="184"/>
      <point x="194" y="-16"/>
    </contour>
    <contour>
      <point x="516" y="194" type="curve" smooth="yes"/>
      <point x="446" y="194"/>
      <point x="410" y="268"/>
      <point x="410" y="418" type="curve" smooth="yes"/>
      <point x="410" y="618"/>
      <point x="468" y="920"/>
      <point x="632" y="920" type="curve" smooth="yes"/>
      <point x="722" y="920"/>
      <point x="740" y="808"/>
      <point x="740" y="688" type="curve" smooth="yes"/>
      <point x="740" y="472"/>
      <point x="684" y="194"/>
    </contour>
  </outline>
</glyph>
<glyph name="p" format="2">
  <advance width="1254"/>
  <unicode hex="0070"/>
  <note>
p
</note>
  <anchor x="554" y="0" name="bottom"/>
  <anchor x="702" y="1114" name="top"/>
  <outline>
    <contour>
      <point x="8" y="-480" type="line"/>
      <point x="352" y="-480" type="line"/>
      <point x="418" y="-10" type="line"/>
      <point x="446" y="-14"/>
      <point x="474" y="-16"/>
      <point x="500" y="-16" type="curve" smooth="yes"/>
      <point x="790" y="-16"/>
      <point x="1004" y="136"/>
      <point x="1108" y="360" type="curve" smooth="yes"/>
      <point x="1160" y="470"/>
      <point x="1186" y="588"/>
      <point x="1186" y="714" type="curve" smooth="yes"/>
      <point x="1186" y="962"/>
      <point x="1090" y="1128"/>
      <point x="858" y="1128" type="curve" smooth="yes"/>
      <point x="714" y="1128"/>
      <point x="608" y="1022"/>
      <point x="542" y="886" type="curve"/>
      <point x="544" y="1114" type="line"/>
      <point x="226" y="1114" type="line"/>
    </contour>
    <contour>
      <point x="524" y="190" type="curve" smooth="yes"/>
      <point x="492" y="190"/>
      <point x="466" y="192"/>
      <point x="448" y="194" type="curve"/>
      <point x="492" y="504" type="line"/>
      <point x="520" y="626"/>
      <point x="634" y="890"/>
      <point x="736" y="890" type="curve" smooth="yes"/>
      <point x="806" y="890"/>
      <point x="822" y="804"/>
      <point x="822" y="694" type="curve" smooth="yes"/>
      <point x="822" y="528"/>
      <point x="776" y="362"/>
      <point x="688" y="264" type="curve" smooth="yes"/>
      <point x="642" y="214"/>
      <point x="588" y="190"/>
    </contour>
  </outline>
</glyph>
<glyph name="q" format="2">
  <advance width="1248"/>
  <unicode hex="0071"/>
  <note>
q
</note>
  <anchor x="550" y="0" name="bottom"/>
  <anchor x="698" y="1114" name="top"/>
  <outline>
    <contour>
      <point x="622" y="-480" type="line"/>
      <point x="964" y="-480" type="line"/>
      <point x="1178" y="1128" type="line"/>
      <point x="1004" y="1084" type="line"/>
      <point x="940" y="1108"/>
      <point x="834" y="1128"/>
      <point x="754" y="1128" type="curve" smooth="yes"/>
      <point x="344" y="1128"/>
      <point x="68" y="812"/>
      <point x="68" y="402" type="curve" smooth="yes"/>
      <point x="68" y="154"/>
      <point x="166" y="-16"/>
      <point x="396" y="-16" type="curve" smooth="yes"/>
      <point x="554" y="-16"/>
      <point x="668" y="116"/>
      <point x="730" y="270" type="curve"/>
      <point x="686" y="0" type="line"/>
    </contour>
    <contour>
      <point x="518" y="222" type="curve" smooth="yes"/>
      <point x="460" y="222"/>
      <point x="432" y="288"/>
      <point x="432" y="422" type="curve" smooth="yes"/>
      <point x="432" y="648"/>
      <point x="522" y="924"/>
      <point x="730" y="924" type="curve" smooth="yes"/>
      <point x="756" y="924"/>
      <point x="780" y="922"/>
      <point x="800" y="920" type="curve"/>
      <point x="754" y="580" type="line"/>
      <point x="718" y="460"/>
      <point x="612" y="222"/>
    </contour>
  </outline>
</glyph>
<glyph name="r" format="2">
  <advance width="884"/>
  <unicode hex="0072"/>
  <note>
r
</note>
  <anchor x="256" y="0" name="bottom"/>
  <anchor x="596" y="1114" name="top"/>
  <outline>
    <contour>
      <point x="76" y="0" type="line"/>
      <point x="424" y="0" type="line"/>
      <point x="526" y="702" type="line"/>
      <point x="596" y="764"/>
      <point x="658" y="788"/>
      <point x="744" y="788" type="curve" smooth="yes"/>
      <point x="782" y="788"/>
      <point x="830" y="778"/>
      <point x="840" y="762" type="curve"/>
      <point x="902" y="1116" type="line"/>
      <point x="892" y="1124"/>
      <point x="866" y="1128"/>
      <point x="834" y="1128" type="curve" smooth="yes"/>
      <point x="702" y="1128"/>
      <point x="592" y="1012"/>
      <point x="548" y="882" type="curve"/>
      <point x="564" y="1114" type="line"/>
      <point x="228" y="1114" type="line"/>
    </contour>
  </outline>
</glyph>
<glyph name="s" format="2">
  <advance width="954"/>
  <unicode hex="0073"/>
  <note>
s
</note>
  <anchor x="404" y="0" name="bottom"/>
  <anchor x="612" y="1114" name="top"/>
  <outline>
    <contour>
      <point x="378" y="-16" type="curve" smooth="yes"/>
      <point x="630" y="-16"/>
      <point x="840" y="78"/>
      <point x="840" y="324" type="curve" smooth="yes"/>
      <point x="840" y="454"/>
      <point x="770" y="532"/>
      <point x="644" y="628" type="curve" smooth="yes"/>
      <point x="596" y="676"/>
      <point x="482" y="736"/>
      <point x="482" y="810" type="curve" smooth="yes"/>
      <point x="482" y="856"/>
      <point x="524" y="888"/>
      <point x="604" y="888" type="curve" smooth="yes"/>
      <point x="692" y="888"/>
      <point x="794" y="842"/>
      <point x="834" y="800" type="curve"/>
      <point x="872" y="1092" type="line"/>
      <point x="838" y="1108"/>
      <point x="708" y="1128"/>
      <point x="612" y="1128" type="curve" smooth="yes"/>
      <point x="366" y="1128"/>
      <point x="160" y="1026"/>
      <point x="160" y="804" type="curve" smooth="yes"/>
      <point x="160" y="676"/>
      <point x="214" y="592"/>
      <point x="308" y="512" type="curve" smooth="yes"/>
      <point x="436" y="412"/>
      <point x="512" y="376"/>
      <point x="512" y="308" type="curve" smooth="yes"/>
      <point x="512" y="246"/>
      <point x="458" y="228"/>
      <point x="370" y="228" type="curve" smooth="yes"/>
      <point x="302" y="228"/>
      <point x="148" y="284"/>
      <point x="110" y="326" type="curve"/>
      <point x="54" y="52" type="line"/>
      <point x="104" y="16"/>
      <point x="266" y="-16"/>
    </contour>
  </outline>
</glyph>
<glyph name="t" format="2">
  <advance width="820"/>
  <unicode hex="0074"/>
  <note>
t
</note>
  <anchor x="328" y="0" name="bottom"/>
  <anchor x="402" y="558" name="center"/>
  <anchor x="514" y="1286" name="top"/>
  <anchor x="846" y="1114" name="topright"/>
  <outline>
    <contour>
      <point x="344" y="-20" type="curve" smooth="yes"/>
      <point x="518" y="-20"/>
      <point x="660" y="52"/>
      <point x="764" y="132" type="curve"/>
      <point x="710" y="298" type="line"/>
      <point x="668" y="258"/>
      <point x="582" y="218"/>
      <point x="540" y="218" type="curve" smooth="yes"/>
      <point x="486" y="218"/>
      <point x="472" y="242"/>
      <point x="472" y="282" type="curve" smooth="yes"/>
      <point x="472" y="324"/>
      <point x="478" y="344"/>
      <point x="554" y="902" type="curve"/>
      <point x="776" y="902" type="line"/>
      <point x="798" y="1114" type="line"/>
      <point x="580" y="1114" type="line"/>
      <point x="618" y="1382" type="line"/>
      <point x="356" y="1382" type="line"/>
      <point x="260" y="1114" type="line"/>
      <point x="158" y="1114" type="line"/>
      <point x="122" y="902" type="line"/>
      <point x="204" y="902" type="line"/>
      <point x="134" y="388" type="line" smooth="yes"/>
      <point x="124" y="316"/>
      <point x="114" y="208"/>
      <point x="114" y="190" type="curve" smooth="yes"/>
      <point x="114" y="56"/>
      <point x="202" y="-20"/>
    </contour>
  </outline>
</glyph>
<glyph name="u" format="2">
  <advance width="1252"/>
  <unicode hex="0075"/>
  <note>
u
</note>
  <anchor x="548" y="0" name="bottom"/>
  <anchor x="1032" y="0" name="ogonek"/>
  <anchor x="716" y="1114" name="top"/>
  <anchor x="1286" y="1114" name="topright"/>
  <outline>
    <contour>
      <point x="382" y="-20" type="curve" smooth="yes"/>
      <point x="526" y="-20"/>
      <point x="654" y="72"/>
      <point x="728" y="190" type="curve"/>
      <point x="722" y="0" type="line"/>
      <point x="1032" y="0" type="line"/>
      <point x="1184" y="1114" type="line"/>
      <point x="836" y="1114" type="line"/>
      <point x="738" y="408" type="line"/>
      <point x="680" y="306"/>
      <point x="600" y="228"/>
      <point x="534" y="228" type="curve" smooth="yes"/>
      <point x="496" y="228"/>
      <point x="466" y="262"/>
      <point x="466" y="324" type="curve" smooth="yes"/>
      <point x="466" y="360"/>
      <point x="474" y="444"/>
      <point x="492" y="576" type="curve" smooth="yes"/>
      <point x="516" y="756"/>
      <point x="538" y="934"/>
      <point x="562" y="1114" type="curve"/>
      <point x="216" y="1114" type="line"/>
      <point x="192" y="936"/>
      <point x="168" y="758"/>
      <point x="144" y="580" type="curve" smooth="yes"/>
      <point x="120" y="422"/>
      <point x="108" y="308"/>
      <point x="108" y="236" type="curve" smooth="yes"/>
      <point x="108" y="58"/>
      <point x="222" y="-20"/>
    </contour>
  </outline>
</glyph>
<glyph name="v" format="2">
  <advance width="1112"/>
  <unicode hex="0076"/>
  <note>
v
</note>
  <anchor x="482" y="0" name="bottom"/>
  <anchor x="630" y="1114" name="top"/>
  <outline>
    <contour>
      <point x="244" y="-20" type="line"/>
      <point x="516" y="-8" type="line"/>
      <point x="866" y="278"/>
      <point x="1082" y="636"/>
      <point x="1082" y="958" type="curve" smooth="yes"/>
      <point x="1082" y="1074"/>
      <point x="1070" y="1096"/>
      <point x="1070" y="1114" type="curve"/>
      <point x="750" y="1114" type="line"/>
      <point x="750" y="1020"/>
      <point x="736" y="870"/>
      <point x="722" y="798" type="curve"/>
      <point x="698" y="624"/>
      <point x="634" y="456"/>
      <point x="556" y="334" type="curve"/>
      <point x="508" y="270" type="line"/>
      <point x="494" y="464" type="line"/>
      <point x="434" y="1114" type="line"/>
      <point x="90" y="1114" type="line"/>
      <point x="190" y="346" type="line"/>
    </contour>
  </outline>
</glyph>
<glyph name="w" format="2">
  <advance width="1722"/>
  <unicode hex="0077"/>
  <note>
w
</note>
  <anchor x="788" y="0" name="bottom"/>
  <anchor x="936" y="1114" name="top"/>
  <outline>
    <contour>
      <point x="244" y="-12" type="line"/>
      <point x="512" y="-8" type="line"/>
      <point x="640" y="104"/>
      <point x="726" y="200"/>
      <point x="806" y="332" type="curve"/>
      <point x="824" y="208" type="line"/>
      <point x="858" y="-12" type="line"/>
      <point x="1112" y="-8" type="line"/>
      <point x="1496" y="310"/>
      <point x="1690" y="624"/>
      <point x="1690" y="958" type="curve" smooth="yes"/>
      <point x="1690" y="1042"/>
      <point x="1680" y="1098"/>
      <point x="1680" y="1114" type="curve"/>
      <point x="1370" y="1114" type="line"/>
      <point x="1370" y="1020"/>
      <point x="1360" y="896"/>
      <point x="1350" y="818" type="curve" smooth="yes"/>
      <point x="1324" y="642"/>
      <point x="1254" y="456"/>
      <point x="1176" y="334" type="curve" smooth="yes"/>
      <point x="1118" y="260" type="line"/>
      <point x="1106" y="464" type="line"/>
      <point x="1058" y="1114" type="line"/>
      <point x="724" y="1114" type="line"/>
      <point x="756" y="792" type="line"/>
      <point x="730" y="630"/>
      <point x="652" y="460"/>
      <point x="570" y="334" type="curve" smooth="yes"/>
      <point x="512" y="260" type="line"/>
      <point x="500" y="464" type="line"/>
      <point x="442" y="1114" type="line"/>
      <point x="90" y="1114" type="line"/>
      <point x="190" y="346" type="line"/>
    </contour>
  </outline>
</glyph>
<glyph name="x" format="2">
  <advance width="1028"/>
  <unicode hex="0078"/>
  <note>
x
</note>
  <anchor x="440" y="0" name="bottom"/>
  <anchor x="588" y="1114" name="top"/>
  <outline>
    <contour>
      <point x="-102" y="0" type="line"/>
      <point x="256" y="0" type="line"/>
      <point x="468" y="324" type="line"/>
      <point x="610" y="0" type="line"/>
      <point x="1008" y="0" type="line"/>
      <point x="694" y="546" type="line"/>
      <point x="1106" y="1114" type="line"/>
      <point x="758" y="1114" type="line"/>
      <point x="568" y="806" type="line"/>
      <point x="444" y="1114" type="line"/>
      <point x="44" y="1114" type="line"/>
      <point x="338" y="586" type="line"/>
    </contour>
  </outline>
</glyph>
<glyph name="y" format="2">
  <advance width="1114"/>
  <unicode hex="0079"/>
  <note>
y
</note>
  <anchor x="924" y="0" name="bottom"/>
  <anchor x="608" y="1114" name="top"/>
  <outline>
    <contour>
      <point x="164" y="-504" type="curve" smooth="yes"/>
      <point x="316" y="-504"/>
      <point x="420" y="-450"/>
      <point x="492" y="-372" type="curve" smooth="yes"/>
      <point x="650" y="-194"/>
      <point x="826" y="86"/>
      <point x="928" y="324" type="curve" smooth="yes"/>
      <point x="1026" y="554"/>
      <point x="1074" y="766"/>
      <point x="1074" y="964" type="curve" smooth="yes"/>
      <point x="1074" y="1044"/>
      <point x="1072" y="1094"/>
      <point x="1068" y="1114" type="curve"/>
      <point x="756" y="1114" type="line"/>
      <point x="756" y="1044"/>
      <point x="756" y="1000"/>
      <point x="752" y="956" type="curve" smooth="yes"/>
      <point x="740" y="742"/>
      <point x="724" y="620"/>
      <point x="656" y="428" type="curve" smooth="yes"/>
      <point x="622" y="322"/>
      <point x="584" y="224"/>
      <point x="542" y="134" type="curve"/>
      <point x="508" y="444" type="line"/>
      <point x="436" y="1114" type="line"/>
      <point x="92" y="1114" type="line"/>
      <point x="204" y="346" type="line"/>
      <point x="258" y="-20" type="line"/>
      <point x="460" y="-20" type="line"/>
      <point x="380" y="-144"/>
      <point x="256" y="-252"/>
      <point x="166" y="-252" type="curve" smooth="yes"/>
      <point x="116" y="-252"/>
      <point x="44" y="-226"/>
      <point x="-2" y="-194" type="curve"/>
      <point x="-90" y="-432" type="line"/>
      <point x="-20" y="-472"/>
      <point x="68" y="-504"/>
    </contour>
  </outline>
</glyph>
<glyph name="z" format="2">
  <advance width="960"/>
  <unicode hex="007A"/>
  <note>
z
</note>
  <anchor x="406" y="0" name="bottom"/>
  <anchor x="480" y="558" name="center"/>
  <anchor x="600" y="1114" name="top"/>
  <outline>
    <contour>
      <point x="-10" y="0" type="line"/>
      <point x="846" y="0" type="line"/>
      <point x="874" y="266" type="line"/>
      <point x="428" y="266" type="line"/>
      <point x="470" y="296" type="line"/>
      <point x="1002" y="1070" type="line"/>
      <point x="968" y="1114" type="line"/>
      <point x="166" y="1114" type="line"/>
      <point x="130" y="852" type="line"/>
      <point x="548" y="852" type="line"/>
      <point x="498" y="816" type="line"/>
      <point x="-44" y="44" type="line"/>
    </contour>
  </outline>
</glyph>
<glyph name="braceleft" format="2">
  <advance width="940"/>
  <unicode hex="007B"/>
  <note>
braceleft
</note>
  <outline>
    <contour>
      <point x="400" y="-266" type="curve" smooth="yes"/>
      <point x="510" y="-266"/>
      <point x="628" y="-240"/>
      <point x="756" y="-190" type="curve"/>
      <point x="778" y="-30" type="line"/>
      <point x="508" y="-30" type="line"/>
      <point x="596" y="598" type="line" smooth="yes"/>
      <point x="608" y="678"/>
      <point x="492" y="722"/>
      <point x="368" y="774" type="curve"/>
      <point x="552" y="818"/>
      <point x="640" y="862"/>
      <point x="654" y="960" type="curve" smooth="yes"/>
      <point x="732" y="1542" type="line"/>
      <point x="1002" y="1542" type="line"/>
      <point x="1032" y="1714" type="line"/>
      <point x="946" y="1746"/>
      <point x="798" y="1770"/>
      <point x="710" y="1770" type="curve" smooth="yes"/>
      <point x="582" y="1770"/>
      <point x="458" y="1692"/>
      <point x="432" y="1514" type="curve" smooth="yes"/>
      <point x="360" y="1010" type="line" smooth="yes"/>
      <point x="352" y="952"/>
      <point x="296" y="928"/>
      <point x="110" y="886" type="curve"/>
      <point x="78" y="688" type="line"/>
      <point x="168" y="668"/>
      <point x="300" y="628"/>
      <point x="290" y="556" type="curve" smooth="yes"/>
      <point x="208" y="-90" type="line" smooth="yes"/>
      <point x="194" y="-200"/>
      <point x="262" y="-266"/>
    </contour>
  </outline>
</glyph>
<glyph name="bar" format="2">
  <advance width="834"/>
  <unicode hex="007C"/>
  <note>
bar
</note>
  <outline>
    <contour>
      <point x="312" y="-182" type="line"/>
      <point x="560" y="-182" type="line"/>
      <point x="560" y="1738" type="line"/>
      <point x="312" y="1738" type="line"/>
    </contour>
  </outline>
</glyph>
<glyph name="braceright" format="2">
  <advance width="940"/>
  <unicode hex="007D"/>
  <note>
braceleft
</note>
  <outline>
    <contour>
      <point x="592" y="1770" type="curve" smooth="yes"/>
      <point x="482" y="1770"/>
      <point x="364" y="1744"/>
      <point x="236" y="1694" type="curve"/>
      <point x="214" y="1534" type="line"/>
      <point x="484" y="1534" type="line"/>
      <point x="396" y="906" type="line" smooth="yes"/>
      <point x="384" y="826"/>
      <point x="500" y="782"/>
      <point x="624" y="730" type="curve"/>
      <point x="440" y="686"/>
      <point x="352" y="642"/>
      <point x="338" y="544" type="curve" smooth="yes"/>
      <point x="260" y="-38" type="line"/>
      <point x="-10" y="-38" type="line"/>
      <point x="-40" y="-210" type="line"/>
      <point x="46" y="-242"/>
      <point x="194" y="-266"/>
      <point x="282" y="-266" type="curve" smooth="yes"/>
      <point x="410" y="-266"/>
      <point x="534" y="-188"/>
      <point x="560" y="-10" type="curve" smooth="yes"/>
      <point x="632" y="494" type="line" smooth="yes"/>
      <point x="640" y="552"/>
      <point x="696" y="576"/>
      <point x="882" y="618" type="curve"/>
      <point x="914" y="816" type="line"/>
      <point x="824" y="836"/>
      <point x="692" y="876"/>
      <point x="702" y="948" type="curve" smooth="yes"/>
      <point x="784" y="1594" type="line" smooth="yes"/>
      <point x="798" y="1704"/>
      <point x="730" y="1770"/>
    </contour>
  </outline>
</glyph>
<glyph name="asciitilde" format="2">
  <advance width="1110"/>
  <unicode hex="007E"/>
  <note>
asciitilde
</note>
  <outline>
    <contour>
      <point x="786" y="656" type="curve" smooth="yes"/>
      <point x="922" y="656"/>
      <point x="1080" y="766"/>
      <point x="1110" y="880" type="curve"/>
      <point x="978" y="1016" type="line"/>
      <point x="928" y="946"/>
      <point x="870" y="912"/>
      <point x="800" y="912" type="curve" smooth="yes"/>
      <point x="750" y="912"/>
      <point x="712" y="934"/>
      <point x="646" y="984" type="curve"/>
      <point x="576" y="1032"/>
      <point x="504" y="1080"/>
      <point x="408" y="1080" type="curve" smooth="yes"/>
      <point x="278" y="1080"/>
      <point x="104" y="970"/>
      <point x="74" y="866" type="curve"/>
      <point x="218" y="728" type="line"/>
      <point x="274" y="798"/>
      <point x="330" y="834"/>
      <point x="386" y="834" type="curve" smooth="yes"/>
      <point x="448" y="834"/>
      <point x="486" y="808"/>
      <point x="556" y="754" type="curve" smooth="yes"/>
      <point x="622" y="702"/>
      <point x="690" y="656"/>
    </contour>
  </outline>
</glyph>
<glyph name="exclamdown" format="2">
  <advance width="670"/>
  <unicode hex="00A1"/>
  <note>
exclamdown
</note>
  <outline>
    <contour>
      <point x="18" y="-424" type="line"/>
      <point x="374" y="-424" type="line"/>
      <point x="506" y="836" type="line"/>
      <point x="254" y="836" type="line"/>
    </contour>
    <contour>
      <point x="408" y="982" type="curve" smooth="yes"/>
      <point x="526" y="982"/>
      <point x="610" y="1080"/>
      <point x="610" y="1192" type="curve" smooth="yes"/>
      <point x="610" y="1280"/>
      <point x="552" y="1340"/>
      <point x="458" y="1340" type="curve" smooth="yes"/>
      <point x="334" y="1340"/>
      <point x="250" y="1256"/>
      <point x="250" y="1128" type="curve" smooth="yes"/>
      <point x="250" y="1042"/>
      <point x="298" y="982"/>
    </contour>
  </outline>
</glyph>
<glyph name="cent" format="2">
  <advance width="1052"/>
  <unicode hex="00A2"/>
  <note>
cent
</note>
  <outline>
    <contour>
      <point x="288" y="-268" type="line"/>
      <point x="522" y="-268" type="line"/>
      <point x="568" y="-10" type="line"/>
      <point x="730" y="8"/>
      <point x="846" y="92"/>
      <point x="904" y="180" type="curve"/>
      <point x="816" y="348" type="line"/>
      <point x="768" y="296"/>
      <point x="664" y="236"/>
      <point x="586" y="236" type="curve" smooth="yes"/>
      <point x="472" y="236"/>
      <point x="444" y="328"/>
      <point x="444" y="486" type="curve" smooth="yes"/>
      <point x="444" y="666"/>
      <point x="522" y="858"/>
      <point x="668" y="858" type="curve" smooth="yes"/>
      <point x="734" y="858"/>
      <point x="824" y="792"/>
      <point x="864" y="752" type="curve"/>
      <point x="948" y="1086" type="line"/>
      <point x="910" y="1102"/>
      <point x="856" y="1114"/>
      <point x="784" y="1124" type="curve"/>
      <point x="846" y="1394" type="line"/>
      <point x="612" y="1394" type="line"/>
      <point x="548" y="1112" type="line"/>
      <point x="258" y="1038"/>
      <point x="88" y="758"/>
      <point x="88" y="432" type="curve" smooth="yes"/>
      <point x="88" y="242"/>
      <point x="168" y="72"/>
      <point x="338" y="10" type="curve"/>
    </contour>
  </outline>
</glyph>
<glyph name="sterling" format="2">
  <advance width="1456"/>
  <unicode hex="00A3"/>
  <note>
sterling
</note>
  <outline>
    <contour>
      <point x="118" y="-20" type="curve" smooth="yes"/>
      <point x="188" y="-20"/>
      <point x="278" y="22"/>
      <point x="328" y="84" type="curve"/>
      <point x="520" y="62"/>
      <point x="668" y="-20"/>
      <point x="936" y="-20" type="curve" smooth="yes"/>
      <point x="1302" y="-20"/>
      <point x="1406" y="160"/>
      <point x="1406" y="368" type="curve" smooth="yes"/>
      <point x="1406" y="470"/>
      <point x="1336" y="608"/>
      <point x="1240" y="652" type="curve"/>
      <point x="1036" y="486" type="line"/>
      <point x="1064" y="472"/>
      <point x="1106" y="416"/>
      <point x="1106" y="372" type="curve" smooth="yes"/>
      <point x="1106" y="284"/>
      <point x="1016" y="230"/>
      <point x="854" y="230" type="curve" smooth="yes"/>
      <point x="760" y="230"/>
      <point x="610" y="258"/>
      <point x="540" y="280" type="curve"/>
      <point x="580" y="322"/>
      <point x="622" y="412"/>
      <point x="644" y="534" type="curve" smooth="yes"/>
      <point x="652" y="590"/>
      <point x="662" y="646"/>
      <point x="670" y="702" type="curve"/>
      <point x="978" y="702" type="line"/>
      <point x="1006" y="928" type="line"/>
      <point x="708" y="928" type="line"/>
      <point x="728" y="1050" type="line" smooth="yes"/>
      <point x="754" y="1218"/>
      <point x="820" y="1282"/>
      <point x="940" y="1282" type="curve" smooth="yes"/>
      <point x="1042" y="1282"/>
      <point x="1142" y="1198"/>
      <point x="1158" y="1142" type="curve"/>
      <point x="1326" y="1392" type="line"/>
      <point x="1252" y="1450"/>
      <point x="1144" y="1508"/>
      <point x="922" y="1508" type="curve" smooth="yes"/>
      <point x="640" y="1508"/>
      <point x="448" y="1344"/>
      <point x="400" y="1074" type="curve" smooth="yes"/>
      <point x="376" y="928" type="line"/>
      <point x="200" y="928" type="line"/>
      <point x="172" y="702" type="line"/>
      <point x="336" y="702" type="line"/>
      <point x="296" y="470" type="line" smooth="yes"/>
      <point x="282" y="390"/>
      <point x="256" y="344"/>
      <point x="230" y="310" type="curve"/>
      <point x="104" y="306"/>
      <point x="-38" y="232"/>
      <point x="-38" y="114" type="curve" smooth="yes"/>
      <point x="-38" y="38"/>
      <point x="18" y="-20"/>
    </contour>
  </outline>
</glyph>
<glyph name="currency" format="2">
  <advance width="1500"/>
  <unicode hex="00A4"/>
  <note>
currency
</note>
  <outline>
    <contour>
      <point x="338" y="100" type="line"/>
      <point x="544" y="306" type="line"/>
      <point x="610" y="266"/>
      <point x="684" y="246"/>
      <point x="764" y="246" type="curve" smooth="yes"/>
      <point x="846" y="246"/>
      <point x="922" y="268"/>
      <point x="990" y="310" type="curve"/>
      <point x="1196" y="104" type="line"/>
      <point x="1334" y="242" type="line"/>
      <point x="1128" y="448" type="line"/>
      <point x="1172" y="516"/>
      <point x="1194" y="592"/>
      <point x="1194" y="674" type="curve" smooth="yes"/>
      <point x="1194" y="752"/>
      <point x="1174" y="826"/>
      <point x="1134" y="892" type="curve"/>
      <point x="1336" y="1096" type="line"/>
      <point x="1200" y="1234" type="line"/>
      <point x="998" y="1034" type="line"/>
      <point x="926" y="1080"/>
      <point x="848" y="1102"/>
      <point x="764" y="1102" type="curve" smooth="yes"/>
      <point x="684" y="1102"/>
      <point x="610" y="1082"/>
      <point x="540" y="1040" type="curve"/>
      <point x="334" y="1248" type="line"/>
      <point x="196" y="1108" type="line"/>
      <point x="402" y="904" type="line"/>
      <point x="356" y="834"/>
      <point x="334" y="758"/>
      <point x="334" y="674" type="curve" smooth="yes"/>
      <point x="334" y="588"/>
      <point x="358" y="508"/>
      <point x="404" y="442" type="curve"/>
      <point x="200" y="238" type="line"/>
    </contour>
    <contour>
      <point x="764" y="462" type="curve" smooth="yes"/>
      <point x="652" y="462"/>
      <point x="562" y="560"/>
      <point x="562" y="674" type="curve" smooth="yes"/>
      <point x="562" y="788"/>
      <point x="652" y="884"/>
      <point x="764" y="884" type="curve" smooth="yes"/>
      <point x="876" y="884"/>
      <point x="964" y="790"/>
      <point x="964" y="674" type="curve" smooth="yes"/>
      <point x="964" y="560"/>
      <point x="876" y="462"/>
    </contour>
  </outline>
</glyph>
<glyph name="yen" format="2">
  <advance width="1544"/>
  <unicode hex="00A5"/>
  <note>
yen
</note>
  <outline>
    <contour>
      <point x="504" y="0" type="line"/>
      <point x="862" y="0" type="line"/>
      <point x="906" y="316" type="line"/>
      <point x="1316" y="316" type="line"/>
      <point x="1332" y="494" type="line"/>
      <point x="930" y="494" type="line"/>
      <point x="956" y="664" type="line"/>
      <point x="1356" y="664" type="line"/>
      <point x="1374" y="842" type="line"/>
      <point x="1078" y="842" type="line"/>
      <point x="1528" y="1494" type="line"/>
      <point x="1116" y="1494" type="line"/>
      <point x="846" y="948" type="line"/>
      <point x="802" y="842" type="line"/>
      <point x="774" y="948" type="line"/>
      <point x="612" y="1494" type="line"/>
      <point x="264" y="1494" type="line"/>
      <point x="518" y="842" type="line"/>
      <point x="208" y="842" type="line"/>
      <point x="188" y="664" type="line"/>
      <point x="588" y="664" type="line"/>
      <point x="566" y="494" type="line"/>
      <point x="168" y="494" type="line"/>
      <point x="150" y="316" type="line"/>
      <point x="544" y="316" type="line"/>
    </contour>
  </outline>
</glyph>
<glyph name="brokenbar" format="2">
  <advance width="834"/>
  <unicode hex="00A6"/>
  <note>
brokenbar
</note>
  <outline>
    <contour>
      <point x="312" y="-182" type="line"/>
      <point x="560" y="-182" type="line"/>
      <point x="560" y="662" type="line"/>
      <point x="312" y="662" type="line"/>
    </contour>
    <contour>
      <point x="312" y="894" type="line"/>
      <point x="560" y="894" type="line"/>
      <point x="560" y="1738" type="line"/>
      <point x="312" y="1738" type="line"/>
    </contour>
  </outline>
</glyph>
<glyph name="section" format="2">
  <advance width="1372"/>
  <unicode hex="00A7"/>
  <outline>
    <contour>
      <point x="314" y="1294" type="curve" smooth="yes"/>
      <point x="254" y="870"/>
      <point x="946" y="908"/>
      <point x="906" y="620" type="curve" smooth="yes"/>
      <point x="894" y="538"/>
      <point x="788" y="396"/>
      <point x="740" y="344" type="curve"/>
      <point x="862" y="298" type="line"/>
      <point x="1038" y="390"/>
      <point x="1178" y="518"/>
      <point x="1202" y="690" type="curve" smooth="yes"/>
      <point x="1260" y="1104"/>
      <point x="622" y="1114"/>
      <point x="646" y="1282" type="curve" smooth="yes"/>
      <point x="658" y="1358"/>
      <point x="734" y="1382"/>
      <point x="826" y="1382" type="curve" smooth="yes"/>
      <point x="986" y="1384"/>
      <point x="1068" y="1332"/>
      <point x="1104" y="1302" type="curve"/>
      <point x="1190" y="1562" type="line"/>
      <point x="1134" y="1596"/>
      <point x="1018" y="1634"/>
      <point x="830" y="1634" type="curve" smooth="yes"/>
      <point x="596" y="1634"/>
      <point x="348" y="1532"/>
    </contour>
    <contour>
      <point x="1074" y="176" type="curve" smooth="yes"/>
      <point x="1136" y="618"/>
      <point x="440" y="538"/>
      <point x="478" y="808" type="curve" smooth="yes"/>
      <point x="490" y="890"/>
      <point x="590" y="984"/>
      <point x="636" y="1036" type="curve"/>
      <point x="500" y="1094" type="line"/>
      <point x="330" y="1012"/>
      <point x="196" y="890"/>
      <point x="174" y="734" type="curve" smooth="yes"/>
      <point x="116" y="318"/>
      <point x="762" y="334"/>
      <point x="738" y="174" type="curve" smooth="yes"/>
      <point x="728" y="96"/>
      <point x="646" y="68"/>
      <point x="548" y="66" type="curve" smooth="yes"/>
      <point x="384" y="66"/>
      <point x="272" y="126"/>
      <point x="230" y="164" type="curve"/>
      <point x="142" y="-98" type="line"/>
      <point x="198" y="-140"/>
      <point x="356" y="-188"/>
      <point x="542" y="-188" type="curve" smooth="yes"/>
      <point x="780" y="-188"/>
      <point x="1036" y="-82"/>
    </contour>
  </outline>
</glyph>
<glyph name="dieresis" format="2">
  <advance width="798"/>
  <unicode hex="00A8"/>
  <note>
dieresis
</note>
  <outline>
    <contour>
      <point x="600" y="1306" type="curve" smooth="yes"/>
      <point x="722" y="1306"/>
      <point x="788" y="1390"/>
      <point x="788" y="1508" type="curve" smooth="yes"/>
      <point x="788" y="1588"/>
      <point x="720" y="1662"/>
      <point x="632" y="1662" type="curve" smooth="yes"/>
      <point x="526" y="1662"/>
      <point x="456" y="1574"/>
      <point x="456" y="1466" type="curve" smooth="yes"/>
      <point x="456" y="1386"/>
      <point x="524" y="1306"/>
    </contour>
    <contour>
      <point x="140" y="1306" type="curve" smooth="yes"/>
      <point x="262" y="1306"/>
      <point x="324" y="1388"/>
      <point x="324" y="1508" type="curve" smooth="yes"/>
      <point x="324" y="1588"/>
      <point x="258" y="1662"/>
      <point x="172" y="1662" type="curve" smooth="yes"/>
      <point x="66" y="1662"/>
      <point x="-6" y="1576"/>
      <point x="-6" y="1466" type="curve" smooth="yes"/>
      <point x="-6" y="1388"/>
      <point x="62" y="1306"/>
    </contour>
  </outline>
</glyph>
<glyph name="copyright" format="2">
  <advance width="2042"/>
  <unicode hex="00A9"/>
  <outline>
    <contour>
      <point x="170" y="940" type="curve" smooth="yes"/>
      <point x="170" y="464"/>
      <point x="546" y="82"/>
      <point x="1020" y="82" type="curve" smooth="yes"/>
      <point x="1496" y="82"/>
      <point x="1872" y="464"/>
      <point x="1872" y="940" type="curve" smooth="yes"/>
      <point x="1872" y="1416"/>
      <point x="1496" y="1794"/>
      <point x="1020" y="1794" type="curve" smooth="yes"/>
      <point x="546" y="1794"/>
      <point x="170" y="1416"/>
    </contour>
    <contour>
      <point x="310" y="940" type="curve" smooth="yes"/>
      <point x="310" y="1344"/>
      <point x="612" y="1672"/>
      <point x="1020" y="1672" type="curve" smooth="yes"/>
      <point x="1430" y="1672"/>
      <point x="1732" y="1344"/>
      <point x="1732" y="940" type="curve" smooth="yes"/>
      <point x="1732" y="536"/>
      <point x="1430" y="208"/>
      <point x="1020" y="208" type="curve" smooth="yes"/>
      <point x="612" y="208"/>
      <point x="310" y="536"/>
    </contour>
    <contour>
      <point x="584" y="932" type="curve" smooth="yes"/>
      <point x="586" y="678"/>
      <point x="758" y="460"/>
      <point x="1026" y="460" type="curve" smooth="yes"/>
      <point x="1156" y="460"/>
      <point x="1276" y="508"/>
      <point x="1336" y="560" type="curve"/>
      <point x="1292" y="730" type="line"/>
      <point x="1254" y="702"/>
      <point x="1178" y="668"/>
      <point x="1074" y="668" type="curve" smooth="yes"/>
      <point x="932" y="668"/>
      <point x="828" y="752"/>
      <point x="830" y="968" type="curve" smooth="yes"/>
      <point x="832" y="1120"/>
      <point x="930" y="1220"/>
      <point x="1072" y="1220" type="curve" smooth="yes"/>
      <point x="1152" y="1220"/>
      <point x="1240" y="1196"/>
      <point x="1280" y="1166" type="curve"/>
      <point x="1316" y="1368" type="line"/>
      <point x="1276" y="1390"/>
      <point x="1178" y="1420"/>
      <point x="1068" y="1420" type="curve" smooth="yes"/>
      <point x="750" y="1420"/>
      <point x="584" y="1208"/>
    </contour>
  </outline>
</glyph>
<glyph name="ordfeminine" format="2">
  <advance width="940"/>
  <unicode hex="00AA"/>
  <note>
ordfeminine
</note>
  <outline>
    <contour>
      <point x="346" y="708" type="curve" smooth="yes"/>
      <point x="458" y="708"/>
      <point x="562" y="770"/>
      <point x="650" y="860" type="curve"/>
      <point x="656" y="708" type="line"/>
      <point x="870" y="708" type="line"/>
      <point x="1026" y="1536" type="line"/>
      <point x="870" y="1510" type="line"/>
      <point x="816" y="1526"/>
      <point x="738" y="1540"/>
      <point x="676" y="1540" type="curve" smooth="yes"/>
      <point x="454" y="1540"/>
      <point x="268" y="1428"/>
      <point x="166" y="1256" type="curve" smooth="yes"/>
      <point x="116" y="1170"/>
      <point x="90" y="1076"/>
      <point x="90" y="974" type="curve" smooth="yes"/>
      <point x="90" y="812"/>
      <point x="184" y="708"/>
    </contour>
    <contour>
      <point x="462" y="894" type="curve" smooth="yes"/>
      <point x="400" y="894"/>
      <point x="382" y="928"/>
      <point x="382" y="1006" type="curve" smooth="yes"/>
      <point x="382" y="1108"/>
      <point x="422" y="1244"/>
      <point x="510" y="1332" type="curve" smooth="yes"/>
      <point x="552" y="1376"/>
      <point x="606" y="1398"/>
      <point x="670" y="1398" type="curve" smooth="yes"/>
      <point x="688" y="1398"/>
      <point x="704" y="1396"/>
      <point x="718" y="1392" type="curve"/>
      <point x="632" y="1006" type="line"/>
      <point x="574" y="940"/>
      <point x="512" y="894"/>
    </contour>
  </outline>
</glyph>
<glyph name="logicalnot" format="2">
  <advance width="1338"/>
  <unicode hex="00AC"/>
  <note>
logicalnot
</note>
  <outline>
    <contour>
      <point x="848" y="314" type="line"/>
      <point x="1100" y="314" type="line"/>
      <point x="1160" y="834" type="line"/>
      <point x="222" y="834" type="line"/>
      <point x="198" y="612" type="line"/>
      <point x="884" y="612" type="line"/>
    </contour>
  </outline>
</glyph>
<glyph name="registered" format="2">
  <advance width="2042"/>
  <unicode hex="00AE"/>
  <outline>
    <contour>
      <point x="166" y="940" type="curve" smooth="yes"/>
      <point x="166" y="464"/>
      <point x="546" y="82"/>
      <point x="1020" y="82" type="curve" smooth="yes"/>
      <point x="1496" y="82"/>
      <point x="1876" y="464"/>
      <point x="1876" y="940" type="curve" smooth="yes"/>
      <point x="1876" y="1414"/>
      <point x="1496" y="1794"/>
      <point x="1020" y="1794" type="curve" smooth="yes"/>
      <point x="546" y="1794"/>
      <point x="166" y="1414"/>
    </contour>
    <contour>
      <point x="306" y="940" type="curve" smooth="yes"/>
      <point x="306" y="1342"/>
      <point x="616" y="1670"/>
      <point x="1020" y="1670" type="curve" smooth="yes"/>
      <point x="1426" y="1670"/>
      <point x="1736" y="1342"/>
      <point x="1736" y="940" type="curve" smooth="yes"/>
      <point x="1736" y="536"/>
      <point x="1426" y="208"/>
      <point x="1020" y="208" type="curve" smooth="yes"/>
      <point x="616" y="208"/>
      <point x="306" y="536"/>
    </contour>
    <contour>
      <point x="684" y="474" type="line"/>
      <point x="904" y="474" type="line"/>
      <point x="904" y="814" type="line"/>
      <point x="926" y="814"/>
      <point x="980" y="814"/>
      <point x="992" y="816" type="curve"/>
      <point x="1084" y="776"/>
      <point x="1122" y="638"/>
      <point x="1160" y="560" type="curve" smooth="yes"/>
      <point x="1178" y="524"/>
      <point x="1188" y="498"/>
      <point x="1208" y="476" type="curve"/>
      <point x="1458" y="476" type="line"/>
      <point x="1422" y="520"/>
      <point x="1410" y="542"/>
      <point x="1392" y="572" type="curve" smooth="yes"/>
      <point x="1336" y="666"/>
      <point x="1304" y="784"/>
      <point x="1206" y="840" type="curve"/>
      <point x="1348" y="880"/>
      <point x="1394" y="1008"/>
      <point x="1394" y="1152" type="curve" smooth="yes"/>
      <point x="1394" y="1306"/>
      <point x="1276" y="1420"/>
      <point x="1036" y="1420" type="curve" smooth="yes"/>
      <point x="908" y="1420"/>
      <point x="860" y="1416"/>
      <point x="778" y="1416" type="curve" smooth="yes"/>
      <point x="746" y="1416"/>
      <point x="716" y="1416"/>
      <point x="684" y="1416" type="curve"/>
    </contour>
    <contour>
      <point x="904" y="974" type="curve"/>
      <point x="904" y="1250" type="line"/>
      <point x="938" y="1260"/>
      <point x="966" y="1260"/>
      <point x="1002" y="1260" type="curve" smooth="yes"/>
      <point x="1128" y="1262"/>
      <point x="1174" y="1212"/>
      <point x="1174" y="1124" type="curve" smooth="yes"/>
      <point x="1174" y="1020"/>
      <point x="1120" y="968"/>
      <point x="1020" y="968" type="curve" smooth="yes"/>
      <point x="984" y="968"/>
      <point x="932" y="968"/>
    </contour>
  </outline>
</glyph>
<glyph name="macron" format="2">
  <advance width="606"/>
  <unicode hex="00AF"/>
  <note>
macron
</note>
  <outline>
    <contour>
      <point x="16" y="1362" type="line"/>
      <point x="598" y="1362" type="line"/>
      <point x="616" y="1576" type="line"/>
      <point x="34" y="1576" type="line"/>
    </contour>
  </outline>
</glyph>
<glyph name="degree" format="2">
  <advance width="934"/>
  <unicode hex="00B0"/>
  <note>
degree
</note>
  <outline>
    <contour>
      <point x="548" y="894" type="curve" smooth="yes"/>
      <point x="690" y="894"/>
      <point x="808" y="960"/>
      <point x="872" y="1070" type="curve" smooth="yes"/>
      <point x="904" y="1124"/>
      <point x="920" y="1186"/>
      <point x="920" y="1252" type="curve" smooth="yes"/>
      <point x="920" y="1378"/>
      <point x="856" y="1488"/>
      <point x="748" y="1550" type="curve" smooth="yes"/>
      <point x="694" y="1580"/>
      <point x="634" y="1596"/>
      <point x="570" y="1596" type="curve" smooth="yes"/>
      <point x="428" y="1596"/>
      <point x="312" y="1530"/>
      <point x="250" y="1420" type="curve" smooth="yes"/>
      <point x="218" y="1366"/>
      <point x="202" y="1304"/>
      <point x="202" y="1238" type="curve" smooth="yes"/>
      <point x="202" y="1112"/>
      <point x="266" y="1002"/>
      <point x="372" y="940" type="curve" smooth="yes"/>
      <point x="426" y="910"/>
      <point x="484" y="894"/>
    </contour>
    <contour>
      <point x="556" y="1076" type="curve" smooth="yes"/>
      <point x="470" y="1076"/>
      <point x="400" y="1152"/>
      <point x="400" y="1242" type="curve" smooth="yes"/>
      <point x="400" y="1340"/>
      <point x="468" y="1416"/>
      <point x="564" y="1416" type="curve" smooth="yes"/>
      <point x="650" y="1416"/>
      <point x="720" y="1340"/>
      <point x="720" y="1250" type="curve" smooth="yes"/>
      <point x="720" y="1152"/>
      <point x="652" y="1076"/>
    </contour>
  </outline>
</glyph>
<glyph name="plusminus" format="2">
  <advance width="1324"/>
  <unicode hex="00B1"/>
  <note>
plusminus
</note>
  <outline>
    <contour>
      <point x="486" y="244" type="line"/>
      <point x="752" y="244" type="line"/>
      <point x="786" y="514" type="line"/>
      <point x="792" y="646" type="line"/>
      <point x="886" y="638" type="line"/>
      <point x="1154" y="638" type="line"/>
      <point x="1188" y="896" type="line"/>
      <point x="918" y="896" type="line"/>
      <point x="824" y="886" type="line"/>
      <point x="848" y="1020" type="line"/>
      <point x="874" y="1292" type="line"/>
      <point x="608" y="1292" type="line"/>
      <point x="578" y="1020" type="line"/>
      <point x="570" y="884" type="line"/>
      <point x="456" y="896" type="line"/>
      <point x="212" y="896" type="line"/>
      <point x="178" y="638" type="line"/>
      <point x="420" y="638" type="line"/>
      <point x="542" y="646" type="line"/>
      <point x="518" y="514" type="line"/>
    </contour>
    <contour>
      <point x="160" y="0" type="line"/>
      <point x="1044" y="0" type="line"/>
      <point x="1060" y="202" type="line"/>
      <point x="176" y="202" type="line"/>
    </contour>
  </outline>
</glyph>
<glyph name="acute" format="2">
  <advance width="552"/>
  <unicode hex="00B4"/>
  <note>
acute
</note>
  <outline>
    <contour>
      <point x="140" y="1198" type="line"/>
      <point x="236" y="1232"/>
      <point x="512" y="1460"/>
      <point x="548" y="1538" type="curve"/>
      <point x="344" y="1732" type="line"/>
      <point x="18" y="1294" type="line"/>
    </contour>
  </outline>
</glyph>
<glyph name="micro" format="2">
  <advance width="1332"/>
  <unicode hex="00B5"/>
  <note>
uni00B5
</note>
  <outline>
    <contour>
      <point x="50" y="-364" type="line"/>
      <point x="376" y="-364" type="line"/>
      <point x="440" y="58" type="line"/>
      <point x="466" y="4"/>
      <point x="550" y="-16"/>
      <point x="612" y="-16" type="curve" smooth="yes"/>
      <point x="702" y="-16"/>
      <point x="774" y="26"/>
      <point x="828" y="120" type="curve"/>
      <point x="850" y="16"/>
      <point x="910" y="-18"/>
      <point x="1020" y="-18" type="curve" smooth="yes"/>
      <point x="1170" y="-18"/>
      <point x="1250" y="52"/>
      <point x="1328" y="130" type="curve"/>
      <point x="1252" y="260" type="line"/>
      <point x="1228" y="222"/>
      <point x="1178" y="190"/>
      <point x="1144" y="190" type="curve" smooth="yes"/>
      <point x="1126" y="190"/>
      <point x="1108" y="216"/>
      <point x="1112" y="250" type="curve" smooth="yes"/>
      <point x="1142" y="504"/>
      <point x="1176" y="752"/>
      <point x="1218" y="1114" type="curve"/>
      <point x="876" y="1114" type="line"/>
      <point x="784" y="404" type="line" smooth="yes"/>
      <point x="772" y="312"/>
      <point x="674" y="236"/>
      <point x="612" y="236" type="curve" smooth="yes"/>
      <point x="542" y="236"/>
      <point x="508" y="280"/>
      <point x="508" y="370" type="curve" smooth="yes"/>
      <point x="508" y="414"/>
      <point x="578" y="924"/>
      <point x="578" y="960" type="curve" smooth="yes"/>
      <point x="578" y="1072"/>
      <point x="492" y="1128"/>
      <point x="370" y="1128" type="curve" smooth="yes"/>
      <point x="250" y="1128"/>
      <point x="96" y="1050"/>
      <point x="50" y="1004" type="curve"/>
      <point x="98" y="844" type="line"/>
      <point x="128" y="874"/>
      <point x="150" y="888"/>
      <point x="182" y="888" type="curve" smooth="yes"/>
      <point x="214" y="888"/>
      <point x="218" y="816"/>
      <point x="210" y="782" type="curve" smooth="yes"/>
    </contour>
  </outline>
</glyph>
<glyph name="paragraph" format="2">
  <advance width="1392"/>
  <unicode hex="00B6"/>
  <note>
paragraph
</note>
  <outline>
    <contour>
      <point x="366" y="0" type="line"/>
      <point x="636" y="0" type="line"/>
      <point x="804" y="1292" type="line"/>
      <point x="994" y="1292" type="line"/>
      <point x="826" y="0" type="line"/>
      <point x="1100" y="0" type="line"/>
      <point x="1270" y="1296" type="line"/>
      <point x="1434" y="1328" type="line"/>
      <point x="1458" y="1516" type="line"/>
      <point x="1118" y="1516" type="line" smooth="yes"/>
      <point x="1044" y="1516"/>
      <point x="852" y="1534"/>
      <point x="734" y="1534" type="curve" smooth="yes"/>
      <point x="368" y="1534"/>
      <point x="112" y="1384"/>
      <point x="112" y="1060" type="curve" smooth="yes"/>
      <point x="112" y="840"/>
      <point x="252" y="668"/>
      <point x="466" y="662" type="curve"/>
    </contour>
  </outline>
</glyph>
<glyph name="cedilla" format="2">
  <unicode hex="00B8"/>
  <note>
cedilla
</note>
  <outline>
    <contour>
      <point x="194" y="-460" type="curve" smooth="yes"/>
      <point x="358" y="-460"/>
      <point x="466" y="-370"/>
      <point x="466" y="-188" type="curve" smooth="yes"/>
      <point x="466" y="-78"/>
      <point x="430" y="-8"/>
      <point x="404" y="30" type="curve"/>
      <point x="304" y="34" type="line"/>
      <point x="262" y="30" type="line"/>
      <point x="270" y="2"/>
      <point x="284" y="-24"/>
      <point x="284" y="-98" type="curve" smooth="yes"/>
      <point x="284" y="-188"/>
      <point x="210" y="-244"/>
      <point x="132" y="-244" type="curve" smooth="yes"/>
      <point x="56" y="-244"/>
      <point x="0" y="-226"/>
      <point x="-18" y="-218" type="curve"/>
      <point x="-54" y="-416" type="line"/>
      <point x="-32" y="-430"/>
      <point x="68" y="-460"/>
    </contour>
  </outline>
</glyph>
<glyph name="ordmasculine" format="2">
  <advance width="928"/>
  <unicode hex="00BA"/>
  <note>
ordmasculine
</note>
  <outline>
    <contour>
      <point x="456" y="700" type="curve" smooth="yes"/>
      <point x="758" y="700"/>
      <point x="980" y="890"/>
      <point x="980" y="1206" type="curve" smooth="yes"/>
      <point x="980" y="1418"/>
      <point x="842" y="1552"/>
      <point x="612" y="1552" type="curve" smooth="yes"/>
      <point x="326" y="1552"/>
      <point x="98" y="1346"/>
      <point x="98" y="1046" type="curve" smooth="yes"/>
      <point x="98" y="840"/>
      <point x="250" y="700"/>
    </contour>
    <contour>
      <point x="484" y="864" type="curve" smooth="yes"/>
      <point x="412" y="864"/>
      <point x="380" y="954"/>
      <point x="380" y="1074" type="curve" smooth="yes"/>
      <point x="380" y="1230"/>
      <point x="460" y="1394"/>
      <point x="586" y="1394" type="curve" smooth="yes"/>
      <point x="666" y="1394"/>
      <point x="694" y="1342"/>
      <point x="694" y="1216" type="curve" smooth="yes"/>
      <point x="694" y="1038"/>
      <point x="642" y="864"/>
    </contour>
  </outline>
</glyph>
<glyph name="guillemetright" format="2">
  <advance width="1964"/>
  <unicode hex="00BB"/>
  <note>
guillemotright
</note>
  <outline>
    <contour>
      <point x="1066" y="120" type="line"/>
      <point x="1790" y="506" type="line"/>
      <point x="1822" y="692" type="line"/>
      <point x="1180" y="1080" type="line"/>
      <point x="1074" y="912" type="line"/>
      <point x="1430" y="618" type="line"/>
      <point x="1010" y="320" type="line"/>
    </contour>
    <contour>
      <point x="278" y="120" type="line"/>
      <point x="1004" y="506" type="line"/>
      <point x="1034" y="692" type="line"/>
      <point x="394" y="1080" type="line"/>
      <point x="286" y="912" type="line"/>
      <point x="642" y="618" type="line"/>
      <point x="222" y="320" type="line"/>
    </contour>
  </outline>
</glyph>
<glyph name="questiondown" format="2">
  <advance width="930"/>
  <unicode hex="00BF"/>
  <note>
questiondown
</note>
  <outline>
    <contour>
      <point x="798" y="812" type="curve"/>
      <point x="598" y="808" type="line"/>
      <point x="604" y="792"/>
      <point x="614" y="742"/>
      <point x="614" y="700" type="curve" smooth="yes"/>
      <point x="614" y="578"/>
      <point x="434" y="444"/>
      <point x="320" y="384" type="curve" smooth="yes"/>
      <point x="94" y="264"/>
      <point x="8" y="138"/>
      <point x="8" y="-18" type="curve" smooth="yes"/>
      <point x="8" y="-304"/>
      <point x="234" y="-414"/>
      <point x="556" y="-414" type="curve" smooth="yes"/>
      <point x="634" y="-414"/>
      <point x="732" y="-392"/>
      <point x="766" y="-362" type="curve"/>
      <point x="820" y="-138" type="line"/>
      <point x="760" y="-152"/>
      <point x="692" y="-160"/>
      <point x="618" y="-160" type="curve" smooth="yes"/>
      <point x="424" y="-160"/>
      <point x="320" y="-88"/>
      <point x="320" y="6" type="curve" smooth="yes"/>
      <point x="320" y="162"/>
      <point x="512" y="228"/>
      <point x="698" y="394" type="curve" smooth="yes"/>
      <point x="768" y="456"/>
      <point x="844" y="536"/>
      <point x="844" y="632" type="curve" smooth="yes"/>
      <point x="844" y="718"/>
      <point x="828" y="762"/>
    </contour>
    <contour>
      <point x="718" y="1340" type="curve" smooth="yes"/>
      <point x="592" y="1340"/>
      <point x="510" y="1254"/>
      <point x="510" y="1128" type="curve" smooth="yes"/>
      <point x="510" y="1040"/>
      <point x="558" y="982"/>
      <point x="668" y="982" type="curve" smooth="yes"/>
      <point x="788" y="982"/>
      <point x="870" y="1078"/>
      <point x="870" y="1192" type="curve" smooth="yes"/>
      <point x="870" y="1280"/>
      <point x="812" y="1340"/>
    </contour>
  </outline>
</glyph>
<glyph name="AE" format="2">
  <advance width="1938"/>
  <unicode hex="00C6"/>
  <note>
AE
</note>
  <anchor x="896" y="0" name="bottom"/>
  <anchor x="1094" y="1494" name="top"/>
  <outline>
    <contour>
      <point x="-118" y="0" type="line"/>
      <point x="264" y="0" type="line"/>
      <point x="418" y="290" type="line"/>
      <point x="874" y="290" type="line"/>
      <point x="832" y="0" type="line"/>
      <point x="1798" y="0" type="line"/>
      <point x="1834" y="274" type="line"/>
      <point x="1216" y="264" type="line"/>
      <point x="1270" y="642" type="line"/>
      <point x="1680" y="634" type="line"/>
      <point x="1716" y="904" type="line"/>
      <point x="1306" y="898" type="line"/>
      <point x="1354" y="1228" type="line"/>
      <point x="1902" y="1226" type="line"/>
      <point x="1938" y="1494" type="line"/>
      <point x="418" y="1494" type="line"/>
      <point x="390" y="1328" type="line"/>
      <point x="626" y="1296" type="line"/>
    </contour>
    <contour>
      <point x="550" y="534" type="line"/>
      <point x="932" y="1248" type="line"/>
      <point x="1010" y="1240" type="line"/>
      <point x="908" y="534" type="line"/>
    </contour>
  </outline>
</glyph>
<glyph name="multiply" format="2">
  <advance width="1364"/>
  <unicode hex="00D7"/>
  <note>
multiply
</note>
  <outline>
    <contour>
      <point x="332" y="242" type="line"/>
      <point x="694" y="594" type="line"/>
      <point x="986" y="242" type="line"/>
      <point x="1190" y="422" type="line"/>
      <point x="876" y="750" type="line"/>
      <point x="1260" y="1080" type="line"/>
      <point x="1090" y="1282" type="line"/>
      <point x="720" y="928" type="line"/>
      <point x="436" y="1282" type="line"/>
      <point x="232" y="1100" type="line"/>
      <point x="538" y="772" type="line"/>
      <point x="162" y="444" type="line"/>
    </contour>
  </outline>
</glyph>
<glyph name="Oslash" format="2">
  <advance width="1360"/>
  <unicode hex="00D8"/>
  <note>
Oslash
</note>
  <anchor x="798" y="1494" name="top"/>
  <outline>
    <contour>
      <point x="224" y="-128" type="line"/>
      <point x="334" y="48" type="line"/>
      <point x="412" y="6"/>
      <point x="502" y="-14"/>
      <point x="604" y="-14" type="curve" smooth="yes"/>
      <point x="898" y="-14"/>
      <point x="1126" y="168"/>
      <point x="1244" y="454" type="curve" smooth="yes"/>
      <point x="1302" y="596"/>
      <point x="1332" y="754"/>
      <point x="1332" y="926" type="curve" smooth="yes"/>
      <point x="1332" y="1112"/>
      <point x="1270" y="1278"/>
      <point x="1156" y="1384" type="curve"/>
      <point x="1270" y="1584" type="line"/>
      <point x="1182" y="1630" type="line"/>
      <point x="1076" y="1444" type="line"/>
      <point x="998" y="1490"/>
      <point x="908" y="1512"/>
      <point x="802" y="1512" type="curve" smooth="yes"/>
      <point x="504" y="1512"/>
      <point x="274" y="1328"/>
      <point x="154" y="1040" type="curve" smooth="yes"/>
      <point x="94" y="896"/>
      <point x="64" y="738"/>
      <point x="64" y="566" type="curve" smooth="yes"/>
      <point x="64" y="374"/>
      <point x="128" y="206"/>
      <point x="254" y="102" type="curve"/>
      <point x="138" y="-82" type="line"/>
    </contour>
    <contour>
      <point x="630" y="246" type="curve" smooth="yes"/>
      <point x="574" y="246"/>
      <point x="530" y="260"/>
      <point x="500" y="290" type="curve"/>
      <point x="958" y="1096" type="line"/>
      <point x="970" y="1050"/>
      <point x="976" y="990"/>
      <point x="976" y="916" type="curve" smooth="yes"/>
      <point x="976" y="702"/>
      <point x="918" y="480"/>
      <point x="814" y="346" type="curve" smooth="yes"/>
      <point x="760" y="280"/>
      <point x="700" y="246"/>
    </contour>
    <contour>
      <point x="444" y="386" type="line"/>
      <point x="428" y="436"/>
      <point x="420" y="502"/>
      <point x="420" y="584" type="curve" smooth="yes"/>
      <point x="420" y="790"/>
      <point x="478" y="1014"/>
      <point x="584" y="1150" type="curve" smooth="yes"/>
      <point x="636" y="1218"/>
      <point x="696" y="1252"/>
      <point x="764" y="1252" type="curve" smooth="yes"/>
      <point x="826" y="1252"/>
      <point x="874" y="1236"/>
      <point x="906" y="1202" type="curve"/>
    </contour>
  </outline>
</glyph>
<glyph name="Thorn" format="2">
  <advance width="1276"/>
  <unicode hex="00DE"/>
  <note>
Thorn
</note>
  <outline>
    <contour>
      <point x="74" y="0" type="line"/>
      <point x="426" y="0" type="line"/>
      <point x="464" y="264" type="line"/>
      <point x="494" y="264"/>
      <point x="574" y="252"/>
      <point x="616" y="252" type="curve" smooth="yes"/>
      <point x="882" y="252"/>
      <point x="1082" y="366"/>
      <point x="1182" y="544" type="curve" smooth="yes"/>
      <point x="1232" y="634"/>
      <point x="1256" y="732"/>
      <point x="1256" y="840" type="curve" smooth="yes"/>
      <point x="1256" y="1112"/>
      <point x="1070" y="1258"/>
      <point x="732" y="1258" type="curve" smooth="yes"/>
      <point x="690" y="1258"/>
      <point x="648" y="1256"/>
      <point x="602" y="1252" type="curve"/>
      <point x="636" y="1494" type="line"/>
      <point x="284" y="1494" type="line"/>
    </contour>
    <contour>
      <point x="622" y="510" type="curve" smooth="yes"/>
      <point x="574" y="510"/>
      <point x="524" y="514"/>
      <point x="500" y="522" type="curve"/>
      <point x="570" y="1016" type="line"/>
      <point x="738" y="1016"/>
      <point x="540" y="1018"/>
      <point x="668" y="1018" type="curve" smooth="yes"/>
      <point x="846" y="1018"/>
      <point x="918" y="954"/>
      <point x="918" y="834" type="curve" smooth="yes"/>
      <point x="908" y="626"/>
      <point x="820" y="510"/>
    </contour>
  </outline>
</glyph>
<glyph name="germandbls" format="2">
  <advance width="1300"/>
  <unicode hex="00DF"/>
  <note>
germandbls
</note>
  <outline>
    <contour>
      <point x="792" y="-16" type="curve" smooth="yes"/>
      <point x="1042" y="-16"/>
      <point x="1222" y="100"/>
      <point x="1222" y="332" type="curve" smooth="yes"/>
      <point x="1222" y="454"/>
      <point x="1178" y="528"/>
      <point x="1100" y="632" type="curve" smooth="yes"/>
      <point x="1038" y="718"/>
      <point x="1016" y="764"/>
      <point x="1016" y="810" type="curve" smooth="yes"/>
      <point x="1016" y="860"/>
      <point x="1042" y="890"/>
      <point x="1100" y="944" type="curve" smooth="yes"/>
      <point x="1184" y="1020"/>
      <point x="1248" y="1098"/>
      <point x="1248" y="1252" type="curve" smooth="yes"/>
      <point x="1248" y="1448"/>
      <point x="1078" y="1548"/>
      <point x="846" y="1548" type="curve" smooth="yes"/>
      <point x="436" y="1548"/>
      <point x="240" y="1340"/>
      <point x="178" y="906" type="curve" smooth="yes"/>
      <point x="58" y="0" type="line"/>
      <point x="396" y="0" type="line"/>
      <point x="512" y="846" type="line" smooth="yes"/>
      <point x="540" y="1082"/>
      <point x="616" y="1332"/>
      <point x="796" y="1332" type="curve" smooth="yes"/>
      <point x="876" y="1332"/>
      <point x="928" y="1282"/>
      <point x="928" y="1218" type="curve" smooth="yes"/>
      <point x="928" y="1128"/>
      <point x="884" y="1060"/>
      <point x="796" y="986" type="curve" smooth="yes"/>
      <point x="730" y="916"/>
      <point x="670" y="850"/>
      <point x="670" y="762" type="curve" smooth="yes"/>
      <point x="670" y="688"/>
      <point x="706" y="600"/>
      <point x="782" y="514" type="curve" smooth="yes"/>
      <point x="812" y="480"/>
      <point x="882" y="426"/>
      <point x="882" y="336" type="curve" smooth="yes"/>
      <point x="882" y="256"/>
      <point x="822" y="220"/>
      <point x="728" y="220" type="curve" smooth="yes"/>
      <point x="664" y="220"/>
      <point x="580" y="254"/>
      <point x="550" y="288" type="curve"/>
      <point x="526" y="30" type="line"/>
      <point x="582" y="0"/>
      <point x="670" y="-16"/>
    </contour>
  </outline>
</glyph>
<glyph name="ae" format="2">
  <advance width="1708"/>
  <unicode hex="00E6"/>
  <note>
ae
</note>
  <anchor x="732" y="0" name="bottom"/>
  <anchor x="1042" y="1114" name="top"/>
  <outline>
    <contour>
      <point x="378" y="-16" type="curve" smooth="yes"/>
      <point x="532" y="-16"/>
      <point x="638" y="118"/>
      <point x="712" y="288" type="curve"/>
      <point x="758" y="106"/>
      <point x="892" y="-16"/>
      <point x="1116" y="-16" type="curve" smooth="yes"/>
      <point x="1300" y="-16"/>
      <point x="1508" y="76"/>
      <point x="1608" y="212" type="curve"/>
      <point x="1518" y="380" type="line"/>
      <point x="1464" y="308"/>
      <point x="1314" y="220"/>
      <point x="1202" y="220" type="curve" smooth="yes"/>
      <point x="1096" y="220"/>
      <point x="1062" y="270"/>
      <point x="1062" y="374" type="curve"/>
      <point x="1396" y="460"/>
      <point x="1654" y="586"/>
      <point x="1654" y="872" type="curve" smooth="yes"/>
      <point x="1654" y="1034"/>
      <point x="1546" y="1128"/>
      <point x="1322" y="1128" type="curve" smooth="yes"/>
      <point x="1220" y="1128"/>
      <point x="1126" y="1106"/>
      <point x="1040" y="1064" type="curve"/>
      <point x="976" y="1102"/>
      <point x="880" y="1128"/>
      <point x="782" y="1128" type="curve" smooth="yes"/>
      <point x="392" y="1128"/>
      <point x="60" y="826"/>
      <point x="60" y="402" type="curve" smooth="yes"/>
      <point x="60" y="152"/>
      <point x="148" y="-16"/>
    </contour>
    <contour>
      <point x="500" y="240" type="curve" smooth="yes"/>
      <point x="434" y="240"/>
      <point x="406" y="316"/>
      <point x="406" y="402" type="curve" smooth="yes"/>
      <point x="406" y="644"/>
      <point x="522" y="924"/>
      <point x="758" y="924" type="curve" smooth="yes"/>
      <point x="790" y="924"/>
      <point x="820" y="920"/>
      <point x="850" y="912" type="curve"/>
      <point x="772" y="818"/>
      <point x="722" y="702"/>
      <point x="702" y="564" type="curve"/>
      <point x="678" y="442"/>
      <point x="578" y="240"/>
    </contour>
    <contour>
      <point x="1056" y="548" type="curve"/>
      <point x="1058" y="624"/>
      <point x="1082" y="754"/>
      <point x="1132" y="844" type="curve" smooth="yes"/>
      <point x="1160" y="896"/>
      <point x="1208" y="938"/>
      <point x="1250" y="938" type="curve" smooth="yes"/>
      <point x="1304" y="938"/>
      <point x="1324" y="908"/>
      <point x="1324" y="838" type="curve" smooth="yes"/>
      <point x="1324" y="694"/>
      <point x="1180" y="556"/>
    </contour>
  </outline>
</glyph>
<glyph name="eth" format="2">
  <advance width="1194"/>
  <unicode hex="00F0"/>
  <note>
eth
</note>
  <outline>
    <contour>
      <point x="514" y="-16" type="curve" smooth="yes"/>
      <point x="778" y="-16"/>
      <point x="966" y="132"/>
      <point x="1060" y="374" type="curve" smooth="yes"/>
      <point x="1106" y="494"/>
      <point x="1130" y="630"/>
      <point x="1130" y="784" type="curve" smooth="yes"/>
      <point x="1130" y="1086"/>
      <point x="1030" y="1388"/>
      <point x="808" y="1572" type="curve"/>
      <point x="790" y="1458" type="line"/>
      <point x="976" y="1666" type="line"/>
      <point x="860" y="1778" type="line"/>
      <point x="668" y="1560" type="line"/>
      <point x="784" y="1590" type="line"/>
      <point x="672" y="1680"/>
      <point x="554" y="1742"/>
      <point x="428" y="1772" type="curve"/>
      <point x="370" y="1596" type="line"/>
      <point x="480" y="1566"/>
      <point x="558" y="1512"/>
      <point x="642" y="1428" type="curve"/>
      <point x="640" y="1548" type="line"/>
      <point x="454" y="1362" type="line"/>
      <point x="578" y="1252" type="line"/>
      <point x="742" y="1432" type="line"/>
      <point x="658" y="1410" type="line"/>
      <point x="738" y="1306"/>
      <point x="786" y="1220"/>
      <point x="794" y="1084" type="curve"/>
      <point x="760" y="1114"/>
      <point x="700" y="1130"/>
      <point x="616" y="1130" type="curve" smooth="yes"/>
      <point x="258" y="1130"/>
      <point x="72" y="776"/>
      <point x="72" y="438" type="curve" smooth="yes"/>
      <point x="72" y="162"/>
      <point x="274" y="-16"/>
    </contour>
    <contour>
      <point x="544" y="178" type="curve" smooth="yes"/>
      <point x="478" y="178"/>
      <point x="430" y="288"/>
      <point x="430" y="418" type="curve" smooth="yes"/>
      <point x="430" y="540"/>
      <point x="458" y="714"/>
      <point x="510" y="830" type="curve" smooth="yes"/>
      <point x="542" y="902"/>
      <point x="586" y="952"/>
      <point x="636" y="952" type="curve" smooth="yes"/>
      <point x="710" y="952"/>
      <point x="750" y="922"/>
      <point x="772" y="876" type="curve"/>
      <point x="772" y="588"/>
      <point x="702" y="178"/>
    </contour>
  </outline>
</glyph>
<glyph name="divide" format="2">
  <advance width="1364"/>
  <unicode hex="00F7"/>
  <note>
divide
</note>
  <outline>
    <contour>
      <point x="218" y="638" type="line"/>
      <point x="1158" y="638" type="line"/>
      <point x="1192" y="894" type="line"/>
      <point x="254" y="896" type="line"/>
    </contour>
    <component base="period" xOffset="444" yOffset="168"/>
    <component base="period" xOffset="544" yOffset="1060"/>
  </outline>
</glyph>
<glyph name="oslash" format="2">
  <advance width="1154"/>
  <unicode hex="00F8"/>
  <note>
oslash
</note>
  <outline>
    <contour>
      <point x="232" y="-136" type="line"/>
      <point x="358" y="86" type="line"/>
      <point x="394" y="132" type="line"/>
      <point x="820" y="946" type="line"/>
      <point x="880" y="998" type="line"/>
      <point x="1010" y="1220" type="line"/>
      <point x="926" y="1258" type="line"/>
      <point x="796" y="1034" type="line"/>
      <point x="758" y="992" type="line"/>
      <point x="350" y="200" type="line"/>
      <point x="290" y="152" type="line"/>
      <point x="144" y="-98" type="line"/>
    </contour>
    <component base="o"/>
  </outline>
</glyph>
<glyph name="thorn" format="2">
  <advance width="1260"/>
  <unicode hex="00FE"/>
  <note>
thorn
</note>
  <outline>
    <contour>
      <point x="8" y="-480" type="line"/>
      <point x="354" y="-480" type="line"/>
      <point x="392" y="-138" type="line"/>
      <point x="402" y="-6" type="line"/>
      <point x="440" y="-12"/>
      <point x="474" y="-16"/>
      <point x="504" y="-16" type="curve" smooth="yes"/>
      <point x="798" y="-16"/>
      <point x="1008" y="136"/>
      <point x="1114" y="356" type="curve" smooth="yes"/>
      <point x="1166" y="466"/>
      <point x="1192" y="582"/>
      <point x="1192" y="708" type="curve" smooth="yes"/>
      <point x="1192" y="956"/>
      <point x="1094" y="1128"/>
      <point x="864" y="1128" type="curve" smooth="yes"/>
      <point x="702" y="1128"/>
      <point x="588" y="994"/>
      <point x="526" y="834" type="curve"/>
      <point x="546" y="954" type="line"/>
      <point x="628" y="1596" type="line"/>
      <point x="294" y="1596" type="line"/>
      <point x="74" y="0" type="line"/>
    </contour>
    <contour>
      <point x="528" y="190" type="curve" smooth="yes"/>
      <point x="494" y="190"/>
      <point x="468" y="192"/>
      <point x="450" y="196" type="curve"/>
      <point x="494" y="542" type="line"/>
      <point x="590" y="770"/>
      <point x="672" y="890"/>
      <point x="740" y="890" type="curve" smooth="yes"/>
      <point x="798" y="890"/>
      <point x="826" y="822"/>
      <point x="826" y="686" type="curve" smooth="yes"/>
      <point x="826" y="524"/>
      <point x="780" y="358"/>
      <point x="692" y="262" type="curve" smooth="yes"/>
      <point x="646" y="214"/>
      <point x="592" y="190"/>
    </contour>
  </outline>
</glyph>
<glyph name="dcaron" format="2">
  <advance width="1562"/>
  <unicode hex="010F"/>
  <note>
dcaron
</note>
  <outline>
    <contour>
      <point x="1504" y="1012" type="line"/>
      <point x="1594" y="1108"/>
      <point x="1648" y="1296"/>
      <point x="1648" y="1458" type="curve" smooth="yes"/>
      <point x="1648" y="1540"/>
      <point x="1634" y="1618"/>
      <point x="1610" y="1642" type="curve"/>
      <point x="1386" y="1596" type="line"/>
      <point x="1368" y="1554" type="line"/>
      <point x="1384" y="1532"/>
      <point x="1392" y="1466"/>
      <point x="1392" y="1358" type="curve" smooth="yes"/>
      <point x="1392" y="1248"/>
      <point x="1376" y="1128"/>
      <point x="1352" y="1064" type="curve"/>
      <point x="1358" y="1040" type="line"/>
    </contour>
    <component base="d"/>
  </outline>
</glyph>
<glyph name="dcroat" format="2">
  <advance width="1244"/>
  <unicode hex="0111"/>
  <note>
dcroat
</note>
  <outline>
    <contour>
      <point x="626" y="1232" type="line"/>
      <point x="1352" y="1232" type="line"/>
      <point x="1368" y="1360" type="line"/>
      <point x="642" y="1360" type="line"/>
    </contour>
    <component base="d"/>
  </outline>
</glyph>
<glyph name="Hbar" format="2">
  <advance width="1476"/>
  <unicode hex="0126"/>
  <note>
Hbar
</note>
  <outline>
    <contour>
      <point x="82" y="0" type="line"/>
      <point x="428" y="0" type="line"/>
      <point x="490" y="430" type="line"/>
      <point x="960" y="430" type="line"/>
      <point x="898" y="0" type="line"/>
      <point x="1248" y="0" type="line"/>
      <point x="1376" y="896" type="line"/>
      <point x="1576" y="896" type="line"/>
      <point x="1600" y="1140" type="line"/>
      <point x="1412" y="1140" type="line"/>
      <point x="1462" y="1494" type="line"/>
      <point x="1112" y="1494" type="line"/>
      <point x="1062" y="1140" type="line"/>
      <point x="590" y="1140" type="line"/>
      <point x="642" y="1494" type="line"/>
      <point x="296" y="1494" type="line"/>
      <point x="246" y="1140" type="line"/>
      <point x="24" y="1140" type="line"/>
      <point x="0" y="896" type="line"/>
      <point x="210" y="896" type="line"/>
    </contour>
    <contour>
      <point x="524" y="676" type="line"/>
      <point x="556" y="896" type="line"/>
      <point x="1026" y="896" type="line"/>
      <point x="996" y="676" type="line"/>
    </contour>
  </outline>
</glyph>
<glyph name="hbar" format="2">
  <advance width="1284"/>
  <unicode hex="0127"/>
  <note>
hbar
</note>
  <outline>
    <contour>
      <point x="124" y="1232" type="line"/>
      <point x="790" y="1232" type="line"/>
      <point x="804" y="1360" type="line"/>
      <point x="138" y="1360" type="line"/>
    </contour>
    <component base="h"/>
  </outline>
</glyph>
<glyph name="idotless" format="2">
  <advance width="648"/>
  <unicode hex="0131"/>
  <note>
dotlessi
</note>
  <anchor x="250" y="0" name="bottom"/>
  <anchor x="426" y="0" name="ogonek"/>
  <anchor x="398" y="1114" name="top"/>
  <outline>
    <contour>
      <point x="78" y="0" type="line"/>
      <point x="426" y="0" type="line"/>
      <point x="582" y="1114" type="line"/>
      <point x="230" y="1114" type="line"/>
    </contour>
  </outline>
</glyph>
<glyph name="kgreenlandic" format="2">
  <advance width="1196"/>
  <unicode hex="0138"/>
  <note>
kgreenlandic
</note>
  <outline>
    <contour>
      <point x="792" y="0" type="line"/>
      <point x="1168" y="0" type="line"/>
      <point x="854" y="608" type="line"/>
      <point x="1024" y="702"/>
      <point x="1182" y="914"/>
      <point x="1190" y="1114" type="curve"/>
      <point x="846" y="1114" type="line"/>
      <point x="800" y="930"/>
      <point x="664" y="676"/>
      <point x="530" y="602" type="curve"/>
    </contour>
    <contour>
      <point x="74" y="0" type="line"/>
      <point x="422" y="0" type="line"/>
      <point x="574" y="1114" type="line"/>
      <point x="226" y="1114" type="line"/>
    </contour>
  </outline>
</glyph>
<glyph name="Lcaron" format="2">
  <advance width="1054"/>
  <unicode hex="013D"/>
  <note>
Lcaron
</note>
  <outline>
    <contour>
      <point x="974" y="862" type="line"/>
      <point x="1064" y="958"/>
      <point x="1118" y="1146"/>
      <point x="1118" y="1308" type="curve" smooth="yes"/>
      <point x="1118" y="1390"/>
      <point x="1104" y="1468"/>
      <point x="1080" y="1492" type="curve"/>
      <point x="856" y="1446" type="line"/>
      <point x="838" y="1404" type="line"/>
      <point x="854" y="1382"/>
      <point x="862" y="1316"/>
      <point x="862" y="1208" type="curve" smooth="yes"/>
      <point x="862" y="1098"/>
      <point x="846" y="978"/>
      <point x="822" y="914" type="curve"/>
      <point x="828" y="890" type="line"/>
    </contour>
    <component base="L"/>
  </outline>
</glyph>
<glyph name="lcaron" format="2">
  <advance width="822"/>
  <unicode hex="013E"/>
  <note>
lcaron
</note>
  <outline>
    <contour>
      <point x="892" y="982" type="line"/>
      <point x="982" y="1078"/>
      <point x="1036" y="1266"/>
      <point x="1036" y="1428" type="curve" smooth="yes"/>
      <point x="1036" y="1510"/>
      <point x="1022" y="1588"/>
      <point x="998" y="1612" type="curve"/>
      <point x="774" y="1566" type="line"/>
      <point x="756" y="1524" type="line"/>
      <point x="772" y="1502"/>
      <point x="780" y="1436"/>
      <point x="780" y="1328" type="curve" smooth="yes"/>
      <point x="780" y="1218"/>
      <point x="764" y="1098"/>
      <point x="740" y="1034" type="curve"/>
      <point x="746" y="1010" type="line"/>
    </contour>
    <component base="l"/>
  </outline>
</glyph>
<glyph name="Lslash" format="2">
  <advance width="1054"/>
  <unicode hex="0141"/>
  <note>
Lslash
</note>
  <outline>
    <contour>
      <point x="159" y="544" type="line"/>
      <point x="491" y="656" type="line"/>
      <point x="967" y="818" type="line"/>
      <point x="913" y="1008" type="line"/>
      <point x="521" y="870" type="line"/>
      <point x="189" y="756" type="line"/>
      <point x="-41" y="678" type="line"/>
      <point x="15" y="498" type="line"/>
    </contour>
    <component base="L"/>
  </outline>
</glyph>
<glyph name="lslash" format="2">
  <advance width="650"/>
  <unicode hex="0142"/>
  <note>
lslash
</note>
  <outline>
    <contour>
      <point x="82" y="0" type="line"/>
      <point x="430" y="0" type="line"/>
      <point x="544" y="838" type="line"/>
      <point x="744" y="916" type="line"/>
      <point x="744" y="1120" type="line"/>
      <point x="572" y="1048" type="line"/>
      <point x="646" y="1596" type="line"/>
      <point x="296" y="1596" type="line"/>
      <point x="202" y="898" type="line"/>
      <point x="10" y="820" type="line"/>
      <point x="10" y="626" type="line"/>
      <point x="174" y="692" type="line"/>
    </contour>
  </outline>
</glyph>
<glyph name="Eng" format="2">
  <advance width="1488"/>
  <unicode hex="014A"/>
  <note>
Eng
</note>
  <outline>
    <contour>
      <point x="678" y="-404" type="line"/>
      <point x="954" y="-386"/>
      <point x="1206" y="-236"/>
      <point x="1248" y="0" type="curve"/>
      <point x="1462" y="1494" type="line"/>
      <point x="1128" y="1494" type="line"/>
      <point x="1034" y="720" type="line"/>
      <point x="1020" y="466" type="line"/>
      <point x="944" y="720" type="line"/>
      <point x="596" y="1494" type="line"/>
      <point x="296" y="1494" type="line"/>
      <point x="82" y="0" type="line"/>
      <point x="412" y="0" type="line"/>
      <point x="524" y="814" type="line"/>
      <point x="522" y="1082" type="line"/>
      <point x="618" y="814" type="line"/>
      <point x="938" y="46" type="line"/>
      <point x="926" y="-118"/>
      <point x="758" y="-234"/>
      <point x="624" y="-280" type="curve"/>
    </contour>
  </outline>
</glyph>
<glyph name="eng" format="2">
  <advance width="1292"/>
  <unicode hex="014B"/>
  <note>
eng
</note>
  <outline>
    <contour>
      <point x="562" y="-516" type="curve" smooth="yes"/>
      <point x="896" y="-516"/>
      <point x="1014" y="-306"/>
      <point x="1068" y="0" type="curve" smooth="yes"/>
      <point x="1096" y="160"/>
      <point x="1132" y="422"/>
      <point x="1156" y="612" type="curve" smooth="yes"/>
      <point x="1170" y="718"/>
      <point x="1178" y="802"/>
      <point x="1178" y="834" type="curve" smooth="yes"/>
      <point x="1178" y="1044"/>
      <point x="1084" y="1128"/>
      <point x="908" y="1128" type="curve" smooth="yes"/>
      <point x="762" y="1128"/>
      <point x="636" y="1048"/>
      <point x="546" y="912" type="curve"/>
      <point x="560" y="1114" type="line"/>
      <point x="226" y="1114" type="line"/>
      <point x="74" y="0" type="line"/>
      <point x="422" y="0" type="line"/>
      <point x="518" y="682" type="line"/>
      <point x="574" y="792"/>
      <point x="664" y="866"/>
      <point x="736" y="866" type="curve" smooth="yes"/>
      <point x="792" y="866"/>
      <point x="818" y="840"/>
      <point x="816" y="770" type="curve" smooth="yes"/>
      <point x="810" y="652"/>
      <point x="786" y="462"/>
      <point x="720" y="0" type="curve" smooth="yes"/>
      <point x="696" y="-182"/>
      <point x="600" y="-358"/>
      <point x="484" y="-358" type="curve" smooth="yes"/>
      <point x="468" y="-358"/>
      <point x="428" y="-352"/>
      <point x="412" y="-346" type="curve"/>
      <point x="372" y="-480" type="line"/>
      <point x="390" y="-502"/>
      <point x="482" y="-516"/>
    </contour>
  </outline>
</glyph>
<glyph name="OE" format="2">
  <advance width="2096"/>
  <unicode hex="0152"/>
  <outline>
    <contour>
      <point x="610" y="-16" type="curve" smooth="yes"/>
      <point x="802" y="-16"/>
      <point x="942" y="60"/>
      <point x="1068" y="194" type="curve"/>
      <point x="1030" y="0" type="line"/>
      <point x="1956" y="0" type="line"/>
      <point x="1992" y="274" type="line"/>
      <point x="1354" y="264" type="line"/>
      <point x="1408" y="642" type="line"/>
      <point x="1826" y="634" type="line"/>
      <point x="1862" y="904" type="line"/>
      <point x="1444" y="898" type="line"/>
      <point x="1492" y="1228" type="line"/>
      <point x="2060" y="1226" type="line"/>
      <point x="2096" y="1494" type="line"/>
      <point x="1244" y="1494" type="line"/>
      <point x="1224" y="1284" type="line"/>
      <point x="1134" y="1426"/>
      <point x="1006" y="1510"/>
      <point x="808" y="1510" type="curve" smooth="yes"/>
      <point x="348" y="1510"/>
      <point x="70" y="1074"/>
      <point x="70" y="564" type="curve" smooth="yes"/>
      <point x="70" y="228"/>
      <point x="266" y="-16"/>
    </contour>
    <contour>
      <point x="636" y="244" type="curve" smooth="yes"/>
      <point x="530" y="244"/>
      <point x="426" y="348"/>
      <point x="426" y="582" type="curve" smooth="yes"/>
      <point x="426" y="858"/>
      <point x="546" y="1250"/>
      <point x="770" y="1250" type="curve" smooth="yes"/>
      <point x="920" y="1250"/>
      <point x="982" y="1096"/>
      <point x="982" y="914" type="curve" smooth="yes"/>
      <point x="982" y="628"/>
      <point x="866" y="244"/>
    </contour>
  </outline>
</glyph>
<glyph name="tcaron" format="2">
  <advance width="820"/>
  <unicode hex="0165"/>
  <note>
tcaron
</note>
  <outline>
    <contour>
      <point x="910" y="1218" type="line"/>
      <point x="1000" y="1314"/>
      <point x="1054" y="1502"/>
      <point x="1054" y="1664" type="curve" smooth="yes"/>
      <point x="1054" y="1746"/>
      <point x="1040" y="1824"/>
      <point x="1016" y="1848" type="curve"/>
      <point x="792" y="1802" type="line"/>
      <point x="774" y="1760" type="line"/>
      <point x="790" y="1738"/>
      <point x="798" y="1672"/>
      <point x="798" y="1564" type="curve" smooth="yes"/>
      <point x="798" y="1454"/>
      <point x="782" y="1334"/>
      <point x="758" y="1270" type="curve"/>
      <point x="764" y="1246" type="line"/>
    </contour>
    <component base="t"/>
  </outline>
</glyph>
<glyph name="Tbar" format="2">
  <advance width="1138"/>
  <unicode hex="0166"/>
  <note>
Tbar
</note>
  <outline>
    <contour>
      <point x="318" y="0" type="line"/>
      <point x="670" y="0" type="line"/>
      <point x="758" y="620" type="line"/>
      <point x="1002" y="620" type="line"/>
      <point x="1034" y="866" type="line"/>
      <point x="794" y="866" type="line"/>
      <point x="846" y="1236" type="line"/>
      <point x="1190" y="1226" type="line"/>
      <point x="1230" y="1494" type="line"/>
      <point x="188" y="1494" type="line"/>
      <point x="144" y="1226" type="line"/>
      <point x="496" y="1236" type="line"/>
      <point x="442" y="866" type="line"/>
      <point x="212" y="866" type="line"/>
      <point x="184" y="620" type="line"/>
      <point x="408" y="620" type="line"/>
    </contour>
  </outline>
</glyph>
<glyph name="tbar" format="2">
  <advance width="820"/>
  <unicode hex="0167"/>
  <note>
tbar
</note>
  <outline>
    <contour>
      <point x="750" y="738" type="line"/>
      <point x="100" y="738" type="line"/>
      <point x="76" y="542" type="line"/>
      <point x="726" y="542" type="line"/>
    </contour>
    <component base="t"/>
  </outline>
</glyph>
<glyph name="Schwa" format="2">
  <advance width="1340"/>
  <unicode hex="018F"/>
  <anchor x="562" y="0" name="bottom"/>
  <anchor x="758" y="1494" name="top"/>
  <outline>
    <contour>
      <point x="596" y="-16" type="curve" smooth="yes"/>
      <point x="1056" y="-16"/>
      <point x="1318" y="418"/>
      <point x="1318" y="924" type="curve" smooth="yes"/>
      <point x="1318" y="1258"/>
      <point x="1114" y="1510"/>
      <point x="708" y="1510" type="curve" smooth="yes"/>
      <point x="570" y="1510"/>
      <point x="390" y="1476"/>
      <point x="300" y="1422" type="curve"/>
      <point x="290" y="1124" type="line"/>
      <point x="384" y="1184"/>
      <point x="520" y="1250"/>
      <point x="676" y="1250" type="curve" smooth="yes"/>
      <point x="840" y="1250"/>
      <point x="962" y="1174"/>
      <point x="964" y="908" type="curve" smooth="yes"/>
      <point x="968" y="432"/>
      <point x="798" y="244"/>
      <point x="622" y="244" type="curve" smooth="yes"/>
      <point x="392" y="244"/>
      <point x="348" y="492"/>
      <point x="384" y="588" type="curve"/>
      <point x="1018" y="588" type="line"/>
      <point x="1056" y="830" type="line"/>
      <point x="98" y="830" type="line"/>
      <point x="76" y="734"/>
      <point x="68" y="644"/>
      <point x="70" y="562" type="curve" smooth="yes"/>
      <point x="78" y="196"/>
      <point x="282" y="-16"/>
    </contour>
  </outline>
</glyph>
<glyph name="florin" format="2">
  <advance width="1060"/>
  <unicode hex="0192"/>
  <note>
florin
</note>
  <outline>
    <contour>
      <point x="158" y="-346" type="line"/>
      <point x="498" y="-346" type="line"/>
      <point x="670" y="904" type="line"/>
      <point x="856" y="904" type="line"/>
      <point x="880" y="1116" type="line"/>
      <point x="696" y="1116" type="line"/>
      <point x="720" y="1268" type="line" smooth="yes"/>
      <point x="738" y="1380"/>
      <point x="796" y="1420"/>
      <point x="860" y="1420" type="curve" smooth="yes"/>
      <point x="906" y="1420"/>
      <point x="952" y="1392"/>
      <point x="970" y="1374" type="curve"/>
      <point x="1030" y="1606" type="line"/>
      <point x="988" y="1622"/>
      <point x="930" y="1630"/>
      <point x="856" y="1630" type="curve" smooth="yes"/>
      <point x="600" y="1630"/>
      <point x="416" y="1466"/>
      <point x="376" y="1216" type="curve" smooth="yes"/>
      <point x="360" y="1116" type="line"/>
      <point x="204" y="1086" type="line"/>
      <point x="182" y="904" type="line"/>
      <point x="332" y="904" type="line"/>
    </contour>
  </outline>
</glyph>
<glyph name="Ohorn" format="2">
  <advance width="1362"/>
  <unicode hex="01A0"/>
  <anchor x="738" y="1494" name="top"/>
  <outline>
    <contour>
      <point x="930" y="1262" type="line"/>
      <point x="1224" y="1262"/>
      <point x="1478" y="1366"/>
      <point x="1528" y="1686" type="curve" smooth="yes"/>
      <point x="1530" y="1700"/>
      <point x="1532" y="1714"/>
      <point x="1534" y="1730" type="curve"/>
      <point x="1302" y="1730" type="line"/>
      <point x="1302" y="1722"/>
      <point x="1298" y="1690"/>
      <point x="1292" y="1670" type="curve" smooth="yes"/>
      <point x="1266" y="1584"/>
      <point x="1264" y="1452"/>
      <point x="980" y="1452" type="curve"/>
    </contour>
    <component base="O"/>
  </outline>
</glyph>
<glyph name="Ezh" format="2">
  <advance width="1072"/>
  <unicode hex="01B7"/>
  <anchor x="634" y="1494" name="top"/>
  <outline>
    <contour>
      <point x="276" y="-14" type="curve" smooth="yes"/>
      <point x="652" y="-14"/>
      <point x="1028" y="158"/>
      <point x="1028" y="530" type="curve" smooth="yes"/>
      <point x="1028" y="666"/>
      <point x="944" y="802"/>
      <point x="676" y="828" type="curve"/>
      <point x="1072" y="1158" type="line"/>
      <point x="1118" y="1496" type="line"/>
      <point x="230" y="1494" type="line"/>
      <point x="190" y="1226" type="line"/>
      <point x="770" y="1230" type="line"/>
      <point x="648" y="1146" type="line"/>
      <point x="370" y="894" type="line"/>
      <point x="336" y="636" type="line"/>
      <point x="438" y="668" type="line"/>
      <point x="576" y="668"/>
      <point x="676" y="622"/>
      <point x="676" y="492" type="curve" smooth="yes"/>
      <point x="676" y="376"/>
      <point x="580" y="240"/>
      <point x="290" y="240" type="curve" smooth="yes"/>
      <point x="248" y="240"/>
      <point x="126" y="250"/>
      <point x="70" y="260" type="curve"/>
      <point x="38" y="8" type="line"/>
      <point x="108" y="-2"/>
      <point x="222" y="-14"/>
    </contour>
  </outline>
</glyph>
<glyph name="jdotless" format="2">
  <advance width="648"/>
  <unicode hex="0237"/>
  <note>
uni0237
</note>
  <anchor x="178" y="-546" name="bottom"/>
  <anchor x="414" y="1114" name="top"/>
  <outline>
    <contour>
      <point x="-92" y="-516" type="curve" smooth="yes"/>
      <point x="182" y="-516"/>
      <point x="388" y="-300"/>
      <point x="426" y="0" type="curve" smooth="yes"/>
      <point x="582" y="1114" type="line"/>
      <point x="230" y="1114" type="line"/>
      <point x="86" y="64" type="line" smooth="yes"/>
      <point x="64" y="-92"/>
      <point x="-20" y="-314"/>
      <point x="-144" y="-314" type="curve" smooth="yes"/>
      <point x="-160" y="-314"/>
      <point x="-188" y="-306"/>
      <point x="-198" y="-300" type="curve"/>
      <point x="-268" y="-482" type="line"/>
      <point x="-238" y="-506"/>
      <point x="-172" y="-516"/>
    </contour>
  </outline>
</glyph>
<glyph name="schwa" format="2">
  <advance width="1076"/>
  <unicode hex="0259"/>
  <anchor x="388" y="0" name="bottom"/>
  <anchor x="278" y="1094" name="ogonek"/>
  <anchor x="576" y="1114" name="top"/>
  <outline>
    <contour>
      <point x="592" y="1130" type="curve" smooth="yes"/>
      <point x="410" y="1130"/>
      <point x="198" y="1036"/>
      <point x="100" y="902" type="curve"/>
      <point x="190" y="734" type="line"/>
      <point x="244" y="806"/>
      <point x="396" y="894"/>
      <point x="506" y="894" type="curve" smooth="yes"/>
      <point x="602" y="894"/>
      <point x="640" y="854"/>
      <point x="648" y="768" type="curve" smooth="yes"/>
      <point x="648" y="760"/>
      <point x="648" y="750"/>
      <point x="648" y="740" type="curve"/>
      <point x="314" y="654"/>
      <point x="54" y="510"/>
      <point x="54" y="242" type="curve" smooth="yes"/>
      <point x="54" y="92"/>
      <point x="162" y="-14"/>
      <point x="386" y="-14" type="curve" smooth="yes"/>
      <point x="618" y="-14"/>
      <point x="820" y="110"/>
      <point x="930" y="324" type="curve" smooth="yes"/>
      <point x="986" y="430"/>
      <point x="1014" y="550"/>
      <point x="1014" y="682" type="curve" smooth="yes"/>
      <point x="1014" y="844"/>
      <point x="958" y="986"/>
      <point x="830" y="1068" type="curve" smooth="yes"/>
      <point x="768" y="1110"/>
      <point x="688" y="1130"/>
    </contour>
    <contour>
      <point x="652" y="566" type="curve"/>
      <point x="650" y="498"/>
      <point x="642" y="384"/>
      <point x="586" y="294" type="curve" smooth="yes"/>
      <point x="544" y="228"/>
      <point x="512" y="176"/>
      <point x="464" y="176" type="curve" smooth="yes"/>
      <point x="410" y="176"/>
      <point x="390" y="206"/>
      <point x="390" y="276" type="curve" smooth="yes"/>
      <point x="390" y="420"/>
      <point x="528" y="558"/>
    </contour>
  </outline>
</glyph>
<glyph name="ezh" format="2">
  <advance width="972"/>
  <unicode hex="0292"/>
  <anchor x="386" y="0" name="bottom"/>
  <anchor x="460" y="558" name="center"/>
  <anchor x="580" y="1114" name="top"/>
  <outline>
    <contour>
      <point x="190" y="-300" type="curve" smooth="yes"/>
      <point x="648" y="-330"/>
      <point x="884" y="-128"/>
      <point x="888" y="182" type="curve" smooth="yes"/>
      <point x="888" y="318"/>
      <point x="830" y="504"/>
      <point x="528" y="496" type="curve"/>
      <point x="982" y="1070" type="line"/>
      <point x="948" y="1114" type="line"/>
      <point x="146" y="1114" type="line"/>
      <point x="110" y="852" type="line"/>
      <point x="534" y="852" type="line"/>
      <point x="424" y="736" type="line"/>
      <point x="206" y="436" type="line"/>
      <point x="358" y="320" type="line"/>
      <point x="478" y="320"/>
      <point x="580" y="292"/>
      <point x="580" y="178" type="curve" smooth="yes"/>
      <point x="580" y="28"/>
      <point x="500" y="-60"/>
      <point x="190" y="-60" type="curve" smooth="yes"/>
      <point x="144" y="-60"/>
      <point x="94" y="-58"/>
      <point x="48" y="-40" type="curve"/>
      <point x="10" y="-286" type="line"/>
      <point x="70" y="-290"/>
      <point x="130" y="-296"/>
    </contour>
  </outline>
</glyph>
<glyph name="apostrophemod" format="2">
  <unicode hex="02BC"/>
  <anchor x="76" y="1114" name="_top"/>
  <anchor x="132" y="1560" name="top"/>
  <outline>
    <contour>
      <point x="54" y="1282" type="line"/>
      <point x="188" y="1338"/>
      <point x="240" y="1456"/>
      <point x="240" y="1570" type="curve" smooth="yes"/>
      <point x="240" y="1676"/>
      <point x="160" y="1780"/>
      <point x="84" y="1796" type="curve"/>
      <point x="-48" y="1704" type="line"/>
      <point x="-60" y="1620" type="line"/>
      <point x="-20" y="1614"/>
      <point x="10" y="1554"/>
      <point x="10" y="1502" type="curve" smooth="yes"/>
      <point x="10" y="1436"/>
      <point x="-16" y="1398"/>
      <point x="-48" y="1378" type="curve"/>
      <point x="-52" y="1354" type="line"/>
    </contour>
  </outline>
</glyph>
<glyph name="ringhalfright" format="2">
  <advance width="473"/>
  <unicode hex="02BE"/>
  <outline>
    <contour>
      <point x="222" y="1266" type="line"/>
      <point x="440" y="1266"/>
      <point x="580" y="1376"/>
      <point x="576" y="1572" type="curve" smooth="yes"/>
      <point x="572" y="1782"/>
      <point x="396" y="1860"/>
      <point x="222" y="1862" type="curve"/>
      <point x="222" y="1702" type="line"/>
      <point x="320" y="1702"/>
      <point x="376" y="1644"/>
      <point x="376" y="1570" type="curve" smooth="yes"/>
      <point x="376" y="1488"/>
      <point x="312" y="1430"/>
      <point x="222" y="1430" type="curve"/>
    </contour>
  </outline>
</glyph>
<glyph name="ringhalfleft" format="2">
  <advance width="473"/>
  <unicode hex="02BF"/>
  <outline>
    <contour>
      <point x="516" y="1266" type="curve"/>
      <point x="516" y="1430" type="line"/>
      <point x="426" y="1430"/>
      <point x="362" y="1488"/>
      <point x="362" y="1570" type="curve" smooth="yes"/>
      <point x="362" y="1644"/>
      <point x="418" y="1702"/>
      <point x="516" y="1702" type="curve"/>
      <point x="516" y="1862" type="line"/>
      <point x="342" y="1860"/>
      <point x="166" y="1782"/>
      <point x="162" y="1572" type="curve" smooth="yes"/>
      <point x="158" y="1376"/>
      <point x="298" y="1266"/>
    </contour>
  </outline>
</glyph>
<glyph name="circumflex" format="2">
  <advance width="784"/>
  <unicode hex="02C6"/>
  <note>
circumflex
</note>
  <outline>
    <contour>
      <point x="168" y="1200" type="line"/>
      <point x="452" y="1370" type="line"/>
      <point x="628" y="1200" type="line"/>
      <point x="780" y="1266" type="line"/>
      <point x="572" y="1630" type="line"/>
      <point x="396" y="1630" type="line"/>
      <point x="34" y="1266" type="line"/>
    </contour>
  </outline>
</glyph>
<glyph name="caron" format="2">
  <advance width="784"/>
  <unicode hex="02C7"/>
  <note>
caron
</note>
  <outline>
    <contour>
      <point x="270" y="1228" type="line"/>
      <point x="446" y="1228" type="line"/>
      <point x="808" y="1594" type="line"/>
      <point x="664" y="1660" type="line"/>
      <point x="394" y="1474" type="line"/>
      <point x="186" y="1660" type="line"/>
      <point x="64" y="1594" type="line"/>
    </contour>
  </outline>
</glyph>
<glyph name="verticallinemod" format="2">
  <advance width="396"/>
  <unicode hex="02C8"/>
  <outline>
    <contour>
      <point x="257" y="1216" type="line"/>
      <point x="483" y="1216" type="line"/>
      <point x="539" y="2098" type="line"/>
      <point x="203" y="2098" type="line"/>
    </contour>
  </outline>
</glyph>
<glyph name="secondtonechinese" format="2">
  <unicode hex="02CA"/>
  <anchor x="76" y="1114" name="_top"/>
  <anchor x="132" y="1560" name="top"/>
  <outline>
    <contour>
      <point x="22" y="1208" type="line"/>
      <point x="108" y="1250"/>
      <point x="358" y="1450"/>
      <point x="420" y="1598" type="curve"/>
      <point x="184" y="1782" type="line"/>
      <point x="90" y="1632"/>
      <point x="-58" y="1454"/>
      <point x="-148" y="1364" type="curve"/>
    </contour>
  </outline>
</glyph>
<glyph name="verticallinelowmod" format="2">
  <advance width="396"/>
  <unicode hex="02CC"/>
  <outline>
    <contour>
      <point x="6" y="-692" type="line"/>
      <point x="232" y="-692" type="line"/>
      <point x="288" y="190" type="line"/>
      <point x="-48" y="190" type="line"/>
    </contour>
  </outline>
</glyph>
<glyph name="breve" format="2">
  <advance width="708"/>
  <unicode hex="02D8"/>
  <note>
breve
</note>
  <outline>
    <contour>
      <point x="352" y="1270" type="curve" smooth="yes"/>
      <point x="572" y="1270"/>
      <point x="708" y="1402"/>
      <point x="708" y="1642" type="curve"/>
      <point x="528" y="1642" type="line"/>
      <point x="512" y="1546"/>
      <point x="472" y="1482"/>
      <point x="368" y="1482" type="curve" smooth="yes"/>
      <point x="244" y="1482"/>
      <point x="218" y="1522"/>
      <point x="232" y="1642" type="curve"/>
      <point x="48" y="1642" type="line"/>
      <point x="2" y="1414"/>
      <point x="110" y="1270"/>
    </contour>
  </outline>
</glyph>
<glyph name="dotaccent" format="2">
  <advance width="382"/>
  <unicode hex="02D9"/>
  <note>
dotaccent
</note>
  <outline>
    <contour>
      <point x="166" y="1282" type="curve" smooth="yes"/>
      <point x="298" y="1282"/>
      <point x="378" y="1366"/>
      <point x="378" y="1484" type="curve" smooth="yes"/>
      <point x="378" y="1570"/>
      <point x="302" y="1642"/>
      <point x="206" y="1642" type="curve" smooth="yes"/>
      <point x="86" y="1642"/>
      <point x="0" y="1554"/>
      <point x="0" y="1442" type="curve" smooth="yes"/>
      <point x="0" y="1356"/>
      <point x="80" y="1282"/>
    </contour>
  </outline>
</glyph>
<glyph name="ring" format="2">
  <advance width="712"/>
  <unicode hex="02DA"/>
  <note>
ring
</note>
  <outline>
    <contour>
      <point x="356" y="1224" type="curve" smooth="yes"/>
      <point x="482" y="1224"/>
      <point x="604" y="1268"/>
      <point x="676" y="1362" type="curve" smooth="yes"/>
      <point x="712" y="1408"/>
      <point x="730" y="1464"/>
      <point x="730" y="1530" type="curve" smooth="yes"/>
      <point x="730" y="1682"/>
      <point x="614" y="1762"/>
      <point x="432" y="1762" type="curve" smooth="yes"/>
      <point x="314" y="1762"/>
      <point x="190" y="1726"/>
      <point x="110" y="1636" type="curve" smooth="yes"/>
      <point x="70" y="1590"/>
      <point x="50" y="1532"/>
      <point x="50" y="1462" type="curve" smooth="yes"/>
      <point x="50" y="1310"/>
      <point x="166" y="1224"/>
    </contour>
    <contour>
      <point x="378" y="1364" type="curve" smooth="yes"/>
      <point x="310" y="1364"/>
      <point x="242" y="1418"/>
      <point x="242" y="1484" type="curve" smooth="yes"/>
      <point x="242" y="1580"/>
      <point x="318" y="1626"/>
      <point x="408" y="1626" type="curve" smooth="yes"/>
      <point x="476" y="1626"/>
      <point x="540" y="1572"/>
      <point x="540" y="1502" type="curve" smooth="yes"/>
      <point x="540" y="1400"/>
      <point x="468" y="1364"/>
    </contour>
  </outline>
</glyph>
<glyph name="ogonek" format="2">
  <advance width="636"/>
  <unicode hex="02DB"/>
  <note>
ogonek
</note>
  <outline>
    <contour>
      <point x="182" y="-468" type="curve" smooth="yes"/>
      <point x="316" y="-468"/>
      <point x="452" y="-408"/>
      <point x="540" y="-318" type="curve"/>
      <point x="486" y="-208" type="line"/>
      <point x="424" y="-258"/>
      <point x="368" y="-292"/>
      <point x="318" y="-292" type="curve" smooth="yes"/>
      <point x="276" y="-292"/>
      <point x="250" y="-274"/>
      <point x="250" y="-220" type="curve" smooth="yes"/>
      <point x="250" y="-158"/>
      <point x="350" y="-66"/>
      <point x="516" y="38" type="curve"/>
      <point x="422" y="58" type="line"/>
      <point x="336" y="44" type="line"/>
      <point x="192" y="-14"/>
      <point x="-8" y="-144"/>
      <point x="-8" y="-298" type="curve" smooth="yes"/>
      <point x="-8" y="-398"/>
      <point x="76" y="-468"/>
    </contour>
  </outline>
</glyph>
<glyph name="tilde" format="2">
  <advance width="844"/>
  <unicode hex="02DC"/>
  <note>
tilde
</note>
  <outline>
    <contour>
      <point x="688" y="1250" type="curve" smooth="yes"/>
      <point x="786" y="1250"/>
      <point x="886" y="1358"/>
      <point x="922" y="1454" type="curve"/>
      <point x="816" y="1596" type="line"/>
      <point x="782" y="1514"/>
      <point x="734" y="1476"/>
      <point x="676" y="1476" type="curve" smooth="yes"/>
      <point x="638" y="1476"/>
      <point x="616" y="1500"/>
      <point x="580" y="1542" type="curve" smooth="yes"/>
      <point x="534" y="1596"/>
      <point x="478" y="1622"/>
      <point x="398" y="1622" type="curve" smooth="yes"/>
      <point x="304" y="1622"/>
      <point x="216" y="1560"/>
      <point x="158" y="1446" type="curve"/>
      <point x="252" y="1314" type="line"/>
      <point x="304" y="1388"/>
      <point x="334" y="1400"/>
      <point x="386" y="1400" type="curve" smooth="yes"/>
      <point x="436" y="1400"/>
      <point x="458" y="1378"/>
      <point x="496" y="1336" type="curve" smooth="yes"/>
      <point x="542" y="1286"/>
      <point x="602" y="1250"/>
    </contour>
  </outline>
</glyph>
<glyph name="hungarumlaut" format="2">
  <advance width="904"/>
  <unicode hex="02DD"/>
  <note>
hungarumlaut
</note>
  <outline>
    <contour>
      <point x="742" y="1194" type="line"/>
      <point x="844" y="1244"/>
      <point x="1064" y="1470"/>
      <point x="1088" y="1572" type="curve"/>
      <point x="876" y="1712" type="line"/>
      <point x="614" y="1276" type="line"/>
    </contour>
    <contour>
      <point x="274" y="1194" type="line"/>
      <point x="372" y="1244"/>
      <point x="576" y="1476"/>
      <point x="600" y="1578" type="curve"/>
      <point x="396" y="1712" type="line"/>
      <point x="138" y="1276" type="line"/>
    </contour>
  </outline>
</glyph>
<glyph name="gravecomb" format="2">
  <unicode hex="0300"/>
  <note>
grave
</note>
  <anchor x="74" y="1114" name="_top"/>
  <anchor x="134" y="1576" name="top"/>
  <outline>
    <contour>
      <point x="160" y="1250" type="curve"/>
      <point x="282" y="1346" type="line"/>
      <point x="-44" y="1784" type="line"/>
      <point x="-250" y="1590" type="line"/>
      <point x="-212" y="1512"/>
      <point x="56" y="1288"/>
    </contour>
  </outline>
</glyph>
<glyph name="acutecomb" format="2">
  <unicode hex="0301"/>
  <note>
acute
</note>
  <anchor x="134" y="1114" name="_top"/>
  <anchor x="-10" y="1494" name="top"/>
  <outline>
    <contour>
      <point x="112" y="1250" type="line"/>
      <point x="208" y="1284"/>
      <point x="484" y="1540"/>
      <point x="520" y="1618" type="curve"/>
      <point x="316" y="1784" type="line"/>
      <point x="-10" y="1346" type="line"/>
    </contour>
  </outline>
</glyph>
<glyph name="circumflexcomb" format="2">
  <unicode hex="0302"/>
  <note>
circumflex
</note>
  <anchor x="74" y="1114" name="_top"/>
  <anchor x="134" y="1576" name="top"/>
  <outline>
    <contour>
      <point x="-140" y="1254" type="line"/>
      <point x="144" y="1442" type="line"/>
      <point x="320" y="1254" type="line"/>
      <point x="472" y="1320" type="line"/>
      <point x="260" y="1664" type="line"/>
      <point x="84" y="1664" type="line"/>
      <point x="-274" y="1320" type="line"/>
    </contour>
  </outline>
</glyph>
<glyph name="tildecomb" format="2">
  <unicode hex="0303"/>
  <note>
tilde
</note>
  <anchor x="74" y="1114" name="_top"/>
  <anchor x="126" y="1520" name="top"/>
  <outline>
    <contour>
      <point x="268" y="1230" type="curve" smooth="yes"/>
      <point x="366" y="1230"/>
      <point x="466" y="1338"/>
      <point x="502" y="1434" type="curve"/>
      <point x="396" y="1576" type="line"/>
      <point x="362" y="1494"/>
      <point x="314" y="1456"/>
      <point x="256" y="1456" type="curve" smooth="yes"/>
      <point x="218" y="1456"/>
      <point x="196" y="1480"/>
      <point x="160" y="1522" type="curve" smooth="yes"/>
      <point x="114" y="1576"/>
      <point x="58" y="1602"/>
      <point x="-22" y="1602" type="curve" smooth="yes"/>
      <point x="-116" y="1602"/>
      <point x="-204" y="1540"/>
      <point x="-262" y="1426" type="curve"/>
      <point x="-168" y="1294" type="line"/>
      <point x="-116" y="1368"/>
      <point x="-86" y="1380"/>
      <point x="-34" y="1380" type="curve" smooth="yes"/>
      <point x="16" y="1380"/>
      <point x="38" y="1358"/>
      <point x="76" y="1316" type="curve" smooth="yes"/>
      <point x="122" y="1266"/>
      <point x="182" y="1230"/>
    </contour>
  </outline>
</glyph>
<glyph name="macroncomb" format="2">
  <unicode hex="0304"/>
  <note>
macron
</note>
  <anchor x="74" y="1114" name="_top"/>
  <anchor x="116" y="1452" name="top"/>
  <outline>
    <contour>
      <point x="-190" y="1300" type="line"/>
      <point x="392" y="1300" type="line"/>
      <point x="418" y="1514" type="line"/>
      <point x="-164" y="1514" type="line"/>
    </contour>
  </outline>
</glyph>
<glyph name="brevecomb" format="2">
  <unicode hex="0306"/>
  <note>
breve
</note>
  <anchor x="74" y="1114" name="_top"/>
  <anchor x="134" y="1576" name="top"/>
  <outline>
    <contour>
      <point x="114" y="1264" type="curve" smooth="yes"/>
      <point x="334" y="1264"/>
      <point x="470" y="1396"/>
      <point x="470" y="1636" type="curve"/>
      <point x="290" y="1636" type="line"/>
      <point x="274" y="1540"/>
      <point x="234" y="1476"/>
      <point x="130" y="1476" type="curve" smooth="yes"/>
      <point x="6" y="1476"/>
      <point x="-22" y="1516"/>
      <point x="-8" y="1636" type="curve"/>
      <point x="-192" y="1636" type="line"/>
      <point x="-238" y="1408"/>
      <point x="-130" y="1264"/>
    </contour>
  </outline>
</glyph>
<glyph name="dotaccentcomb" format="2">
  <unicode hex="0307"/>
  <note>
dotaccent
</note>
  <anchor x="74" y="1114" name="_top"/>
  <anchor x="134" y="1572" name="top"/>
  <outline>
    <contour>
      <point x="86" y="1272" type="curve" smooth="yes"/>
      <point x="218" y="1272"/>
      <point x="298" y="1356"/>
      <point x="298" y="1474" type="curve" smooth="yes"/>
      <point x="298" y="1560"/>
      <point x="222" y="1632"/>
      <point x="126" y="1632" type="curve" smooth="yes"/>
      <point x="6" y="1632"/>
      <point x="-82" y="1544"/>
      <point x="-82" y="1432" type="curve" smooth="yes"/>
      <point x="-82" y="1346"/>
      <point x="0" y="1272"/>
    </contour>
  </outline>
</glyph>
<glyph name="dieresiscomb" format="2">
  <unicode hex="0308"/>
  <note>
dieresis
</note>
  <anchor x="74" y="1114" name="_top"/>
  <anchor x="134" y="1530" name="top"/>
  <outline>
    <contour>
      <point x="-132" y="1312" type="curve" smooth="yes"/>
      <point x="-20" y="1312"/>
      <point x="36" y="1386"/>
      <point x="36" y="1494" type="curve" smooth="yes"/>
      <point x="36" y="1566"/>
      <point x="-24" y="1632"/>
      <point x="-104" y="1632" type="curve" smooth="yes"/>
      <point x="-198" y="1632"/>
      <point x="-264" y="1556"/>
      <point x="-264" y="1456" type="curve" smooth="yes"/>
      <point x="-264" y="1386"/>
      <point x="-202" y="1312"/>
    </contour>
    <contour>
      <point x="328" y="1312" type="curve" smooth="yes"/>
      <point x="438" y="1312"/>
      <point x="498" y="1388"/>
      <point x="498" y="1494" type="curve" smooth="yes"/>
      <point x="498" y="1566"/>
      <point x="436" y="1632"/>
      <point x="358" y="1632" type="curve" smooth="yes"/>
      <point x="262" y="1632"/>
      <point x="198" y="1554"/>
      <point x="198" y="1456" type="curve" smooth="yes"/>
      <point x="198" y="1384"/>
      <point x="260" y="1312"/>
    </contour>
  </outline>
</glyph>
<glyph name="hookabovecomb" format="2">
  <unicode hex="0309"/>
  <anchor x="74" y="1114" name="_top"/>
  <anchor x="134" y="1576" name="top"/>
  <outline>
    <contour>
      <point x="2" y="1266" type="curve"/>
      <point x="178" y="1266" type="line"/>
      <point x="172" y="1324"/>
      <point x="192" y="1376"/>
      <point x="236" y="1406" type="curve" smooth="yes"/>
      <point x="288" y="1442"/>
      <point x="356" y="1506"/>
      <point x="366" y="1592" type="curve" smooth="yes"/>
      <point x="378" y="1698"/>
      <point x="268" y="1778"/>
      <point x="108" y="1778" type="curve" smooth="yes"/>
      <point x="16" y="1778"/>
      <point x="-52" y="1760"/>
      <point x="-100" y="1738" type="curve"/>
      <point x="-116" y="1576" type="line"/>
      <point x="-90" y="1594"/>
      <point x="-38" y="1612"/>
      <point x="12" y="1612" type="curve" smooth="yes"/>
      <point x="92" y="1612"/>
      <point x="108" y="1578"/>
      <point x="104" y="1538" type="curve" smooth="yes"/>
      <point x="96" y="1462"/>
      <point x="-2" y="1444"/>
      <point x="-12" y="1354" type="curve"/>
      <point x="-18" y="1314"/>
      <point x="-10" y="1294"/>
    </contour>
  </outline>
</glyph>
<glyph name="ringcomb" format="2">
  <unicode hex="030A"/>
  <note>
ring
</note>
  <anchor x="74" y="1114" name="_top"/>
  <anchor x="250" y="1484" name="top"/>
  <outline>
    <contour>
      <point x="90" y="1224" type="curve" smooth="yes"/>
      <point x="216" y="1224"/>
      <point x="338" y="1268"/>
      <point x="410" y="1362" type="curve" smooth="yes"/>
      <point x="446" y="1408"/>
      <point x="464" y="1464"/>
      <point x="464" y="1530" type="curve" smooth="yes"/>
      <point x="464" y="1682"/>
      <point x="348" y="1762"/>
      <point x="166" y="1762" type="curve" smooth="yes"/>
      <point x="48" y="1762"/>
      <point x="-76" y="1726"/>
      <point x="-156" y="1636" type="curve" smooth="yes"/>
      <point x="-196" y="1590"/>
      <point x="-216" y="1532"/>
      <point x="-216" y="1462" type="curve" smooth="yes"/>
      <point x="-216" y="1310"/>
      <point x="-100" y="1224"/>
    </contour>
    <contour>
      <point x="112" y="1364" type="curve" smooth="yes"/>
      <point x="44" y="1364"/>
      <point x="-24" y="1418"/>
      <point x="-24" y="1484" type="curve" smooth="yes"/>
      <point x="-24" y="1580"/>
      <point x="52" y="1626"/>
      <point x="142" y="1626" type="curve" smooth="yes"/>
      <point x="210" y="1626"/>
      <point x="274" y="1572"/>
      <point x="274" y="1502" type="curve" smooth="yes"/>
      <point x="274" y="1400"/>
      <point x="202" y="1364"/>
    </contour>
  </outline>
</glyph>
<glyph name="hungarumlautcomb" format="2">
  <unicode hex="030B"/>
  <note>
hungarumlaut
</note>
  <anchor x="74" y="1114" name="_top"/>
  <anchor x="134" y="1576" name="top"/>
  <outline>
    <contour>
      <point x="310" y="1194" type="line"/>
      <point x="410" y="1244"/>
      <point x="632" y="1470"/>
      <point x="656" y="1572" type="curve"/>
      <point x="444" y="1712" type="line"/>
      <point x="182" y="1276" type="line"/>
    </contour>
    <contour>
      <point x="-160" y="1194" type="line"/>
      <point x="-60" y="1244"/>
      <point x="142" y="1476"/>
      <point x="168" y="1578" type="curve"/>
      <point x="-38" y="1712" type="line"/>
      <point x="-296" y="1276" type="line"/>
    </contour>
  </outline>
</glyph>
<glyph name="caroncomb" format="2">
  <unicode hex="030C"/>
  <note>
caron
</note>
  <anchor x="74" y="1114" name="_top"/>
  <anchor x="130" y="1576" name="top"/>
  <outline>
    <contour>
      <point x="8" y="1266" type="line"/>
      <point x="184" y="1266" type="line"/>
      <point x="504" y="1618" type="line"/>
      <point x="400" y="1710" type="line"/>
      <point x="124" y="1492" type="line"/>
      <point x="-114" y="1710" type="line"/>
      <point x="-230" y="1618" type="line"/>
    </contour>
  </outline>
</glyph>
<glyph name="dblgravecomb" format="2">
  <unicode hex="030F"/>
  <anchor x="74" y="1114" name="_top"/>
  <anchor x="136" y="1578" name="top"/>
  <outline>
    <contour>
      <point x="-120" y="1254" type="curve"/>
      <point x="8" y="1336" type="line"/>
      <point x="-254" y="1772" type="line"/>
      <point x="-466" y="1632" type="line"/>
      <point x="-442" y="1530"/>
      <point x="-220" y="1304"/>
    </contour>
    <contour>
      <point x="350" y="1254" type="curve"/>
      <point x="486" y="1336" type="line"/>
      <point x="228" y="1772" type="line"/>
      <point x="22" y="1638" type="line"/>
      <point x="48" y="1536"/>
      <point x="250" y="1304"/>
    </contour>
  </outline>
</glyph>
<glyph name="breveinvertedcomb" format="2">
  <unicode hex="0311"/>
  <note>
breve
</note>
  <anchor x="74" y="1114" name="_top"/>
  <anchor x="136" y="1578" name="top"/>
  <outline>
    <contour>
      <point x="114" y="1668" type="curve" smooth="yes"/>
      <point x="-106" y="1668"/>
      <point x="-242" y="1536"/>
      <point x="-242" y="1296" type="curve"/>
      <point x="-62" y="1296" type="line"/>
      <point x="-46" y="1392"/>
      <point x="-6" y="1456"/>
      <point x="98" y="1456" type="curve" smooth="yes"/>
      <point x="222" y="1456"/>
      <point x="250" y="1416"/>
      <point x="236" y="1296" type="curve"/>
      <point x="420" y="1296" type="line"/>
      <point x="466" y="1524"/>
      <point x="358" y="1668"/>
    </contour>
  </outline>
</glyph>
<glyph name="commaturnedabovecomb" format="2">
  <unicode hex="0312"/>
  <note>
uni0326
</note>
  <anchor x="74" y="1114" name="_top"/>
  <anchor x="134" y="1576" name="top"/>
  <outline>
    <contour>
      <point x="126" y="1796" type="line"/>
      <point x="-8" y="1740"/>
      <point x="-60" y="1622"/>
      <point x="-60" y="1508" type="curve" smooth="yes"/>
      <point x="-60" y="1402"/>
      <point x="20" y="1298"/>
      <point x="96" y="1282" type="curve"/>
      <point x="228" y="1374" type="line"/>
      <point x="240" y="1458" type="line"/>
      <point x="200" y="1464"/>
      <point x="170" y="1524"/>
      <point x="170" y="1576" type="curve" smooth="yes"/>
      <point x="170" y="1642"/>
      <point x="196" y="1680"/>
      <point x="228" y="1700" type="curve"/>
      <point x="232" y="1724" type="line"/>
    </contour>
  </outline>
</glyph>
<glyph name="horncomb" format="2">
  <unicode hex="031B"/>
  <outline>
    <contour>
      <point x="-68" y="922" type="line"/>
      <point x="226" y="922"/>
      <point x="462" y="1018"/>
      <point x="504" y="1306" type="curve" smooth="yes"/>
      <point x="506" y="1320"/>
      <point x="504" y="1334"/>
      <point x="504" y="1350" type="curve"/>
      <point x="272" y="1350" type="line"/>
      <point x="274" y="1342"/>
      <point x="270" y="1330"/>
      <point x="266" y="1316" type="curve" smooth="yes"/>
      <point x="242" y="1234"/>
      <point x="224" y="1112"/>
      <point x="-40" y="1112" type="curve"/>
    </contour>
  </outline>
</glyph>
<glyph name="dotbelowcomb" format="2">
  <unicode hex="0323"/>
  <anchor x="0" y="0" name="_bottom"/>
  <anchor x="-52" y="-398" name="bottom"/>
  <outline>
    <contour>
      <point x="-70" y="-546" type="curve" smooth="yes"/>
      <point x="62" y="-546"/>
      <point x="142" y="-462"/>
      <point x="142" y="-344" type="curve" smooth="yes"/>
      <point x="142" y="-258"/>
      <point x="66" y="-186"/>
      <point x="-30" y="-186" type="curve" smooth="yes"/>
      <point x="-150" y="-186"/>
      <point x="-238" y="-274"/>
      <point x="-238" y="-386" type="curve" smooth="yes"/>
      <point x="-238" y="-472"/>
      <point x="-156" y="-546"/>
    </contour>
  </outline>
</glyph>
